<svg width="352" height="207" viewBox="0 0 352 207" fill="none" xmlns="http://www.w3.org/2000/svg">
<path d="M158.176 12.0538C157.654 12.2325 157.375 12.801 157.554 13.3236L160.466 21.8394C160.645 22.3619 161.213 22.6407 161.736 22.462C162.258 22.2832 162.537 21.7147 162.359 21.1922L159.77 13.6226L167.339 11.0339C167.862 10.8552 168.141 10.2867 167.962 9.76408C167.783 9.24151 167.215 8.96276 166.692 9.14148L158.176 12.0538ZM313.94 88.1021L158.94 12.1021L158.06 13.8979L313.06 89.8979L313.94 88.1021Z" fill="#C1BEBE"/>
<rect x="31" width="127" height="32" rx="16" fill="#D4ECE5"/>
<path d="M64.1596 20V11.25H64.9221L69.8596 18.625V11.25H70.6346V20H69.8846L64.9221 12.55V20H64.1596ZM75.054 20.1375C74.5123 20.1375 74.029 20.0125 73.604 19.7625C73.1873 19.5042 72.8581 19.1417 72.6165 18.675C72.3831 18.2 72.2665 17.6417 72.2665 17C72.2665 16.375 72.3831 15.8292 72.6165 15.3625C72.8581 14.8958 73.1873 14.5333 73.604 14.275C74.0206 14.0083 74.4956 13.875 75.029 13.875C75.5706 13.875 76.029 14.0125 76.404 14.2875C76.7873 14.5542 77.079 14.9042 77.279 15.3375C77.479 15.7625 77.579 16.2125 77.579 16.6875V16.9375H73.029C73.0123 17.6875 73.1873 18.2958 73.554 18.7625C73.929 19.2208 74.4331 19.45 75.0665 19.45C75.5331 19.45 75.9248 19.3333 76.2415 19.1C76.5581 18.8583 76.8165 18.5042 77.0165 18.0375L77.6415 18.4C77.1081 19.5583 76.2456 20.1375 75.054 20.1375ZM73.079 16.2875H76.829C76.7873 15.9625 76.6831 15.6667 76.5165 15.4C76.3581 15.1333 76.1498 14.9208 75.8915 14.7625C75.6415 14.6042 75.354 14.525 75.029 14.525C74.5206 14.525 74.0915 14.6833 73.7415 15C73.3998 15.3083 73.179 15.7375 73.079 16.2875ZM80.2275 20L78.3525 14.0125H79.1025L80.54 18.775L81.9525 14.0125H82.565L83.9775 18.775L85.415 14.0125H86.165L84.29 20H83.6775L82.265 15.225L80.8275 20H80.2275ZM93.3886 20.1375C92.8553 20.1375 92.3803 20.0083 91.9636 19.75C91.547 19.4833 91.2178 19.1167 90.9761 18.65C90.7345 18.175 90.6136 17.625 90.6136 17C90.6136 16.375 90.7345 15.8292 90.9761 15.3625C91.2178 14.8958 91.547 14.5333 91.9636 14.275C92.3803 14.0083 92.8553 13.875 93.3886 13.875C93.8386 13.875 94.2386 13.9833 94.5886 14.2C94.9386 14.4083 95.2178 14.6958 95.4261 15.0625V10.975H96.1886V20H95.4886L95.4761 18.9C95.2595 19.2833 94.972 19.5875 94.6136 19.8125C94.2553 20.0292 93.847 20.1375 93.3886 20.1375ZM93.4136 19.425C93.8053 19.425 94.1511 19.325 94.4511 19.125C94.7595 18.925 95.0011 18.6458 95.1761 18.2875C95.3511 17.9208 95.4386 17.4917 95.4386 17C95.4386 16.5083 95.3511 16.0833 95.1761 15.725C95.0011 15.3667 94.7595 15.0875 94.4511 14.8875C94.1511 14.6875 93.8053 14.5875 93.4136 14.5875C93.022 14.5875 92.672 14.6875 92.3636 14.8875C92.0553 15.0875 91.8136 15.3667 91.6386 15.725C91.4636 16.0833 91.3761 16.5083 91.3761 17C91.3761 17.4917 91.4636 17.9208 91.6386 18.2875C91.8136 18.6458 92.0553 18.925 92.3636 19.125C92.672 19.325 93.022 19.425 93.4136 19.425ZM100.506 20.1375C99.9639 20.1375 99.4806 20.0125 99.0556 19.7625C98.6389 19.5042 98.3098 19.1417 98.0681 18.675C97.8348 18.2 97.7181 17.6417 97.7181 17C97.7181 16.375 97.8348 15.8292 98.0681 15.3625C98.3098 14.8958 98.6389 14.5333 99.0556 14.275C99.4723 14.0083 99.9473 13.875 100.481 13.875C101.022 13.875 101.481 14.0125 101.856 14.2875C102.239 14.5542 102.531 14.9042 102.731 15.3375C102.931 15.7625 103.031 16.2125 103.031 16.6875V16.9375H98.4806C98.4639 17.6875 98.6389 18.2958 99.0056 18.7625C99.3806 19.2208 99.8848 19.45 100.518 19.45C100.985 19.45 101.376 19.3333 101.693 19.1C102.01 18.8583 102.268 18.5042 102.468 18.0375L103.093 18.4C102.56 19.5583 101.697 20.1375 100.506 20.1375ZM98.5306 16.2875H102.281C102.239 15.9625 102.135 15.6667 101.968 15.4C101.81 15.1333 101.601 14.9208 101.343 14.7625C101.093 14.6042 100.806 14.525 100.481 14.525C99.9723 14.525 99.5431 14.6833 99.1931 15C98.8514 15.3083 98.6306 15.7375 98.5306 16.2875ZM106.661 20.1375C106.127 20.1375 105.644 20.0333 105.211 19.825C104.777 19.6167 104.427 19.3208 104.161 18.9375L104.711 18.475C104.911 18.7833 105.182 19.0208 105.523 19.1875C105.873 19.3542 106.261 19.4375 106.686 19.4375C107.094 19.4375 107.44 19.35 107.723 19.175C108.015 18.9917 108.161 18.7083 108.161 18.325C108.161 17.9833 108.023 17.7458 107.748 17.6125C107.473 17.4792 107.052 17.3542 106.486 17.2375C106.136 17.1625 105.802 17.0708 105.486 16.9625C105.177 16.8542 104.927 16.6917 104.736 16.475C104.544 16.25 104.448 15.9417 104.448 15.55C104.448 15.1917 104.544 14.8875 104.736 14.6375C104.936 14.3875 105.198 14.1958 105.523 14.0625C105.848 13.9292 106.194 13.8625 106.561 13.8625C107.544 13.8625 108.265 14.2125 108.723 14.9125L108.211 15.375C107.869 14.8333 107.323 14.5625 106.573 14.5625C106.14 14.5625 105.807 14.6583 105.573 14.85C105.34 15.0333 105.223 15.2625 105.223 15.5375C105.223 15.8458 105.348 16.0667 105.598 16.2C105.857 16.325 106.252 16.4458 106.786 16.5625C107.161 16.6458 107.511 16.75 107.836 16.875C108.169 17 108.436 17.175 108.636 17.4C108.836 17.625 108.936 17.9375 108.936 18.3375C108.936 18.8708 108.727 19.3042 108.311 19.6375C107.902 19.9708 107.352 20.1375 106.661 20.1375ZM110.548 20V14.0125H111.298V20H110.548ZM110.923 12.7125C110.765 12.7125 110.628 12.6583 110.511 12.55C110.394 12.4333 110.336 12.2958 110.336 12.1375C110.336 11.9708 110.394 11.8333 110.511 11.725C110.628 11.6167 110.765 11.5625 110.923 11.5625C111.082 11.5625 111.215 11.6167 111.323 11.725C111.432 11.8333 111.486 11.9708 111.486 12.1375C111.486 12.2958 111.432 12.4333 111.323 12.55C111.215 12.6583 111.082 12.7125 110.923 12.7125ZM115.701 22.7C114.593 22.7 113.759 22.2667 113.201 21.4L113.826 20.9875C114.243 21.6458 114.868 21.975 115.701 21.975C116.318 21.975 116.789 21.7708 117.114 21.3625C117.439 20.9625 117.601 20.3583 117.601 19.55V18.475C117.393 18.8 117.122 19.0583 116.789 19.25C116.455 19.4333 116.076 19.525 115.651 19.525C115.143 19.525 114.689 19.4083 114.289 19.175C113.897 18.9417 113.584 18.6125 113.351 18.1875C113.126 17.7625 113.014 17.2625 113.014 16.6875C113.014 16.1125 113.126 15.6167 113.351 15.2C113.584 14.775 113.897 14.4458 114.289 14.2125C114.689 13.9792 115.143 13.8625 115.651 13.8625C116.084 13.8625 116.472 13.9625 116.814 14.1625C117.155 14.3542 117.43 14.6208 117.639 14.9625L117.651 14.0125H118.351V19.55C118.351 20.6333 118.105 21.4292 117.614 21.9375C117.13 22.4458 116.493 22.7 115.701 22.7ZM115.689 18.825C116.064 18.825 116.397 18.7375 116.689 18.5625C116.98 18.3792 117.209 18.1292 117.376 17.8125C117.543 17.4875 117.626 17.1125 117.626 16.6875C117.626 16.2625 117.543 15.8917 117.376 15.575C117.209 15.2583 116.98 15.0125 116.689 14.8375C116.397 14.6542 116.064 14.5625 115.689 14.5625C115.322 14.5625 114.993 14.6542 114.701 14.8375C114.418 15.0125 114.193 15.2583 114.026 15.575C113.859 15.8917 113.776 16.2625 113.776 16.6875C113.776 17.1125 113.859 17.4875 114.026 17.8125C114.193 18.1292 114.418 18.3792 114.701 18.5625C114.993 18.7375 115.322 18.825 115.689 18.825ZM120.211 20V14.0125H120.924L120.949 14.8625C121.141 14.5792 121.395 14.3417 121.711 14.15C122.036 13.9583 122.403 13.8625 122.811 13.8625C123.453 13.8625 123.97 14.0667 124.361 14.475C124.753 14.8833 124.949 15.4667 124.949 16.225V20H124.199V16.3375C124.199 15.7542 124.057 15.3167 123.774 15.025C123.499 14.7333 123.141 14.5875 122.699 14.5875C122.366 14.5875 122.066 14.6625 121.799 14.8125C121.541 14.9542 121.336 15.15 121.186 15.4C121.045 15.6417 120.974 15.9125 120.974 16.2125V20H120.211Z" fill="black"/>
<rect x="41" y="175" width="95" height="32" rx="16" fill="#D4ECE5"/>
<path d="M56.3835 195V186.25H57.146L60.1585 190.762L63.1335 186.25H63.921V195H63.1335V187.587L60.371 191.8H59.946L57.1585 187.587V195H56.3835ZM68.3396 195.138C67.8062 195.138 67.3312 195.004 66.9146 194.737C66.4979 194.471 66.1687 194.104 65.9271 193.637C65.6854 193.162 65.5646 192.617 65.5646 192C65.5646 191.383 65.6854 190.842 65.9271 190.375C66.1687 189.9 66.4979 189.529 66.9146 189.262C67.3312 188.996 67.8062 188.862 68.3396 188.862C68.8812 188.862 69.3604 188.996 69.7771 189.262C70.1937 189.529 70.5229 189.9 70.7646 190.375C71.0062 190.842 71.1271 191.383 71.1271 192C71.1271 192.617 71.0062 193.162 70.7646 193.637C70.5229 194.104 70.1937 194.471 69.7771 194.737C69.3604 195.004 68.8812 195.138 68.3396 195.138ZM68.3396 194.425C68.7312 194.425 69.0771 194.325 69.3771 194.125C69.6854 193.925 69.9271 193.646 70.1021 193.287C70.2771 192.921 70.3646 192.492 70.3646 192C70.3646 191.508 70.2771 191.083 70.1021 190.725C69.9271 190.358 69.6854 190.075 69.3771 189.875C69.0771 189.675 68.7312 189.575 68.3396 189.575C67.7562 189.575 67.2729 189.796 66.8896 190.237C66.5146 190.671 66.3271 191.258 66.3271 192C66.3271 192.733 66.5146 193.321 66.8896 193.762C67.2729 194.204 67.7562 194.425 68.3396 194.425ZM74.1962 195L71.8337 189.012H72.6212L74.5087 193.912L76.3462 189.012H77.1087L74.8337 195H74.1962ZM80.6079 195.138C80.0662 195.138 79.5829 195.013 79.1579 194.762C78.7412 194.504 78.4121 194.142 78.1704 193.675C77.9371 193.2 77.8204 192.642 77.8204 192C77.8204 191.375 77.9371 190.829 78.1704 190.362C78.4121 189.896 78.7412 189.533 79.1579 189.275C79.5746 189.008 80.0496 188.875 80.5829 188.875C81.1246 188.875 81.5829 189.012 81.9579 189.287C82.3412 189.554 82.6329 189.904 82.8329 190.337C83.0329 190.762 83.1329 191.212 83.1329 191.687V191.937H78.5829C78.5662 192.687 78.7412 193.296 79.1079 193.762C79.4829 194.221 79.9871 194.45 80.6204 194.45C81.0871 194.45 81.4787 194.333 81.7954 194.1C82.1121 193.858 82.3704 193.504 82.5704 193.037L83.1954 193.4C82.6621 194.558 81.7996 195.138 80.6079 195.138ZM78.6329 191.287H82.3829C82.3412 190.962 82.2371 190.667 82.0704 190.4C81.9121 190.133 81.7037 189.921 81.4454 189.762C81.1954 189.604 80.9079 189.525 80.5829 189.525C80.0746 189.525 79.6454 189.683 79.2954 190C78.9537 190.308 78.7329 190.737 78.6329 191.287ZM90.554 195.138C90.0207 195.138 89.6207 195.025 89.354 194.8C89.0873 194.575 88.954 194.171 88.954 193.587V189.712H87.654V189.012H88.954V186.812H89.704V189.012H91.529V189.712H89.704V193.462C89.704 193.837 89.7832 194.096 89.9415 194.237C90.0998 194.371 90.3457 194.437 90.679 194.437C90.8207 194.437 90.9707 194.417 91.129 194.375C91.2873 194.333 91.4207 194.287 91.529 194.237V194.975C91.4123 195.017 91.2623 195.054 91.079 195.088C90.8957 195.121 90.7207 195.138 90.554 195.138ZM95.3659 195.138C94.8326 195.138 94.3576 195.004 93.9409 194.737C93.5243 194.471 93.1951 194.104 92.9534 193.637C92.7118 193.162 92.5909 192.617 92.5909 192C92.5909 191.383 92.7118 190.842 92.9534 190.375C93.1951 189.9 93.5243 189.529 93.9409 189.262C94.3576 188.996 94.8326 188.862 95.3659 188.862C95.9076 188.862 96.3868 188.996 96.8034 189.262C97.2201 189.529 97.5493 189.9 97.7909 190.375C98.0326 190.842 98.1534 191.383 98.1534 192C98.1534 192.617 98.0326 193.162 97.7909 193.637C97.5493 194.104 97.2201 194.471 96.8034 194.737C96.3868 195.004 95.9076 195.138 95.3659 195.138ZM95.3659 194.425C95.7576 194.425 96.1034 194.325 96.4034 194.125C96.7118 193.925 96.9534 193.646 97.1284 193.287C97.3034 192.921 97.3909 192.492 97.3909 192C97.3909 191.508 97.3034 191.083 97.1284 190.725C96.9534 190.358 96.7118 190.075 96.4034 189.875C96.1034 189.675 95.7576 189.575 95.3659 189.575C94.7826 189.575 94.2993 189.796 93.9159 190.237C93.5409 190.671 93.3534 191.258 93.3534 192C93.3534 192.733 93.5409 193.321 93.9159 193.762C94.2993 194.204 94.7826 194.425 95.3659 194.425ZM105.608 195.138C105.074 195.138 104.599 195.008 104.183 194.75C103.766 194.483 103.437 194.117 103.195 193.65C102.953 193.175 102.833 192.625 102.833 192C102.833 191.375 102.953 190.829 103.195 190.362C103.437 189.896 103.766 189.533 104.183 189.275C104.599 189.008 105.074 188.875 105.608 188.875C106.058 188.875 106.458 188.983 106.808 189.2C107.158 189.408 107.437 189.696 107.645 190.062V185.975H108.408V195H107.708L107.695 193.9C107.478 194.283 107.191 194.587 106.833 194.812C106.474 195.029 106.066 195.138 105.608 195.138ZM105.633 194.425C106.024 194.425 106.37 194.325 106.67 194.125C106.978 193.925 107.22 193.646 107.395 193.287C107.57 192.921 107.658 192.492 107.658 192C107.658 191.508 107.57 191.083 107.395 190.725C107.22 190.367 106.978 190.087 106.67 189.887C106.37 189.687 106.024 189.587 105.633 189.587C105.241 189.587 104.891 189.687 104.583 189.887C104.274 190.087 104.033 190.367 103.858 190.725C103.683 191.083 103.595 191.508 103.595 192C103.595 192.492 103.683 192.921 103.858 193.287C104.033 193.646 104.274 193.925 104.583 194.125C104.891 194.325 105.241 194.425 105.633 194.425ZM112.725 195.138C112.183 195.138 111.7 195.013 111.275 194.762C110.858 194.504 110.529 194.142 110.287 193.675C110.054 193.2 109.937 192.642 109.937 192C109.937 191.375 110.054 190.829 110.287 190.362C110.529 189.896 110.858 189.533 111.275 189.275C111.691 189.008 112.166 188.875 112.7 188.875C113.241 188.875 113.7 189.012 114.075 189.287C114.458 189.554 114.75 189.904 114.95 190.337C115.15 190.762 115.25 191.212 115.25 191.687V191.937H110.7C110.683 192.687 110.858 193.296 111.225 193.762C111.6 194.221 112.104 194.45 112.737 194.45C113.204 194.45 113.595 194.333 113.912 194.1C114.229 193.858 114.487 193.504 114.687 193.037L115.312 193.4C114.779 194.558 113.916 195.138 112.725 195.138ZM110.75 191.287H114.5C114.458 190.962 114.354 190.667 114.187 190.4C114.029 190.133 113.82 189.921 113.562 189.762C113.312 189.604 113.025 189.525 112.7 189.525C112.191 189.525 111.762 189.683 111.412 190C111.07 190.308 110.85 190.737 110.75 191.287ZM118.386 195L116.023 189.012H116.811L118.698 193.912L120.536 189.012H121.298L119.023 195H118.386Z" fill="black"/>
<rect x="229" y="83" width="97" height="32" rx="16" fill="#D4ECE5"/>
<path d="M247.151 103.15C246.151 103.15 245.376 102.85 244.826 102.25C244.284 101.642 244.013 100.758 244.013 99.6V94.25H244.801V99.575C244.801 100.458 244.997 101.15 245.388 101.65C245.788 102.142 246.376 102.387 247.151 102.387C247.934 102.387 248.522 102.142 248.913 101.65C249.313 101.15 249.513 100.458 249.513 99.575V94.25H250.288V99.6C250.288 100.758 250.018 101.642 249.476 102.25C248.934 102.85 248.159 103.15 247.151 103.15ZM254.205 103.138C253.672 103.138 253.189 103.033 252.755 102.825C252.322 102.617 251.972 102.321 251.705 101.937L252.255 101.475C252.455 101.783 252.726 102.021 253.068 102.187C253.418 102.354 253.805 102.437 254.23 102.437C254.639 102.437 254.985 102.35 255.268 102.175C255.56 101.992 255.705 101.708 255.705 101.325C255.705 100.983 255.568 100.746 255.293 100.612C255.018 100.479 254.597 100.354 254.03 100.237C253.68 100.162 253.347 100.071 253.03 99.9625C252.722 99.8542 252.472 99.6917 252.28 99.475C252.089 99.25 251.993 98.9417 251.993 98.55C251.993 98.1917 252.089 97.8875 252.28 97.6375C252.48 97.3875 252.743 97.1958 253.068 97.0625C253.393 96.9292 253.739 96.8625 254.105 96.8625C255.089 96.8625 255.81 97.2125 256.268 97.9125L255.755 98.375C255.414 97.8333 254.868 97.5625 254.118 97.5625C253.685 97.5625 253.351 97.6583 253.118 97.85C252.885 98.0333 252.768 98.2625 252.768 98.5375C252.768 98.8458 252.893 99.0667 253.143 99.2C253.401 99.325 253.797 99.4458 254.33 99.5625C254.705 99.6458 255.055 99.75 255.38 99.875C255.714 100 255.98 100.175 256.18 100.4C256.38 100.625 256.48 100.937 256.48 101.337C256.48 101.871 256.272 102.304 255.855 102.637C255.447 102.971 254.897 103.138 254.205 103.138ZM260.331 103.138C259.789 103.138 259.306 103.013 258.881 102.762C258.464 102.504 258.135 102.142 257.893 101.675C257.66 101.2 257.543 100.642 257.543 100C257.543 99.375 257.66 98.8292 257.893 98.3625C258.135 97.8958 258.464 97.5333 258.881 97.275C259.297 97.0083 259.772 96.875 260.306 96.875C260.847 96.875 261.306 97.0125 261.681 97.2875C262.064 97.5542 262.356 97.9042 262.556 98.3375C262.756 98.7625 262.856 99.2125 262.856 99.6875V99.9375H258.306C258.289 100.687 258.464 101.296 258.831 101.762C259.206 102.221 259.71 102.45 260.343 102.45C260.81 102.45 261.201 102.333 261.518 102.1C261.835 101.858 262.093 101.504 262.293 101.037L262.918 101.4C262.385 102.558 261.522 103.138 260.331 103.138ZM258.356 99.2875H262.106C262.064 98.9625 261.96 98.6667 261.793 98.4C261.635 98.1333 261.426 97.9208 261.168 97.7625C260.918 97.6042 260.631 97.525 260.306 97.525C259.797 97.525 259.368 97.6833 259.018 98C258.676 98.3083 258.456 98.7375 258.356 99.2875ZM264.436 103V97.0125H265.161L265.198 98.05C265.365 97.7 265.627 97.4167 265.986 97.2C266.352 96.975 266.757 96.8625 267.198 96.8625C267.315 96.8625 267.432 96.8708 267.548 96.8875C267.673 96.8958 267.777 96.9125 267.861 96.9375V97.675C267.786 97.6583 267.677 97.6417 267.536 97.625C267.402 97.6083 267.265 97.6 267.123 97.6C266.773 97.6 266.452 97.6833 266.161 97.85C265.869 98.0083 265.636 98.225 265.461 98.5C265.294 98.7667 265.211 99.0708 265.211 99.4125V103H264.436ZM275.064 103V94.975H272.189V94.25H278.726V94.975H275.851V103H275.064ZM281.815 103.138C281.273 103.138 280.79 103.013 280.365 102.762C279.948 102.504 279.619 102.142 279.377 101.675C279.144 101.2 279.027 100.642 279.027 100C279.027 99.375 279.144 98.8292 279.377 98.3625C279.619 97.8958 279.948 97.5333 280.365 97.275C280.782 97.0083 281.257 96.875 281.79 96.875C282.332 96.875 282.79 97.0125 283.165 97.2875C283.548 97.5542 283.84 97.9042 284.04 98.3375C284.24 98.7625 284.34 99.2125 284.34 99.6875V99.9375H279.79C279.773 100.687 279.948 101.296 280.315 101.762C280.69 102.221 281.194 102.45 281.827 102.45C282.294 102.45 282.686 102.333 283.002 102.1C283.319 101.858 283.577 101.504 283.777 101.037L284.402 101.4C283.869 102.558 283.007 103.138 281.815 103.138ZM279.84 99.2875H283.59C283.548 98.9625 283.444 98.6667 283.277 98.4C283.119 98.1333 282.911 97.9208 282.652 97.7625C282.402 97.6042 282.115 97.525 281.79 97.525C281.282 97.525 280.852 97.6833 280.502 98C280.161 98.3083 279.94 98.7375 279.84 99.2875ZM287.97 103.138C287.437 103.138 286.953 103.033 286.52 102.825C286.087 102.617 285.737 102.321 285.47 101.937L286.02 101.475C286.22 101.783 286.491 102.021 286.833 102.187C287.183 102.354 287.57 102.437 287.995 102.437C288.403 102.437 288.749 102.35 289.033 102.175C289.324 101.992 289.47 101.708 289.47 101.325C289.47 100.983 289.333 100.746 289.058 100.612C288.783 100.479 288.362 100.354 287.795 100.237C287.445 100.162 287.112 100.071 286.795 99.9625C286.487 99.8542 286.237 99.6917 286.045 99.475C285.853 99.25 285.758 98.9417 285.758 98.55C285.758 98.1917 285.853 97.8875 286.045 97.6375C286.245 97.3875 286.508 97.1958 286.833 97.0625C287.158 96.9292 287.503 96.8625 287.87 96.8625C288.853 96.8625 289.574 97.2125 290.033 97.9125L289.52 98.375C289.178 97.8333 288.633 97.5625 287.883 97.5625C287.449 97.5625 287.116 97.6583 286.883 97.85C286.649 98.0333 286.533 98.2625 286.533 98.5375C286.533 98.8458 286.658 99.0667 286.908 99.2C287.166 99.325 287.562 99.4458 288.095 99.5625C288.47 99.6458 288.82 99.75 289.145 99.875C289.478 100 289.745 100.175 289.945 100.4C290.145 100.625 290.245 100.937 290.245 101.337C290.245 101.871 290.037 102.304 289.62 102.637C289.212 102.971 288.662 103.138 287.97 103.138ZM293.983 103.138C293.449 103.138 293.049 103.025 292.783 102.8C292.516 102.575 292.383 102.171 292.383 101.587V97.7125H291.083V97.0125H292.383V94.8125H293.133V97.0125H294.958V97.7125H293.133V101.462C293.133 101.837 293.212 102.096 293.37 102.237C293.529 102.371 293.774 102.437 294.108 102.437C294.249 102.437 294.399 102.417 294.558 102.375C294.716 102.333 294.849 102.287 294.958 102.237V102.975C294.841 103.017 294.691 103.054 294.508 103.088C294.324 103.121 294.149 103.138 293.983 103.138ZM296.57 103V97.0125H297.32V103H296.57ZM296.945 95.7125C296.786 95.7125 296.649 95.6583 296.532 95.55C296.415 95.4333 296.357 95.2958 296.357 95.1375C296.357 94.9708 296.415 94.8333 296.532 94.725C296.649 94.6167 296.786 94.5625 296.945 94.5625C297.103 94.5625 297.236 94.6167 297.345 94.725C297.453 94.8333 297.507 94.9708 297.507 95.1375C297.507 95.2958 297.453 95.4333 297.345 95.55C297.236 95.6583 297.103 95.7125 296.945 95.7125ZM299.372 103V97.0125H300.085L300.11 97.8625C300.301 97.5792 300.556 97.3417 300.872 97.15C301.197 96.9583 301.564 96.8625 301.972 96.8625C302.614 96.8625 303.131 97.0667 303.522 97.475C303.914 97.8833 304.11 98.4667 304.11 99.225V103H303.36V99.3375C303.36 98.7542 303.218 98.3167 302.935 98.025C302.66 97.7333 302.301 97.5875 301.86 97.5875C301.526 97.5875 301.226 97.6625 300.96 97.8125C300.701 97.9542 300.497 98.15 300.347 98.4C300.206 98.6417 300.135 98.9125 300.135 99.2125V103H299.372ZM308.326 105.7C307.218 105.7 306.385 105.267 305.826 104.4L306.451 103.988C306.868 104.646 307.493 104.975 308.326 104.975C308.943 104.975 309.414 104.771 309.739 104.363C310.064 103.963 310.226 103.358 310.226 102.55V101.475C310.018 101.8 309.747 102.058 309.414 102.25C309.08 102.433 308.701 102.525 308.276 102.525C307.768 102.525 307.314 102.408 306.914 102.175C306.522 101.942 306.21 101.612 305.976 101.187C305.751 100.762 305.639 100.262 305.639 99.6875C305.639 99.1125 305.751 98.6167 305.976 98.2C306.21 97.775 306.522 97.4458 306.914 97.2125C307.314 96.9792 307.768 96.8625 308.276 96.8625C308.71 96.8625 309.097 96.9625 309.439 97.1625C309.78 97.3542 310.055 97.6208 310.264 97.9625L310.276 97.0125H310.976V102.55C310.976 103.633 310.73 104.429 310.239 104.938C309.755 105.446 309.118 105.7 308.326 105.7ZM308.314 101.825C308.689 101.825 309.022 101.737 309.314 101.562C309.605 101.379 309.835 101.129 310.001 100.812C310.168 100.487 310.251 100.112 310.251 99.6875C310.251 99.2625 310.168 98.8917 310.001 98.575C309.835 98.2583 309.605 98.0125 309.314 97.8375C309.022 97.6542 308.689 97.5625 308.314 97.5625C307.947 97.5625 307.618 97.6542 307.326 97.8375C307.043 98.0125 306.818 98.2583 306.651 98.575C306.485 98.8917 306.401 99.2625 306.401 99.6875C306.401 100.112 306.485 100.487 306.651 100.812C306.818 101.129 307.043 101.379 307.326 101.562C307.618 101.737 307.947 101.825 308.314 101.825Z" fill="black"/>
<path d="M89.2929 174.707C89.6834 175.098 90.3166 175.098 90.7071 174.707L97.0711 168.343C97.4616 167.953 97.4616 167.319 97.0711 166.929C96.6805 166.538 96.0474 166.538 95.6569 166.929L90 172.586L84.3431 166.929C83.9526 166.538 83.3195 166.538 82.9289 166.929C82.5384 167.319 82.5384 167.953 82.9289 168.343L89.2929 174.707ZM89 117L89 174L91 174L91 117L89 117Z" fill="#C1BEBE"/>
<path d="M126.707 31.2929C126.317 30.9024 125.683 30.9024 125.293 31.2929L118.929 37.6569C118.538 38.0474 118.538 38.6805 118.929 39.0711C119.319 39.4616 119.953 39.4616 120.343 39.0711L126 33.4142L131.657 39.0711C132.047 39.4616 132.681 39.4616 133.071 39.0711C133.462 38.6805 133.462 38.0474 133.071 37.6569L126.707 31.2929ZM127 86L127 32L125 32L125 86L127 86Z" fill="#C1BEBE"/>
<path d="M228.707 101.707C229.098 101.317 229.098 100.683 228.707 100.293L222.343 93.9289C221.953 93.5384 221.319 93.5384 220.929 93.9289C220.538 94.3195 220.538 94.9526 220.929 95.3431L226.586 101L220.929 106.657C220.538 107.047 220.538 107.681 220.929 108.071C221.319 108.462 221.953 108.462 222.343 108.071L228.707 101.707ZM154 102H228V100H154V102Z" fill="#C1BEBE"/>
<path d="M49.2929 85.7071C49.6834 86.0976 50.3166 86.0976 50.7071 85.7071L57.0711 79.3431C57.4616 78.9526 57.4616 78.3195 57.0711 77.9289C56.6805 77.5384 56.0474 77.5384 55.6569 77.9289L50 83.5858L44.3431 77.9289C43.9526 77.5384 43.3195 77.5384 42.9289 77.9289C42.5384 78.3195 42.5384 78.9526 42.9289 79.3431L49.2929 85.7071ZM49 32L49 85L51 85L51 32L49 32Z" fill="#C1BEBE"/>
<path d="M168.155 121.138C167.622 121.138 167.147 121.008 166.73 120.75C166.314 120.483 165.984 120.112 165.743 119.637C165.501 119.162 165.38 118.617 165.38 118C165.38 117.383 165.501 116.842 165.743 116.375C165.984 115.9 166.314 115.533 166.73 115.275C167.147 115.008 167.622 114.875 168.155 114.875C168.58 114.875 168.972 114.962 169.33 115.137C169.697 115.304 170.009 115.554 170.268 115.887L169.668 116.337C169.293 115.837 168.789 115.587 168.155 115.587C167.572 115.587 167.089 115.808 166.705 116.25C166.33 116.683 166.143 117.267 166.143 118C166.143 118.733 166.33 119.321 166.705 119.762C167.089 120.204 167.572 120.425 168.155 120.425C168.789 120.425 169.293 120.175 169.668 119.675L170.268 120.125C169.734 120.8 169.03 121.138 168.155 121.138ZM173.385 121.113C172.801 121.121 172.326 120.987 171.96 120.712C171.601 120.437 171.422 120.037 171.422 119.512C171.422 119.112 171.555 118.762 171.822 118.462C172.097 118.162 172.443 117.929 172.86 117.762C173.285 117.587 173.722 117.5 174.172 117.5C174.789 117.5 175.276 117.646 175.635 117.937V116.912C175.635 116.354 175.518 115.992 175.285 115.825C175.051 115.65 174.676 115.562 174.16 115.562C173.826 115.562 173.455 115.625 173.047 115.75C172.639 115.867 172.293 116.017 172.01 116.2L171.647 115.6C171.972 115.392 172.364 115.217 172.822 115.075C173.289 114.933 173.735 114.862 174.16 114.862C174.918 114.862 175.476 115.008 175.835 115.3C176.193 115.592 176.372 116.129 176.372 116.912V120.225C176.372 120.383 176.414 120.475 176.497 120.5C176.589 120.517 176.785 120.496 177.085 120.437V120.975C177.001 121.008 176.889 121.038 176.747 121.063C176.605 121.096 176.472 121.113 176.347 121.113C176.064 121.113 175.88 121.054 175.797 120.937C175.714 120.821 175.664 120.6 175.647 120.275C175.389 120.558 175.047 120.767 174.622 120.9C174.197 121.033 173.785 121.104 173.385 121.113ZM173.422 120.425C173.822 120.417 174.193 120.354 174.535 120.237C174.885 120.121 175.16 119.954 175.36 119.737C175.568 119.512 175.664 119.242 175.647 118.925C175.622 118.667 175.48 118.475 175.222 118.35C174.964 118.217 174.63 118.154 174.222 118.162C173.88 118.162 173.551 118.221 173.235 118.337C172.918 118.454 172.66 118.617 172.46 118.825C172.268 119.025 172.172 119.258 172.172 119.525C172.172 119.833 172.289 120.062 172.522 120.212C172.755 120.354 173.055 120.425 173.422 120.425ZM178.474 121V115.012H179.187L179.212 115.862C179.403 115.579 179.657 115.342 179.974 115.15C180.299 114.958 180.666 114.862 181.074 114.862C181.716 114.862 182.232 115.067 182.624 115.475C183.016 115.883 183.212 116.467 183.212 117.225V121H182.462V117.337C182.462 116.754 182.32 116.317 182.037 116.025C181.762 115.733 181.403 115.587 180.962 115.587C180.628 115.587 180.328 115.662 180.062 115.812C179.803 115.954 179.599 116.15 179.449 116.4C179.307 116.642 179.237 116.912 179.237 117.212V121H178.474ZM185.078 121V115.012H185.791L185.816 115.862C186.007 115.579 186.261 115.342 186.578 115.15C186.903 114.958 187.27 114.862 187.678 114.862C188.32 114.862 188.836 115.067 189.228 115.475C189.62 115.883 189.816 116.467 189.816 117.225V121H189.066V117.337C189.066 116.754 188.924 116.317 188.641 116.025C188.366 115.733 188.007 115.587 187.566 115.587C187.232 115.587 186.932 115.662 186.666 115.812C186.407 115.954 186.203 116.15 186.053 116.4C185.911 116.642 185.841 116.912 185.841 117.212V121H185.078ZM194.12 121.138C193.586 121.138 193.111 121.004 192.695 120.737C192.278 120.471 191.949 120.104 191.707 119.637C191.465 119.162 191.345 118.617 191.345 118C191.345 117.383 191.465 116.842 191.707 116.375C191.949 115.9 192.278 115.529 192.695 115.262C193.111 114.996 193.586 114.862 194.12 114.862C194.661 114.862 195.14 114.996 195.557 115.262C195.974 115.529 196.303 115.9 196.545 116.375C196.786 116.842 196.907 117.383 196.907 118C196.907 118.617 196.786 119.162 196.545 119.637C196.303 120.104 195.974 120.471 195.557 120.737C195.14 121.004 194.661 121.138 194.12 121.138ZM194.12 120.425C194.511 120.425 194.857 120.325 195.157 120.125C195.465 119.925 195.707 119.646 195.882 119.287C196.057 118.921 196.145 118.492 196.145 118C196.145 117.508 196.057 117.083 195.882 116.725C195.707 116.358 195.465 116.075 195.157 115.875C194.857 115.675 194.511 115.575 194.12 115.575C193.536 115.575 193.053 115.796 192.67 116.237C192.295 116.671 192.107 117.258 192.107 118C192.107 118.733 192.295 119.321 192.67 119.762C193.053 120.204 193.536 120.425 194.12 120.425ZM200.758 121.138C200.225 121.138 199.825 121.025 199.558 120.8C199.291 120.575 199.158 120.171 199.158 119.587V115.712H197.858V115.012H199.158V112.812H199.908V115.012H201.733V115.712H199.908V119.462C199.908 119.837 199.987 120.096 200.145 120.237C200.304 120.371 200.55 120.437 200.883 120.437C201.025 120.437 201.175 120.417 201.333 120.375C201.491 120.333 201.625 120.287 201.733 120.237V120.975C201.616 121.017 201.466 121.054 201.283 121.088C201.1 121.121 200.925 121.138 200.758 121.138ZM168.662 139.138C168.128 139.138 167.653 139.008 167.237 138.75C166.82 138.483 166.491 138.117 166.249 137.65C166.008 137.175 165.887 136.625 165.887 136C165.887 135.375 166.008 134.829 166.249 134.362C166.491 133.896 166.82 133.533 167.237 133.275C167.653 133.008 168.128 132.875 168.662 132.875C169.112 132.875 169.512 132.983 169.862 133.2C170.212 133.408 170.491 133.696 170.699 134.062V129.975H171.462V139H170.762L170.749 137.9C170.533 138.283 170.245 138.587 169.887 138.812C169.528 139.029 169.12 139.138 168.662 139.138ZM168.687 138.425C169.078 138.425 169.424 138.325 169.724 138.125C170.033 137.925 170.274 137.646 170.449 137.287C170.624 136.921 170.712 136.492 170.712 136C170.712 135.508 170.624 135.083 170.449 134.725C170.274 134.367 170.033 134.087 169.724 133.887C169.424 133.687 169.078 133.587 168.687 133.587C168.295 133.587 167.945 133.687 167.637 133.887C167.328 134.087 167.087 134.367 166.912 134.725C166.737 135.083 166.649 135.508 166.649 136C166.649 136.492 166.737 136.921 166.912 137.287C167.087 137.646 167.328 137.925 167.637 138.125C167.945 138.325 168.295 138.425 168.687 138.425ZM175.779 139.138C175.237 139.138 174.754 139.013 174.329 138.762C173.912 138.504 173.583 138.142 173.341 137.675C173.108 137.2 172.991 136.642 172.991 136C172.991 135.375 173.108 134.829 173.341 134.362C173.583 133.896 173.912 133.533 174.329 133.275C174.745 133.008 175.22 132.875 175.754 132.875C176.295 132.875 176.754 133.012 177.129 133.287C177.512 133.554 177.804 133.904 178.004 134.337C178.204 134.762 178.304 135.212 178.304 135.687V135.937H173.754C173.737 136.687 173.912 137.296 174.279 137.762C174.654 138.221 175.158 138.45 175.791 138.45C176.258 138.45 176.65 138.333 176.966 138.1C177.283 137.858 177.541 137.504 177.741 137.037L178.366 137.4C177.833 138.558 176.97 139.138 175.779 139.138ZM173.804 135.287H177.554C177.512 134.962 177.408 134.667 177.241 134.4C177.083 134.133 176.875 133.921 176.616 133.762C176.366 133.604 176.079 133.525 175.754 133.525C175.245 133.525 174.816 133.683 174.466 134C174.125 134.308 173.904 134.737 173.804 135.287ZM182.321 139.138C181.788 139.138 181.313 139.008 180.896 138.75C180.48 138.483 180.151 138.112 179.909 137.637C179.667 137.162 179.546 136.617 179.546 136C179.546 135.383 179.667 134.842 179.909 134.375C180.151 133.9 180.48 133.533 180.896 133.275C181.313 133.008 181.788 132.875 182.321 132.875C182.746 132.875 183.138 132.962 183.496 133.137C183.863 133.304 184.176 133.554 184.434 133.887L183.834 134.337C183.459 133.837 182.955 133.587 182.321 133.587C181.738 133.587 181.255 133.808 180.871 134.25C180.496 134.683 180.309 135.267 180.309 136C180.309 136.733 180.496 137.321 180.871 137.762C181.255 138.204 181.738 138.425 182.321 138.425C182.955 138.425 183.459 138.175 183.834 137.675L184.434 138.125C183.901 138.8 183.196 139.138 182.321 139.138ZM186.163 139V133.012H186.913V139H186.163ZM186.538 131.712C186.38 131.712 186.243 131.658 186.126 131.55C186.009 131.433 185.951 131.296 185.951 131.137C185.951 130.971 186.009 130.833 186.126 130.725C186.243 130.617 186.38 130.562 186.538 130.562C186.697 130.562 186.83 130.617 186.938 130.725C187.047 130.833 187.101 130.971 187.101 131.137C187.101 131.296 187.047 131.433 186.938 131.55C186.83 131.658 186.697 131.712 186.538 131.712ZM191.404 139.138C190.87 139.138 190.395 139.008 189.979 138.75C189.562 138.483 189.233 138.117 188.991 137.65C188.749 137.175 188.629 136.625 188.629 136C188.629 135.375 188.749 134.829 188.991 134.362C189.233 133.896 189.562 133.533 189.979 133.275C190.395 133.008 190.87 132.875 191.404 132.875C191.854 132.875 192.254 132.983 192.604 133.2C192.954 133.408 193.233 133.696 193.441 134.062V129.975H194.204V139H193.504L193.491 137.9C193.274 138.283 192.987 138.587 192.629 138.812C192.27 139.029 191.862 139.138 191.404 139.138ZM191.429 138.425C191.82 138.425 192.166 138.325 192.466 138.125C192.774 137.925 193.016 137.646 193.191 137.287C193.366 136.921 193.454 136.492 193.454 136C193.454 135.508 193.366 135.083 193.191 134.725C193.016 134.367 192.774 134.087 192.466 133.887C192.166 133.687 191.82 133.587 191.429 133.587C191.037 133.587 190.687 133.687 190.379 133.887C190.07 134.087 189.829 134.367 189.654 134.725C189.479 135.083 189.391 135.508 189.391 136C189.391 136.492 189.479 136.921 189.654 137.287C189.829 137.646 190.07 137.925 190.379 138.125C190.687 138.325 191.037 138.425 191.429 138.425ZM198.521 139.138C197.979 139.138 197.496 139.013 197.071 138.762C196.654 138.504 196.325 138.142 196.083 137.675C195.85 137.2 195.733 136.642 195.733 136C195.733 135.375 195.85 134.829 196.083 134.362C196.325 133.896 196.654 133.533 197.071 133.275C197.487 133.008 197.962 132.875 198.496 132.875C199.037 132.875 199.496 133.012 199.871 133.287C200.254 133.554 200.546 133.904 200.746 134.337C200.946 134.762 201.046 135.212 201.046 135.687V135.937H196.496C196.479 136.687 196.654 137.296 197.021 137.762C197.396 138.221 197.9 138.45 198.533 138.45C199 138.45 199.391 138.333 199.708 138.1C200.025 137.858 200.283 137.504 200.483 137.037L201.108 137.4C200.575 138.558 199.712 139.138 198.521 139.138ZM196.546 135.287H200.296C200.254 134.962 200.15 134.667 199.983 134.4C199.825 134.133 199.616 133.921 199.358 133.762C199.108 133.604 198.821 133.525 198.496 133.525C197.987 133.525 197.558 133.683 197.208 134C196.866 134.308 196.646 134.737 196.546 135.287Z" fill="black"/>
<path d="M138.758 62.1375C138.225 62.1375 137.75 62.0083 137.333 61.75C136.916 61.4833 136.587 61.1167 136.346 60.65C136.104 60.175 135.983 59.625 135.983 59C135.983 58.375 136.104 57.8292 136.346 57.3625C136.587 56.8958 136.916 56.5333 137.333 56.275C137.75 56.0083 138.225 55.875 138.758 55.875C139.208 55.875 139.608 55.9833 139.958 56.2C140.308 56.4083 140.587 56.6958 140.796 57.0625V52.975H141.558V62H140.858L140.846 60.9C140.629 61.2833 140.341 61.5875 139.983 61.8125C139.625 62.0292 139.216 62.1375 138.758 62.1375ZM138.783 61.425C139.175 61.425 139.521 61.325 139.821 61.125C140.129 60.925 140.371 60.6458 140.546 60.2875C140.721 59.9208 140.808 59.4917 140.808 59C140.808 58.5083 140.721 58.0833 140.546 57.725C140.371 57.3667 140.129 57.0875 139.821 56.8875C139.521 56.6875 139.175 56.5875 138.783 56.5875C138.391 56.5875 138.041 56.6875 137.733 56.8875C137.425 57.0875 137.183 57.3667 137.008 57.725C136.833 58.0833 136.746 58.5083 136.746 59C136.746 59.4917 136.833 59.9208 137.008 60.2875C137.183 60.6458 137.425 60.925 137.733 61.125C138.041 61.325 138.391 61.425 138.783 61.425ZM145.875 62.1375C145.333 62.1375 144.85 62.0125 144.425 61.7625C144.008 61.5042 143.679 61.1417 143.438 60.675C143.204 60.2 143.088 59.6417 143.088 59C143.088 58.375 143.204 57.8292 143.438 57.3625C143.679 56.8958 144.008 56.5333 144.425 56.275C144.842 56.0083 145.317 55.875 145.85 55.875C146.392 55.875 146.85 56.0125 147.225 56.2875C147.608 56.5542 147.9 56.9042 148.1 57.3375C148.3 57.7625 148.4 58.2125 148.4 58.6875V58.9375H143.85C143.833 59.6875 144.008 60.2958 144.375 60.7625C144.75 61.2208 145.254 61.45 145.888 61.45C146.354 61.45 146.746 61.3333 147.063 61.1C147.379 60.8583 147.638 60.5042 147.838 60.0375L148.463 60.4C147.929 61.5583 147.067 62.1375 145.875 62.1375ZM143.9 58.2875H147.65C147.608 57.9625 147.504 57.6667 147.338 57.4C147.179 57.1333 146.971 56.9208 146.713 56.7625C146.463 56.6042 146.175 56.525 145.85 56.525C145.342 56.525 144.913 56.6833 144.563 57C144.221 57.3083 144 57.7375 143.9 58.2875ZM152.418 62.1375C151.884 62.1375 151.409 62.0083 150.993 61.75C150.576 61.4833 150.247 61.1125 150.005 60.6375C149.764 60.1625 149.643 59.6167 149.643 59C149.643 58.3833 149.764 57.8417 150.005 57.375C150.247 56.9 150.576 56.5333 150.993 56.275C151.409 56.0083 151.884 55.875 152.418 55.875C152.843 55.875 153.234 55.9625 153.593 56.1375C153.959 56.3042 154.272 56.5542 154.53 56.8875L153.93 57.3375C153.555 56.8375 153.051 56.5875 152.418 56.5875C151.834 56.5875 151.351 56.8083 150.968 57.25C150.593 57.6833 150.405 58.2667 150.405 59C150.405 59.7333 150.593 60.3208 150.968 60.7625C151.351 61.2042 151.834 61.425 152.418 61.425C153.051 61.425 153.555 61.175 153.93 60.675L154.53 61.125C153.997 61.8 153.293 62.1375 152.418 62.1375ZM156.26 62V56.0125H157.01V62H156.26ZM156.635 54.7125C156.476 54.7125 156.339 54.6583 156.222 54.55C156.105 54.4333 156.047 54.2958 156.047 54.1375C156.047 53.9708 156.105 53.8333 156.222 53.725C156.339 53.6167 156.476 53.5625 156.635 53.5625C156.793 53.5625 156.926 53.6167 157.035 53.725C157.143 53.8333 157.197 53.9708 157.197 54.1375C157.197 54.2958 157.143 54.4333 157.035 54.55C156.926 54.6583 156.793 54.7125 156.635 54.7125ZM161.112 62.1375C160.579 62.1375 160.096 62.0333 159.662 61.825C159.229 61.6167 158.879 61.3208 158.612 60.9375L159.162 60.475C159.362 60.7833 159.633 61.0208 159.975 61.1875C160.325 61.3542 160.712 61.4375 161.137 61.4375C161.546 61.4375 161.891 61.35 162.175 61.175C162.466 60.9917 162.612 60.7083 162.612 60.325C162.612 59.9833 162.475 59.7458 162.2 59.6125C161.925 59.4792 161.504 59.3542 160.937 59.2375C160.587 59.1625 160.254 59.0708 159.937 58.9625C159.629 58.8542 159.379 58.6917 159.187 58.475C158.996 58.25 158.9 57.9417 158.9 57.55C158.9 57.1917 158.996 56.8875 159.187 56.6375C159.387 56.3875 159.65 56.1958 159.975 56.0625C160.3 55.9292 160.646 55.8625 161.012 55.8625C161.996 55.8625 162.716 56.2125 163.175 56.9125L162.662 57.375C162.321 56.8333 161.775 56.5625 161.025 56.5625C160.591 56.5625 160.258 56.6583 160.025 56.85C159.791 57.0333 159.675 57.2625 159.675 57.5375C159.675 57.8458 159.8 58.0667 160.05 58.2C160.308 58.325 160.704 58.4458 161.237 58.5625C161.612 58.6458 161.962 58.75 162.287 58.875C162.621 59 162.887 59.175 163.087 59.4C163.287 59.625 163.387 59.9375 163.387 60.3375C163.387 60.8708 163.179 61.3042 162.762 61.6375C162.354 61.9708 161.804 62.1375 161.112 62.1375ZM165 62V56.0125H165.75V62H165ZM165.375 54.7125C165.216 54.7125 165.079 54.6583 164.962 54.55C164.846 54.4333 164.787 54.2958 164.787 54.1375C164.787 53.9708 164.846 53.8333 164.962 53.725C165.079 53.6167 165.216 53.5625 165.375 53.5625C165.533 53.5625 165.666 53.6167 165.775 53.725C165.883 53.8333 165.937 53.9708 165.937 54.1375C165.937 54.2958 165.883 54.4333 165.775 54.55C165.666 54.6583 165.533 54.7125 165.375 54.7125ZM170.24 62.1375C169.707 62.1375 169.232 62.0042 168.815 61.7375C168.398 61.4708 168.069 61.1042 167.827 60.6375C167.586 60.1625 167.465 59.6167 167.465 59C167.465 58.3833 167.586 57.8417 167.827 57.375C168.069 56.9 168.398 56.5292 168.815 56.2625C169.232 55.9958 169.707 55.8625 170.24 55.8625C170.782 55.8625 171.261 55.9958 171.677 56.2625C172.094 56.5292 172.423 56.9 172.665 57.375C172.907 57.8417 173.027 58.3833 173.027 59C173.027 59.6167 172.907 60.1625 172.665 60.6375C172.423 61.1042 172.094 61.4708 171.677 61.7375C171.261 62.0042 170.782 62.1375 170.24 62.1375ZM170.24 61.425C170.632 61.425 170.977 61.325 171.277 61.125C171.586 60.925 171.827 60.6458 172.002 60.2875C172.177 59.9208 172.265 59.4917 172.265 59C172.265 58.5083 172.177 58.0833 172.002 57.725C171.827 57.3583 171.586 57.075 171.277 56.875C170.977 56.675 170.632 56.575 170.24 56.575C169.657 56.575 169.173 56.7958 168.79 57.2375C168.415 57.6708 168.227 58.2583 168.227 59C168.227 59.7333 168.415 60.3208 168.79 60.7625C169.173 61.2042 169.657 61.425 170.24 61.425ZM174.541 62V56.0125H175.253L175.278 56.8625C175.47 56.5792 175.724 56.3417 176.041 56.15C176.366 55.9583 176.732 55.8625 177.141 55.8625C177.782 55.8625 178.299 56.0667 178.691 56.475C179.082 56.8833 179.278 57.4667 179.278 58.225V62H178.528V58.3375C178.528 57.7542 178.387 57.3167 178.103 57.025C177.828 56.7333 177.47 56.5875 177.028 56.5875C176.695 56.5875 176.395 56.6625 176.128 56.8125C175.87 56.9542 175.666 57.15 175.516 57.4C175.374 57.6417 175.303 57.9125 175.303 58.2125V62H174.541ZM181.095 59.2V58.45H184.62V59.2H181.095ZM186.418 62V56.0125H187.131L187.168 56.95C187.301 56.6417 187.522 56.3833 187.831 56.175C188.139 55.9667 188.489 55.8625 188.881 55.8625C189.364 55.8625 189.76 55.975 190.068 56.2C190.385 56.425 190.597 56.7375 190.706 57.1375C190.847 56.7708 191.072 56.4667 191.381 56.225C191.689 55.9833 192.085 55.8625 192.568 55.8625C193.185 55.8625 193.668 56.0583 194.018 56.45C194.368 56.8333 194.543 57.4125 194.543 58.1875V62H193.781V58.3C193.781 57.6667 193.66 57.2208 193.418 56.9625C193.176 56.7042 192.851 56.575 192.443 56.575C192.126 56.575 191.847 56.6583 191.606 56.825C191.372 56.9833 191.189 57.1958 191.056 57.4625C190.931 57.7208 190.868 58.0042 190.868 58.3125V62H190.106V58.3C190.106 57.6667 189.981 57.2208 189.731 56.9625C189.489 56.7042 189.164 56.575 188.756 56.575C188.439 56.575 188.16 56.6583 187.918 56.825C187.685 56.9917 187.501 57.2083 187.368 57.475C187.243 57.7333 187.181 58.0083 187.181 58.3V62H186.418ZM198.004 62.1125C197.42 62.1208 196.945 61.9875 196.579 61.7125C196.22 61.4375 196.041 61.0375 196.041 60.5125C196.041 60.1125 196.174 59.7625 196.441 59.4625C196.716 59.1625 197.062 58.9292 197.479 58.7625C197.904 58.5875 198.341 58.5 198.791 58.5C199.408 58.5 199.895 58.6458 200.254 58.9375V57.9125C200.254 57.3542 200.137 56.9917 199.904 56.825C199.67 56.65 199.295 56.5625 198.779 56.5625C198.445 56.5625 198.074 56.625 197.666 56.75C197.258 56.8667 196.912 57.0167 196.629 57.2L196.266 56.6C196.591 56.3917 196.983 56.2167 197.441 56.075C197.908 55.9333 198.354 55.8625 198.779 55.8625C199.537 55.8625 200.095 56.0083 200.454 56.3C200.812 56.5917 200.991 57.1292 200.991 57.9125V61.225C200.991 61.3833 201.033 61.475 201.116 61.5C201.208 61.5167 201.404 61.4958 201.704 61.4375V61.975C201.62 62.0083 201.508 62.0375 201.366 62.0625C201.224 62.0958 201.091 62.1125 200.966 62.1125C200.683 62.1125 200.499 62.0542 200.416 61.9375C200.333 61.8208 200.283 61.6 200.266 61.275C200.008 61.5583 199.666 61.7667 199.241 61.9C198.816 62.0333 198.404 62.1042 198.004 62.1125ZM198.041 61.425C198.441 61.4167 198.812 61.3542 199.154 61.2375C199.504 61.1208 199.779 60.9542 199.979 60.7375C200.187 60.5125 200.283 60.2417 200.266 59.925C200.241 59.6667 200.099 59.475 199.841 59.35C199.583 59.2167 199.249 59.1542 198.841 59.1625C198.499 59.1625 198.17 59.2208 197.854 59.3375C197.537 59.4542 197.279 59.6167 197.079 59.825C196.887 60.025 196.791 60.2583 196.791 60.525C196.791 60.8333 196.908 61.0625 197.141 61.2125C197.374 61.3542 197.674 61.425 198.041 61.425ZM203.093 62V52.975H203.855V58.4625L206.593 56.0125H207.643L204.543 58.725L207.768 62H206.78L203.855 58.9875V62H203.093ZM209.263 62V56.0125H210.013V62H209.263ZM209.638 54.7125C209.479 54.7125 209.342 54.6583 209.225 54.55C209.108 54.4333 209.05 54.2958 209.05 54.1375C209.05 53.9708 209.108 53.8333 209.225 53.725C209.342 53.6167 209.479 53.5625 209.638 53.5625C209.796 53.5625 209.929 53.6167 210.038 53.725C210.146 53.8333 210.2 53.9708 210.2 54.1375C210.2 54.2958 210.146 54.4333 210.038 54.55C209.929 54.6583 209.796 54.7125 209.638 54.7125ZM212.065 62V56.0125H212.778L212.803 56.8625C212.994 56.5792 213.248 56.3417 213.565 56.15C213.89 55.9583 214.257 55.8625 214.665 55.8625C215.307 55.8625 215.823 56.0667 216.215 56.475C216.607 56.8833 216.803 57.4667 216.803 58.225V62H216.053V58.3375C216.053 57.7542 215.911 57.3167 215.628 57.025C215.353 56.7333 214.994 56.5875 214.553 56.5875C214.219 56.5875 213.919 56.6625 213.653 56.8125C213.394 56.9542 213.19 57.15 213.04 57.4C212.898 57.6417 212.828 57.9125 212.828 58.2125V62H212.065ZM221.019 64.7C219.911 64.7 219.077 64.2667 218.519 63.4L219.144 62.9875C219.561 63.6458 220.186 63.975 221.019 63.975C221.636 63.975 222.107 63.7708 222.432 63.3625C222.757 62.9625 222.919 62.3583 222.919 61.55V60.475C222.711 60.8 222.44 61.0583 222.107 61.25C221.773 61.4333 221.394 61.525 220.969 61.525C220.461 61.525 220.007 61.4083 219.607 61.175C219.215 60.9417 218.902 60.6125 218.669 60.1875C218.444 59.7625 218.332 59.2625 218.332 58.6875C218.332 58.1125 218.444 57.6167 218.669 57.2C218.902 56.775 219.215 56.4458 219.607 56.2125C220.007 55.9792 220.461 55.8625 220.969 55.8625C221.402 55.8625 221.79 55.9625 222.132 56.1625C222.473 56.3542 222.748 56.6208 222.957 56.9625L222.969 56.0125H223.669V61.55C223.669 62.6333 223.423 63.4292 222.932 63.9375C222.448 64.4458 221.811 64.7 221.019 64.7ZM221.007 60.825C221.382 60.825 221.715 60.7375 222.007 60.5625C222.298 60.3792 222.527 60.1292 222.694 59.8125C222.861 59.4875 222.944 59.1125 222.944 58.6875C222.944 58.2625 222.861 57.8917 222.694 57.575C222.527 57.2583 222.298 57.0125 222.007 56.8375C221.715 56.6542 221.382 56.5625 221.007 56.5625C220.64 56.5625 220.311 56.6542 220.019 56.8375C219.736 57.0125 219.511 57.2583 219.344 57.575C219.177 57.8917 219.094 58.2625 219.094 58.6875C219.094 59.1125 219.177 59.4875 219.344 59.8125C219.511 60.1292 219.736 60.3792 220.019 60.5625C220.311 60.7375 220.64 60.825 221.007 60.825Z" fill="black"/>
<rect x="27" y="85" width="127" height="32" rx="16" fill="#D4ECE5"/>
<path d="M42.1298 105V96.25H44.6673C45.3923 96.25 46.0215 96.3667 46.5548 96.6C47.0882 96.825 47.5257 97.1417 47.8673 97.55C48.2173 97.95 48.4757 98.4167 48.6423 98.95C48.8173 99.475 48.9048 100.033 48.9048 100.625C48.9048 101.217 48.8173 101.779 48.6423 102.312C48.4757 102.837 48.2173 103.304 47.8673 103.712C47.5257 104.112 47.0882 104.429 46.5548 104.662C46.0215 104.887 45.3923 105 44.6673 105H42.1298ZM42.8923 104.262H44.6298C45.4548 104.262 46.1215 104.096 46.6298 103.762C47.1465 103.421 47.5215 102.975 47.7548 102.425C47.9965 101.867 48.1173 101.267 48.1173 100.625C48.1173 99.975 47.9965 99.375 47.7548 98.825C47.5215 98.2667 47.1465 97.8208 46.6298 97.4875C46.1215 97.1458 45.4548 96.975 44.6298 96.975H42.8923V104.262ZM50.628 105V99.0125H51.378V105H50.628ZM51.003 97.7125C50.8446 97.7125 50.7071 97.6583 50.5905 97.55C50.4738 97.4333 50.4155 97.2958 50.4155 97.1375C50.4155 96.9708 50.4738 96.8333 50.5905 96.725C50.7071 96.6167 50.8446 96.5625 51.003 96.5625C51.1613 96.5625 51.2946 96.6167 51.403 96.725C51.5113 96.8333 51.5655 96.9708 51.5655 97.1375C51.5655 97.2958 51.5113 97.4333 51.403 97.55C51.2946 97.6583 51.1613 97.7125 51.003 97.7125ZM55.4806 105.138C54.9473 105.138 54.4639 105.033 54.0306 104.825C53.5973 104.617 53.2473 104.321 52.9806 103.937L53.5306 103.475C53.7306 103.783 54.0014 104.021 54.3431 104.187C54.6931 104.354 55.0806 104.437 55.5056 104.437C55.9139 104.437 56.2598 104.35 56.5431 104.175C56.8348 103.992 56.9806 103.708 56.9806 103.325C56.9806 102.983 56.8431 102.746 56.5681 102.612C56.2931 102.479 55.8723 102.354 55.3056 102.237C54.9556 102.162 54.6223 102.071 54.3056 101.962C53.9973 101.854 53.7473 101.692 53.5556 101.475C53.3639 101.25 53.2681 100.942 53.2681 100.55C53.2681 100.192 53.3639 99.8875 53.5556 99.6375C53.7556 99.3875 54.0181 99.1958 54.3431 99.0625C54.6681 98.9292 55.0139 98.8625 55.3806 98.8625C56.3639 98.8625 57.0848 99.2125 57.5431 99.9125L57.0306 100.375C56.6889 99.8333 56.1431 99.5625 55.3931 99.5625C54.9598 99.5625 54.6264 99.6583 54.3931 99.85C54.1598 100.033 54.0431 100.262 54.0431 100.537C54.0431 100.846 54.1681 101.067 54.4181 101.2C54.6764 101.325 55.0723 101.446 55.6056 101.562C55.9806 101.646 56.3306 101.75 56.6556 101.875C56.9889 102 57.2556 102.175 57.4556 102.4C57.6556 102.625 57.7556 102.937 57.7556 103.337C57.7556 103.871 57.5473 104.304 57.1306 104.637C56.7223 104.971 56.1723 105.138 55.4806 105.138ZM61.5932 105.138C61.0599 105.138 60.5849 105.008 60.1682 104.75C59.7515 104.483 59.4224 104.112 59.1807 103.637C58.939 103.162 58.8182 102.617 58.8182 102C58.8182 101.383 58.939 100.842 59.1807 100.375C59.4224 99.9 59.7515 99.5333 60.1682 99.275C60.5849 99.0083 61.0599 98.875 61.5932 98.875C62.0182 98.875 62.4099 98.9625 62.7682 99.1375C63.1349 99.3042 63.4474 99.5542 63.7057 99.8875L63.1057 100.337C62.7307 99.8375 62.2265 99.5875 61.5932 99.5875C61.0099 99.5875 60.5265 99.8083 60.1432 100.25C59.7682 100.683 59.5807 101.267 59.5807 102C59.5807 102.733 59.7682 103.321 60.1432 103.762C60.5265 104.204 61.0099 104.425 61.5932 104.425C62.2265 104.425 62.7307 104.175 63.1057 103.675L63.7057 104.125C63.1724 104.8 62.4682 105.138 61.5932 105.138ZM67.2476 105.138C66.6143 105.138 66.1018 104.933 65.7101 104.525C65.3184 104.117 65.1226 103.533 65.1226 102.775V99.0125H65.8726V102.675C65.8726 103.258 66.0101 103.696 66.2851 103.987C66.5684 104.279 66.9309 104.425 67.3726 104.425C67.8809 104.425 68.2934 104.267 68.6101 103.95C68.9268 103.633 69.0851 103.246 69.0851 102.787V99.0125H69.8476V104.987H69.1351L69.1101 104.15C68.9351 104.425 68.6851 104.658 68.3601 104.85C68.0351 105.042 67.6643 105.138 67.2476 105.138ZM73.7545 105.138C73.2212 105.138 72.7379 105.033 72.3045 104.825C71.8712 104.617 71.5212 104.321 71.2545 103.937L71.8045 103.475C72.0045 103.783 72.2754 104.021 72.617 104.187C72.967 104.354 73.3545 104.437 73.7795 104.437C74.1879 104.437 74.5337 104.35 74.817 104.175C75.1087 103.992 75.2545 103.708 75.2545 103.325C75.2545 102.983 75.117 102.746 74.842 102.612C74.567 102.479 74.1462 102.354 73.5795 102.237C73.2295 102.162 72.8962 102.071 72.5795 101.962C72.2712 101.854 72.0212 101.692 71.8295 101.475C71.6379 101.25 71.542 100.942 71.542 100.55C71.542 100.192 71.6379 99.8875 71.8295 99.6375C72.0295 99.3875 72.292 99.1958 72.617 99.0625C72.942 98.9292 73.2879 98.8625 73.6545 98.8625C74.6379 98.8625 75.3587 99.2125 75.817 99.9125L75.3045 100.375C74.9629 99.8333 74.417 99.5625 73.667 99.5625C73.2337 99.5625 72.9004 99.6583 72.667 99.85C72.4337 100.033 72.317 100.262 72.317 100.537C72.317 100.846 72.442 101.067 72.692 101.2C72.9504 101.325 73.3462 101.446 73.8795 101.562C74.2545 101.646 74.6045 101.75 74.9295 101.875C75.2629 102 75.5295 102.175 75.7295 102.4C75.9295 102.625 76.0295 102.937 76.0295 103.337C76.0295 103.871 75.8212 104.304 75.4045 104.637C74.9962 104.971 74.4462 105.138 73.7545 105.138ZM79.4796 105.138C78.9463 105.138 78.463 105.033 78.0296 104.825C77.5963 104.617 77.2463 104.321 76.9796 103.937L77.5296 103.475C77.7296 103.783 78.0005 104.021 78.3421 104.187C78.6921 104.354 79.0796 104.437 79.5046 104.437C79.913 104.437 80.2588 104.35 80.5421 104.175C80.8338 103.992 80.9796 103.708 80.9796 103.325C80.9796 102.983 80.8421 102.746 80.5671 102.612C80.2921 102.479 79.8713 102.354 79.3046 102.237C78.9546 102.162 78.6213 102.071 78.3046 101.962C77.9963 101.854 77.7463 101.692 77.5546 101.475C77.363 101.25 77.2671 100.942 77.2671 100.55C77.2671 100.192 77.363 99.8875 77.5546 99.6375C77.7546 99.3875 78.0171 99.1958 78.3421 99.0625C78.6671 98.9292 79.013 98.8625 79.3796 98.8625C80.363 98.8625 81.0838 99.2125 81.5421 99.9125L81.0296 100.375C80.688 99.8333 80.1421 99.5625 79.3921 99.5625C78.9588 99.5625 78.6255 99.6583 78.3921 99.85C78.1588 100.033 78.0421 100.262 78.0421 100.537C78.0421 100.846 78.1671 101.067 78.4171 101.2C78.6755 101.325 79.0713 101.446 79.6046 101.562C79.9796 101.646 80.3296 101.75 80.6546 101.875C80.988 102 81.2546 102.175 81.4546 102.4C81.6546 102.625 81.7546 102.937 81.7546 103.337C81.7546 103.871 81.5463 104.304 81.1296 104.637C80.7213 104.971 80.1713 105.138 79.4796 105.138ZM87.9707 105L86.0957 99.0125H86.8457L88.2832 103.775L89.6957 99.0125H90.3082L91.7207 103.775L93.1582 99.0125H93.9082L92.0332 105H91.4207L90.0082 100.225L88.5707 105H87.9707ZM95.4034 105V99.0125H96.1534V105H95.4034ZM95.7784 97.7125C95.62 97.7125 95.4825 97.6583 95.3659 97.55C95.2492 97.4333 95.1909 97.2958 95.1909 97.1375C95.1909 96.9708 95.2492 96.8333 95.3659 96.725C95.4825 96.6167 95.62 96.5625 95.7784 96.5625C95.9367 96.5625 96.07 96.6167 96.1784 96.725C96.2867 96.8333 96.3409 96.9708 96.3409 97.1375C96.3409 97.2958 96.2867 97.4333 96.1784 97.55C96.07 97.6583 95.9367 97.7125 95.7784 97.7125ZM100.544 105.138C100.01 105.138 99.6102 105.025 99.3435 104.8C99.0768 104.575 98.9435 104.171 98.9435 103.587V99.7125H97.6435V99.0125H98.9435V96.8125H99.6935V99.0125H101.519V99.7125H99.6935V103.462C99.6935 103.837 99.7727 104.096 99.931 104.237C100.089 104.371 100.335 104.437 100.669 104.437C100.81 104.437 100.96 104.417 101.119 104.375C101.277 104.333 101.41 104.287 101.519 104.237V104.975C101.402 105.017 101.252 105.054 101.069 105.088C100.885 105.121 100.71 105.138 100.544 105.138ZM102.918 105V95.975H103.68V99.8625C103.855 99.5792 104.101 99.3417 104.418 99.15C104.743 98.9583 105.11 98.8625 105.518 98.8625C106.16 98.8625 106.676 99.0667 107.068 99.475C107.46 99.8833 107.655 100.467 107.655 101.225V105H106.905V101.337C106.905 100.754 106.764 100.317 106.48 100.025C106.205 99.7333 105.847 99.5875 105.405 99.5875C105.072 99.5875 104.772 99.6625 104.505 99.8125C104.247 99.9542 104.043 100.15 103.893 100.4C103.751 100.642 103.68 100.912 103.68 101.212V105H102.918ZM115.363 105.138C114.83 105.138 114.43 105.025 114.163 104.8C113.896 104.575 113.763 104.171 113.763 103.587V99.7125H112.463V99.0125H113.763V96.8125H114.513V99.0125H116.338V99.7125H114.513V103.462C114.513 103.837 114.592 104.096 114.75 104.237C114.909 104.371 115.155 104.437 115.488 104.437C115.63 104.437 115.78 104.417 115.938 104.375C116.096 104.333 116.23 104.287 116.338 104.237V104.975C116.221 105.017 116.071 105.054 115.888 105.088C115.705 105.121 115.53 105.138 115.363 105.138ZM120.187 105.138C119.646 105.138 119.162 105.013 118.737 104.762C118.321 104.504 117.991 104.142 117.75 103.675C117.516 103.2 117.4 102.642 117.4 102C117.4 101.375 117.516 100.829 117.75 100.362C117.991 99.8958 118.321 99.5333 118.737 99.275C119.154 99.0083 119.629 98.875 120.162 98.875C120.704 98.875 121.162 99.0125 121.537 99.2875C121.921 99.5542 122.212 99.9042 122.412 100.337C122.612 100.762 122.712 101.212 122.712 101.687V101.937H118.162C118.146 102.687 118.321 103.296 118.687 103.762C119.062 104.221 119.566 104.45 120.2 104.45C120.666 104.45 121.058 104.333 121.375 104.1C121.691 103.858 121.95 103.504 122.15 103.037L122.775 103.4C122.241 104.558 121.379 105.138 120.187 105.138ZM118.212 101.287H121.962C121.921 100.962 121.816 100.667 121.65 100.4C121.491 100.133 121.283 99.9208 121.025 99.7625C120.775 99.6042 120.487 99.525 120.162 99.525C119.654 99.525 119.225 99.6833 118.875 100C118.533 100.308 118.312 100.737 118.212 101.287ZM125.77 105.113C125.187 105.121 124.712 104.987 124.345 104.712C123.987 104.437 123.808 104.037 123.808 103.512C123.808 103.112 123.941 102.762 124.208 102.462C124.483 102.162 124.829 101.929 125.245 101.762C125.67 101.587 126.108 101.5 126.558 101.5C127.175 101.5 127.662 101.646 128.02 101.937V100.912C128.02 100.354 127.904 99.9917 127.67 99.825C127.437 99.65 127.062 99.5625 126.545 99.5625C126.212 99.5625 125.841 99.625 125.433 99.75C125.025 99.8667 124.679 100.017 124.395 100.2L124.033 99.6C124.358 99.3917 124.75 99.2167 125.208 99.075C125.675 98.9333 126.12 98.8625 126.545 98.8625C127.304 98.8625 127.862 99.0083 128.22 99.3C128.579 99.5917 128.758 100.129 128.758 100.912V104.225C128.758 104.383 128.8 104.475 128.883 104.5C128.975 104.517 129.17 104.496 129.47 104.437V104.975C129.387 105.008 129.275 105.038 129.133 105.063C128.991 105.096 128.858 105.113 128.733 105.113C128.45 105.113 128.266 105.054 128.183 104.937C128.1 104.821 128.05 104.6 128.033 104.275C127.775 104.558 127.433 104.767 127.008 104.9C126.583 105.033 126.17 105.104 125.77 105.113ZM125.808 104.425C126.208 104.417 126.579 104.354 126.92 104.237C127.27 104.121 127.545 103.954 127.745 103.737C127.954 103.512 128.05 103.242 128.033 102.925C128.008 102.667 127.866 102.475 127.608 102.35C127.35 102.217 127.016 102.154 126.608 102.162C126.266 102.162 125.937 102.221 125.62 102.337C125.304 102.454 125.045 102.617 124.845 102.825C124.654 103.025 124.558 103.258 124.558 103.525C124.558 103.833 124.675 104.062 124.908 104.212C125.141 104.354 125.441 104.425 125.808 104.425ZM130.86 105V99.0125H131.572L131.61 99.95C131.743 99.6417 131.964 99.3833 132.272 99.175C132.581 98.9667 132.931 98.8625 133.322 98.8625C133.806 98.8625 134.201 98.975 134.51 99.2C134.826 99.425 135.039 99.7375 135.147 100.137C135.289 99.7708 135.514 99.4667 135.822 99.225C136.131 98.9833 136.526 98.8625 137.01 98.8625C137.626 98.8625 138.11 99.0583 138.46 99.45C138.81 99.8333 138.985 100.412 138.985 101.187V105H138.222V101.3C138.222 100.667 138.101 100.221 137.86 99.9625C137.618 99.7042 137.293 99.575 136.885 99.575C136.568 99.575 136.289 99.6583 136.047 99.825C135.814 99.9833 135.631 100.196 135.497 100.462C135.372 100.721 135.31 101.004 135.31 101.312V105H134.547V101.3C134.547 100.667 134.422 100.221 134.172 99.9625C133.931 99.7042 133.606 99.575 133.197 99.575C132.881 99.575 132.601 99.6583 132.36 99.825C132.126 99.9917 131.943 100.208 131.81 100.475C131.685 100.733 131.622 101.008 131.622 101.3V105H130.86Z" fill="black"/>
</svg>
