<svg width="352" height="206" viewBox="0 0 352 206" fill="none" xmlns="http://www.w3.org/2000/svg">
<path d="M185.082 144.748C185.082 178.025 158.309 204.996 125.291 204.996C92.2729 204.996 65.5 178.025 65.5 144.748C65.5 111.47 92.2729 84.5 125.291 84.5C158.309 84.5 185.082 111.47 185.082 144.748Z" fill="#A7D8CA" fill-opacity="0.4" stroke="black"/>
<path d="M286.082 144.748C286.082 178.026 259.309 204.996 226.291 204.996C193.273 204.996 166.5 178.026 166.5 144.748C166.5 111.471 193.273 84.5005 226.291 84.5005C259.309 84.5005 286.082 111.471 286.082 144.748Z" fill="#A7D8CA" fill-opacity="0.4" stroke="black"/>
<path d="M235.169 60.7478C235.169 94.0289 208.597 120.996 175.834 120.996C143.072 120.996 116.5 94.0289 116.5 60.7478C116.5 27.4667 143.072 0.5 175.834 0.5C208.597 0.5 235.169 27.4667 235.169 60.7478Z" fill="#A7D8CA" fill-opacity="0.4" stroke="black"/>
<path d="M96.2162 150V141.237H100.029C100.854 141.237 101.479 141.429 101.904 141.812C102.337 142.196 102.554 142.767 102.554 143.525C102.554 144.283 102.337 144.854 101.904 145.237C101.479 145.621 100.854 145.812 100.029 145.812H96.9787V150H96.2162ZM96.9787 145.075H99.9662C100.566 145.075 101.012 144.95 101.304 144.7C101.604 144.45 101.754 144.058 101.754 143.525C101.754 142.992 101.604 142.6 101.304 142.35C101.012 142.1 100.566 141.975 99.9662 141.975H96.9787V145.075ZM105.54 150.113C104.957 150.121 104.482 149.987 104.115 149.712C103.757 149.437 103.578 149.037 103.578 148.512C103.578 148.112 103.711 147.762 103.978 147.462C104.253 147.162 104.599 146.929 105.015 146.762C105.44 146.587 105.878 146.5 106.328 146.5C106.945 146.5 107.432 146.646 107.79 146.937V145.912C107.79 145.354 107.674 144.992 107.44 144.825C107.207 144.65 106.832 144.562 106.315 144.562C105.982 144.562 105.611 144.625 105.203 144.75C104.795 144.867 104.449 145.017 104.165 145.2L103.803 144.6C104.128 144.392 104.52 144.217 104.978 144.075C105.445 143.933 105.89 143.862 106.315 143.862C107.074 143.862 107.632 144.008 107.99 144.3C108.349 144.592 108.528 145.129 108.528 145.912V149.225C108.528 149.383 108.57 149.475 108.653 149.5C108.745 149.517 108.94 149.496 109.24 149.437V149.975C109.157 150.008 109.045 150.038 108.903 150.063C108.761 150.096 108.628 150.113 108.503 150.113C108.22 150.113 108.036 150.054 107.953 149.937C107.87 149.821 107.82 149.6 107.803 149.275C107.545 149.558 107.203 149.767 106.778 149.9C106.353 150.033 105.94 150.104 105.54 150.113ZM105.578 149.425C105.978 149.417 106.349 149.354 106.69 149.237C107.04 149.121 107.315 148.954 107.515 148.737C107.724 148.512 107.82 148.242 107.803 147.925C107.778 147.667 107.636 147.475 107.378 147.35C107.12 147.217 106.786 147.154 106.378 147.162C106.036 147.162 105.707 147.221 105.39 147.337C105.074 147.454 104.815 147.617 104.615 147.825C104.424 148.025 104.328 148.258 104.328 148.525C104.328 148.833 104.445 149.062 104.678 149.212C104.911 149.354 105.211 149.425 105.578 149.425ZM110.842 150V144.012H111.592V150H110.842ZM111.217 142.712C111.059 142.712 110.921 142.658 110.805 142.55C110.688 142.433 110.63 142.296 110.63 142.137C110.63 141.971 110.688 141.833 110.805 141.725C110.921 141.617 111.059 141.562 111.217 141.562C111.376 141.562 111.509 141.617 111.617 141.725C111.726 141.833 111.78 141.971 111.78 142.137C111.78 142.296 111.726 142.433 111.617 142.55C111.509 142.658 111.376 142.712 111.217 142.712ZM113.645 150V144.012H114.357L114.382 144.862C114.574 144.579 114.828 144.342 115.145 144.15C115.47 143.958 115.837 143.862 116.245 143.862C116.887 143.862 117.403 144.067 117.795 144.475C118.187 144.883 118.382 145.467 118.382 146.225V150H117.632V146.337C117.632 145.754 117.491 145.317 117.207 145.025C116.932 144.733 116.574 144.587 116.132 144.587C115.799 144.587 115.499 144.662 115.232 144.812C114.974 144.954 114.77 145.15 114.62 145.4C114.478 145.642 114.407 145.912 114.407 146.212V150H113.645ZM123.877 150V141.237H127.69C128.515 141.237 129.14 141.429 129.565 141.812C129.998 142.196 130.215 142.767 130.215 143.525C130.215 144.283 129.998 144.854 129.565 145.237C129.14 145.621 128.515 145.812 127.69 145.812H124.64V150H123.877ZM124.64 145.075H127.627C128.227 145.075 128.673 144.95 128.965 144.7C129.265 144.45 129.415 144.058 129.415 143.525C129.415 142.992 129.265 142.6 128.965 142.35C128.673 142.1 128.227 141.975 127.627 141.975H124.64V145.075ZM133.661 150.138C133.127 150.138 132.652 150.004 132.236 149.737C131.819 149.471 131.49 149.104 131.248 148.637C131.006 148.162 130.886 147.617 130.886 147C130.886 146.383 131.006 145.842 131.248 145.375C131.49 144.9 131.819 144.529 132.236 144.262C132.652 143.996 133.127 143.862 133.661 143.862C134.202 143.862 134.681 143.996 135.098 144.262C135.515 144.529 135.844 144.9 136.086 145.375C136.327 145.842 136.448 146.383 136.448 147C136.448 147.617 136.327 148.162 136.086 148.637C135.844 149.104 135.515 149.471 135.098 149.737C134.681 150.004 134.202 150.138 133.661 150.138ZM133.661 149.425C134.052 149.425 134.398 149.325 134.698 149.125C135.006 148.925 135.248 148.646 135.423 148.287C135.598 147.921 135.686 147.492 135.686 147C135.686 146.508 135.598 146.083 135.423 145.725C135.248 145.358 135.006 145.075 134.698 144.875C134.398 144.675 134.052 144.575 133.661 144.575C133.077 144.575 132.594 144.796 132.211 145.237C131.836 145.671 131.648 146.258 131.648 147C131.648 147.733 131.836 148.321 132.211 148.762C132.594 149.204 133.077 149.425 133.661 149.425ZM138.174 150V144.012H138.924V150H138.174ZM138.549 142.712C138.391 142.712 138.253 142.658 138.136 142.55C138.02 142.433 137.961 142.296 137.961 142.137C137.961 141.971 138.02 141.833 138.136 141.725C138.253 141.617 138.391 141.562 138.549 141.562C138.707 141.562 138.841 141.617 138.949 141.725C139.057 141.833 139.111 141.971 139.111 142.137C139.111 142.296 139.057 142.433 138.949 142.55C138.841 142.658 138.707 142.712 138.549 142.712ZM140.976 150V144.012H141.689L141.714 144.862C141.906 144.579 142.16 144.342 142.476 144.15C142.801 143.958 143.168 143.862 143.576 143.862C144.218 143.862 144.735 144.067 145.126 144.475C145.518 144.883 145.714 145.467 145.714 146.225V150H144.964V146.337C144.964 145.754 144.822 145.317 144.539 145.025C144.264 144.733 143.906 144.587 143.464 144.587C143.131 144.587 142.831 144.662 142.564 144.812C142.306 144.954 142.101 145.15 141.951 145.4C141.81 145.642 141.739 145.912 141.739 146.212V150H140.976ZM149.674 150.138C149.141 150.138 148.741 150.025 148.474 149.8C148.207 149.575 148.074 149.171 148.074 148.587V144.712H146.774V144.012H148.074V141.812H148.824V144.012H150.649V144.712H148.824V148.462C148.824 148.837 148.903 149.096 149.061 149.237C149.22 149.371 149.466 149.437 149.799 149.437C149.941 149.437 150.091 149.417 150.249 149.375C150.407 149.333 150.541 149.287 150.649 149.237V149.975C150.532 150.017 150.382 150.054 150.199 150.088C150.016 150.121 149.841 150.138 149.674 150.138ZM154.098 150.138C153.565 150.138 153.082 150.033 152.648 149.825C152.215 149.617 151.865 149.321 151.598 148.937L152.148 148.475C152.348 148.783 152.619 149.021 152.961 149.187C153.311 149.354 153.698 149.437 154.123 149.437C154.532 149.437 154.877 149.35 155.161 149.175C155.452 148.992 155.598 148.708 155.598 148.325C155.598 147.983 155.461 147.746 155.186 147.612C154.911 147.479 154.49 147.354 153.923 147.237C153.573 147.162 153.24 147.071 152.923 146.962C152.615 146.854 152.365 146.692 152.173 146.475C151.982 146.25 151.886 145.942 151.886 145.55C151.886 145.192 151.982 144.887 152.173 144.637C152.373 144.387 152.636 144.196 152.961 144.062C153.286 143.929 153.632 143.862 153.998 143.862C154.982 143.862 155.702 144.212 156.161 144.912L155.648 145.375C155.307 144.833 154.761 144.562 154.011 144.562C153.577 144.562 153.244 144.658 153.011 144.85C152.777 145.033 152.661 145.262 152.661 145.537C152.661 145.846 152.786 146.067 153.036 146.2C153.294 146.325 153.69 146.446 154.223 146.562C154.598 146.646 154.948 146.75 155.273 146.875C155.607 147 155.873 147.175 156.073 147.4C156.273 147.625 156.373 147.937 156.373 148.337C156.373 148.871 156.165 149.304 155.748 149.637C155.34 149.971 154.79 150.138 154.098 150.138Z" fill="black"/>
<path d="M197.324 139.15C196.324 139.15 195.549 138.85 194.999 138.25C194.458 137.642 194.187 136.758 194.187 135.6V130.25H194.974V135.575C194.974 136.458 195.17 137.15 195.562 137.65C195.962 138.142 196.549 138.387 197.324 138.387C198.108 138.387 198.695 138.142 199.087 137.65C199.487 137.15 199.687 136.458 199.687 135.575V130.25H200.462V135.6C200.462 136.758 200.191 137.642 199.649 138.25C199.108 138.85 198.333 139.15 197.324 139.15ZM204.379 139.138C203.845 139.138 203.362 139.033 202.929 138.825C202.495 138.617 202.145 138.321 201.879 137.937L202.429 137.475C202.629 137.783 202.9 138.021 203.241 138.187C203.591 138.354 203.979 138.437 204.404 138.437C204.812 138.437 205.158 138.35 205.441 138.175C205.733 137.992 205.879 137.708 205.879 137.325C205.879 136.983 205.741 136.746 205.466 136.612C205.191 136.479 204.77 136.354 204.204 136.237C203.854 136.162 203.52 136.071 203.204 135.962C202.895 135.854 202.645 135.692 202.454 135.475C202.262 135.25 202.166 134.942 202.166 134.55C202.166 134.192 202.262 133.887 202.454 133.637C202.654 133.387 202.916 133.196 203.241 133.062C203.566 132.929 203.912 132.862 204.279 132.862C205.262 132.862 205.983 133.212 206.441 133.912L205.929 134.375C205.587 133.833 205.041 133.562 204.291 133.562C203.858 133.562 203.525 133.658 203.291 133.85C203.058 134.033 202.941 134.262 202.941 134.537C202.941 134.846 203.066 135.067 203.316 135.2C203.575 135.325 203.97 135.446 204.504 135.562C204.879 135.646 205.229 135.75 205.554 135.875C205.887 136 206.154 136.175 206.354 136.4C206.554 136.625 206.654 136.937 206.654 137.337C206.654 137.871 206.445 138.304 206.029 138.637C205.62 138.971 205.07 139.138 204.379 139.138ZM210.504 139.138C209.962 139.138 209.479 139.013 209.054 138.762C208.637 138.504 208.308 138.142 208.066 137.675C207.833 137.2 207.716 136.642 207.716 136C207.716 135.375 207.833 134.829 208.066 134.362C208.308 133.896 208.637 133.533 209.054 133.275C209.471 133.008 209.946 132.875 210.479 132.875C211.021 132.875 211.479 133.012 211.854 133.287C212.237 133.554 212.529 133.904 212.729 134.337C212.929 134.762 213.029 135.212 213.029 135.687V135.937H208.479C208.462 136.687 208.637 137.296 209.004 137.762C209.379 138.221 209.883 138.45 210.516 138.45C210.983 138.45 211.375 138.333 211.691 138.1C212.008 137.858 212.266 137.504 212.466 137.037L213.091 137.4C212.558 138.558 211.696 139.138 210.504 139.138ZM208.529 135.287H212.279C212.237 134.962 212.133 134.667 211.966 134.4C211.808 134.133 211.6 133.921 211.341 133.762C211.091 133.604 210.804 133.525 210.479 133.525C209.971 133.525 209.541 133.683 209.191 134C208.85 134.308 208.629 134.737 208.529 135.287ZM220.55 139.138C220.017 139.138 219.542 139.008 219.125 138.75C218.708 138.483 218.379 138.112 218.138 137.637C217.896 137.162 217.775 136.617 217.775 136C217.775 135.383 217.896 134.842 218.138 134.375C218.379 133.9 218.708 133.533 219.125 133.275C219.542 133.008 220.017 132.875 220.55 132.875C220.975 132.875 221.367 132.962 221.725 133.137C222.092 133.304 222.404 133.554 222.663 133.887L222.063 134.337C221.688 133.837 221.183 133.587 220.55 133.587C219.967 133.587 219.483 133.808 219.1 134.25C218.725 134.683 218.538 135.267 218.538 136C218.538 136.733 218.725 137.321 219.1 137.762C219.483 138.204 219.967 138.425 220.55 138.425C221.183 138.425 221.688 138.175 222.063 137.675L222.663 138.125C222.129 138.8 221.425 139.138 220.55 139.138ZM225.779 139.113C225.196 139.121 224.721 138.987 224.354 138.712C223.996 138.437 223.817 138.037 223.817 137.512C223.817 137.112 223.95 136.762 224.217 136.462C224.492 136.162 224.838 135.929 225.254 135.762C225.679 135.587 226.117 135.5 226.567 135.5C227.184 135.5 227.671 135.646 228.029 135.937V134.912C228.029 134.354 227.913 133.992 227.679 133.825C227.446 133.65 227.071 133.562 226.554 133.562C226.221 133.562 225.85 133.625 225.442 133.75C225.034 133.867 224.688 134.017 224.404 134.2L224.042 133.6C224.367 133.392 224.759 133.217 225.217 133.075C225.684 132.933 226.129 132.862 226.554 132.862C227.313 132.862 227.871 133.008 228.229 133.3C228.588 133.592 228.767 134.129 228.767 134.912V138.225C228.767 138.383 228.809 138.475 228.892 138.5C228.984 138.517 229.179 138.496 229.479 138.437V138.975C229.396 139.008 229.284 139.038 229.142 139.063C229 139.096 228.867 139.113 228.742 139.113C228.459 139.113 228.275 139.054 228.192 138.937C228.109 138.821 228.059 138.6 228.042 138.275C227.784 138.558 227.442 138.767 227.017 138.9C226.592 139.033 226.179 139.104 225.779 139.113ZM225.817 138.425C226.217 138.417 226.588 138.354 226.929 138.237C227.279 138.121 227.554 137.954 227.754 137.737C227.963 137.512 228.059 137.242 228.042 136.925C228.017 136.667 227.875 136.475 227.617 136.35C227.359 136.217 227.025 136.154 226.617 136.162C226.275 136.162 225.946 136.221 225.629 136.337C225.313 136.454 225.054 136.617 224.854 136.825C224.663 137.025 224.567 137.258 224.567 137.525C224.567 137.833 224.684 138.062 224.917 138.212C225.15 138.354 225.45 138.425 225.817 138.425ZM232.919 139.138C232.386 139.138 231.902 139.033 231.469 138.825C231.036 138.617 230.686 138.321 230.419 137.937L230.969 137.475C231.169 137.783 231.44 138.021 231.781 138.187C232.131 138.354 232.519 138.437 232.944 138.437C233.352 138.437 233.698 138.35 233.981 138.175C234.273 137.992 234.419 137.708 234.419 137.325C234.419 136.983 234.281 136.746 234.006 136.612C233.731 136.479 233.311 136.354 232.744 136.237C232.394 136.162 232.061 136.071 231.744 135.962C231.436 135.854 231.186 135.692 230.994 135.475C230.802 135.25 230.706 134.942 230.706 134.55C230.706 134.192 230.802 133.887 230.994 133.637C231.194 133.387 231.456 133.196 231.781 133.062C232.106 132.929 232.452 132.862 232.819 132.862C233.802 132.862 234.523 133.212 234.981 133.912L234.469 134.375C234.127 133.833 233.581 133.562 232.831 133.562C232.398 133.562 232.065 133.658 231.831 133.85C231.598 134.033 231.481 134.262 231.481 134.537C231.481 134.846 231.606 135.067 231.856 135.2C232.115 135.325 232.511 135.446 233.044 135.562C233.419 135.646 233.769 135.75 234.094 135.875C234.427 136 234.694 136.175 234.894 136.4C235.094 136.625 235.194 136.937 235.194 137.337C235.194 137.871 234.986 138.304 234.569 138.637C234.161 138.971 233.611 139.138 232.919 139.138ZM239.044 139.138C238.502 139.138 238.019 139.013 237.594 138.762C237.177 138.504 236.848 138.142 236.606 137.675C236.373 137.2 236.256 136.642 236.256 136C236.256 135.375 236.373 134.829 236.606 134.362C236.848 133.896 237.177 133.533 237.594 133.275C238.011 133.008 238.486 132.875 239.019 132.875C239.561 132.875 240.019 133.012 240.394 133.287C240.777 133.554 241.069 133.904 241.269 134.337C241.469 134.762 241.569 135.212 241.569 135.687V135.937H237.019C237.002 136.687 237.177 137.296 237.544 137.762C237.919 138.221 238.423 138.45 239.056 138.45C239.523 138.45 239.915 138.333 240.231 138.1C240.548 137.858 240.806 137.504 241.006 137.037L241.631 137.4C241.098 138.558 240.236 139.138 239.044 139.138ZM237.069 135.287H240.819C240.777 134.962 240.673 134.667 240.506 134.4C240.348 134.133 240.14 133.921 239.881 133.762C239.631 133.604 239.344 133.525 239.019 133.525C238.511 133.525 238.081 133.683 237.731 134C237.39 134.308 237.169 134.737 237.069 135.287ZM245.199 139.138C244.666 139.138 244.182 139.033 243.749 138.825C243.316 138.617 242.966 138.321 242.699 137.937L243.249 137.475C243.449 137.783 243.72 138.021 244.062 138.187C244.412 138.354 244.799 138.437 245.224 138.437C245.632 138.437 245.978 138.35 246.262 138.175C246.553 137.992 246.699 137.708 246.699 137.325C246.699 136.983 246.562 136.746 246.287 136.612C246.012 136.479 245.591 136.354 245.024 136.237C244.674 136.162 244.341 136.071 244.024 135.962C243.716 135.854 243.466 135.692 243.274 135.475C243.082 135.25 242.987 134.942 242.987 134.55C242.987 134.192 243.082 133.887 243.274 133.637C243.474 133.387 243.737 133.196 244.062 133.062C244.387 132.929 244.732 132.862 245.099 132.862C246.082 132.862 246.803 133.212 247.262 133.912L246.749 134.375C246.407 133.833 245.862 133.562 245.112 133.562C244.678 133.562 244.345 133.658 244.112 133.85C243.878 134.033 243.762 134.262 243.762 134.537C243.762 134.846 243.887 135.067 244.137 135.2C244.395 135.325 244.791 135.446 245.324 135.562C245.699 135.646 246.049 135.75 246.374 135.875C246.707 136 246.974 136.175 247.174 136.4C247.374 136.625 247.474 136.937 247.474 137.337C247.474 137.871 247.266 138.304 246.849 138.637C246.441 138.971 245.891 139.138 245.199 139.138ZM254.565 139.163C253.757 139.163 253.132 138.958 252.69 138.55C252.257 138.133 252.04 137.562 252.04 136.837C252.04 136.404 252.14 136.033 252.34 135.725C252.548 135.417 252.815 135.146 253.14 134.912C253.465 134.671 253.807 134.45 254.165 134.25C253.765 133.833 253.461 133.454 253.253 133.112C253.044 132.771 252.94 132.408 252.94 132.025C252.94 131.592 253.044 131.233 253.253 130.95C253.469 130.658 253.744 130.437 254.078 130.287C254.411 130.137 254.761 130.062 255.128 130.062C255.561 130.062 255.936 130.146 256.253 130.312C256.569 130.479 256.815 130.708 256.99 131C257.165 131.283 257.253 131.608 257.253 131.975C257.253 132.367 257.157 132.708 256.965 133C256.773 133.292 256.523 133.55 256.215 133.775C255.915 133.992 255.59 134.2 255.24 134.4L257.203 136.762C257.428 136.496 257.648 136.212 257.865 135.912C258.082 135.604 258.298 135.287 258.515 134.962L259.203 135.25C258.953 135.617 258.703 135.979 258.453 136.337C258.203 136.687 257.948 137.017 257.69 137.325L259.065 139H258.115L257.178 137.862C256.786 138.246 256.373 138.558 255.94 138.8C255.515 139.042 255.057 139.163 254.565 139.163ZM254.603 138.437C254.969 138.437 255.328 138.333 255.678 138.125C256.036 137.917 256.382 137.646 256.715 137.312L254.615 134.775C254.307 134.958 254.015 135.146 253.74 135.337C253.465 135.529 253.244 135.746 253.078 135.987C252.911 136.229 252.828 136.512 252.828 136.837C252.828 137.387 252.982 137.792 253.29 138.05C253.607 138.308 254.044 138.437 254.603 138.437ZM254.79 133.875C255.098 133.7 255.378 133.521 255.628 133.337C255.886 133.154 256.094 132.954 256.253 132.737C256.411 132.512 256.49 132.258 256.49 131.975C256.49 131.625 256.365 131.337 256.115 131.112C255.873 130.879 255.548 130.762 255.14 130.762C254.732 130.762 254.39 130.875 254.115 131.1C253.84 131.325 253.703 131.637 253.703 132.037C253.703 132.254 253.744 132.454 253.828 132.637C253.911 132.812 254.032 132.996 254.19 133.187C254.357 133.379 254.557 133.608 254.79 133.875ZM193.32 157L191.183 148.25H191.97L193.72 155.6L195.783 148.25H196.408L198.47 155.6L200.208 148.25H201.008L198.858 157H198.17L196.083 149.662L194.02 157H193.32ZM204.229 157.138C203.696 157.138 203.221 157.004 202.804 156.737C202.388 156.471 202.058 156.104 201.817 155.637C201.575 155.162 201.454 154.617 201.454 154C201.454 153.383 201.575 152.842 201.817 152.375C202.058 151.9 202.388 151.529 202.804 151.262C203.221 150.996 203.696 150.862 204.229 150.862C204.771 150.862 205.25 150.996 205.667 151.262C206.083 151.529 206.413 151.9 206.654 152.375C206.896 152.842 207.017 153.383 207.017 154C207.017 154.617 206.896 155.162 206.654 155.637C206.413 156.104 206.083 156.471 205.667 156.737C205.25 157.004 204.771 157.138 204.229 157.138ZM204.229 156.425C204.621 156.425 204.967 156.325 205.267 156.125C205.575 155.925 205.817 155.646 205.992 155.287C206.167 154.921 206.254 154.492 206.254 154C206.254 153.508 206.167 153.083 205.992 152.725C205.817 152.358 205.575 152.075 205.267 151.875C204.967 151.675 204.621 151.575 204.229 151.575C203.646 151.575 203.163 151.796 202.779 152.237C202.404 152.671 202.217 153.258 202.217 154C202.217 154.733 202.404 155.321 202.779 155.762C203.163 156.204 203.646 156.425 204.229 156.425ZM208.53 157V151.012H209.255L209.292 152.05C209.459 151.7 209.722 151.417 210.08 151.2C210.447 150.975 210.851 150.862 211.292 150.862C211.409 150.862 211.526 150.871 211.642 150.887C211.767 150.896 211.872 150.912 211.955 150.937V151.675C211.88 151.658 211.772 151.642 211.63 151.625C211.497 151.608 211.359 151.6 211.217 151.6C210.867 151.6 210.547 151.683 210.255 151.85C209.963 152.008 209.73 152.225 209.555 152.5C209.388 152.767 209.305 153.071 209.305 153.412V157H208.53ZM213.23 157V147.975H213.992V153.462L216.73 151.012H217.78L214.68 153.725L217.905 157H216.917L213.992 153.987V157H213.23ZM220.543 157.113C219.959 157.121 219.484 156.987 219.118 156.712C218.759 156.437 218.58 156.037 218.58 155.512C218.58 155.112 218.713 154.762 218.98 154.462C219.255 154.162 219.601 153.929 220.018 153.762C220.443 153.587 220.88 153.5 221.33 153.5C221.947 153.5 222.434 153.646 222.793 153.937V152.912C222.793 152.354 222.676 151.992 222.443 151.825C222.209 151.65 221.834 151.562 221.318 151.562C220.984 151.562 220.613 151.625 220.205 151.75C219.797 151.867 219.451 152.017 219.168 152.2L218.805 151.6C219.13 151.392 219.522 151.217 219.98 151.075C220.447 150.933 220.893 150.862 221.318 150.862C222.076 150.862 222.634 151.008 222.993 151.3C223.351 151.592 223.53 152.129 223.53 152.912V156.225C223.53 156.383 223.572 156.475 223.655 156.5C223.747 156.517 223.943 156.496 224.243 156.437V156.975C224.159 157.008 224.047 157.038 223.905 157.063C223.763 157.096 223.63 157.113 223.505 157.113C223.222 157.113 223.038 157.054 222.955 156.937C222.872 156.821 222.822 156.6 222.805 156.275C222.547 156.558 222.205 156.767 221.78 156.9C221.355 157.033 220.943 157.104 220.543 157.113ZM220.58 156.425C220.98 156.417 221.351 156.354 221.693 156.237C222.043 156.121 222.318 155.954 222.518 155.737C222.726 155.512 222.822 155.242 222.805 154.925C222.78 154.667 222.638 154.475 222.38 154.35C222.122 154.217 221.788 154.154 221.38 154.162C221.038 154.162 220.709 154.221 220.393 154.337C220.076 154.454 219.818 154.617 219.618 154.825C219.426 155.025 219.33 155.258 219.33 155.525C219.33 155.833 219.447 156.062 219.68 156.212C219.913 156.354 220.213 156.425 220.58 156.425ZM225.632 157V151.012H226.357L226.395 152.05C226.561 151.7 226.824 151.417 227.182 151.2C227.549 150.975 227.953 150.862 228.395 150.862C228.511 150.862 228.628 150.871 228.745 150.887C228.87 150.896 228.974 150.912 229.057 150.937V151.675C228.982 151.658 228.874 151.642 228.732 151.625C228.599 151.608 228.461 151.6 228.32 151.6C227.97 151.6 227.649 151.683 227.357 151.85C227.065 152.008 226.832 152.225 226.657 152.5C226.49 152.767 226.407 153.071 226.407 153.412V157H225.632ZM232.769 157.138C232.236 157.138 231.761 157.004 231.344 156.737C230.928 156.471 230.598 156.104 230.357 155.637C230.115 155.162 229.994 154.617 229.994 154C229.994 153.383 230.115 152.842 230.357 152.375C230.598 151.9 230.928 151.529 231.344 151.262C231.761 150.996 232.236 150.862 232.769 150.862C233.311 150.862 233.79 150.996 234.207 151.262C234.623 151.529 234.953 151.9 235.194 152.375C235.436 152.842 235.557 153.383 235.557 154C235.557 154.617 235.436 155.162 235.194 155.637C234.953 156.104 234.623 156.471 234.207 156.737C233.79 157.004 233.311 157.138 232.769 157.138ZM232.769 156.425C233.161 156.425 233.507 156.325 233.807 156.125C234.115 155.925 234.357 155.646 234.532 155.287C234.707 154.921 234.794 154.492 234.794 154C234.794 153.508 234.707 153.083 234.532 152.725C234.357 152.358 234.115 152.075 233.807 151.875C233.507 151.675 233.161 151.575 232.769 151.575C232.186 151.575 231.703 151.796 231.319 152.237C230.944 152.671 230.757 153.258 230.757 154C230.757 154.733 230.944 155.321 231.319 155.762C231.703 156.204 232.186 156.425 232.769 156.425ZM239.095 157.138C238.462 157.138 237.949 156.933 237.558 156.525C237.166 156.117 236.97 155.533 236.97 154.775V151.012H237.72V154.675C237.72 155.258 237.858 155.696 238.133 155.987C238.416 156.279 238.778 156.425 239.22 156.425C239.728 156.425 240.141 156.267 240.458 155.95C240.774 155.633 240.933 155.246 240.933 154.787V151.012H241.695V156.987H240.983L240.958 156.15C240.783 156.425 240.533 156.658 240.208 156.85C239.883 157.042 239.512 157.138 239.095 157.138ZM243.552 157V151.012H244.264L244.289 151.862C244.481 151.579 244.735 151.342 245.052 151.15C245.377 150.958 245.744 150.862 246.152 150.862C246.794 150.862 247.31 151.067 247.702 151.475C248.094 151.883 248.289 152.467 248.289 153.225V157H247.539V153.337C247.539 152.754 247.398 152.317 247.114 152.025C246.839 151.733 246.481 151.587 246.039 151.587C245.706 151.587 245.406 151.662 245.139 151.812C244.881 151.954 244.677 152.15 244.527 152.4C244.385 152.642 244.314 152.912 244.314 153.212V157H243.552ZM252.593 157.138C252.06 157.138 251.585 157.008 251.168 156.75C250.752 156.483 250.423 156.117 250.181 155.65C249.939 155.175 249.818 154.625 249.818 154C249.818 153.375 249.939 152.829 250.181 152.362C250.423 151.896 250.752 151.533 251.168 151.275C251.585 151.008 252.06 150.875 252.593 150.875C253.043 150.875 253.443 150.983 253.793 151.2C254.143 151.408 254.423 151.696 254.631 152.062V147.975H255.393V157H254.693L254.681 155.9C254.464 156.283 254.177 156.587 253.818 156.812C253.46 157.029 253.052 157.138 252.593 157.138ZM252.618 156.425C253.01 156.425 253.356 156.325 253.656 156.125C253.964 155.925 254.206 155.646 254.381 155.287C254.556 154.921 254.643 154.492 254.643 154C254.643 153.508 254.556 153.083 254.381 152.725C254.206 152.367 253.964 152.087 253.656 151.887C253.356 151.687 253.01 151.587 252.618 151.587C252.227 151.587 251.877 151.687 251.568 151.887C251.26 152.087 251.018 152.367 250.843 152.725C250.668 153.083 250.581 153.508 250.581 154C250.581 154.492 250.668 154.921 250.843 155.287C251.018 155.646 251.26 155.925 251.568 156.125C251.877 156.325 252.227 156.425 252.618 156.425ZM259.31 157.138C258.777 157.138 258.294 157.033 257.86 156.825C257.427 156.617 257.077 156.321 256.81 155.937L257.36 155.475C257.56 155.783 257.831 156.021 258.173 156.187C258.523 156.354 258.91 156.437 259.335 156.437C259.744 156.437 260.09 156.35 260.373 156.175C260.665 155.992 260.81 155.708 260.81 155.325C260.81 154.983 260.673 154.746 260.398 154.612C260.123 154.479 259.702 154.354 259.135 154.237C258.785 154.162 258.452 154.071 258.135 153.962C257.827 153.854 257.577 153.692 257.385 153.475C257.194 153.25 257.098 152.942 257.098 152.55C257.098 152.192 257.194 151.887 257.385 151.637C257.585 151.387 257.848 151.196 258.173 151.062C258.498 150.929 258.844 150.862 259.21 150.862C260.194 150.862 260.915 151.212 261.373 151.912L260.86 152.375C260.519 151.833 259.973 151.562 259.223 151.562C258.79 151.562 258.456 151.658 258.223 151.85C257.99 152.033 257.873 152.262 257.873 152.537C257.873 152.846 257.998 153.067 258.248 153.2C258.506 153.325 258.902 153.446 259.435 153.562C259.81 153.646 260.16 153.75 260.485 153.875C260.819 154 261.085 154.175 261.285 154.4C261.485 154.625 261.585 154.937 261.585 155.337C261.585 155.871 261.377 156.304 260.96 156.637C260.552 156.971 260.002 157.138 259.31 157.138Z" fill="black"/>
<path d="M144.628 57V48.975H141.753V48.25H148.29V48.975H145.415V57H144.628ZM149.973 59.7C149.823 59.7 149.669 59.6875 149.511 59.6625C149.361 59.6458 149.228 59.6208 149.111 59.5875V58.875C149.228 58.9083 149.357 58.9333 149.498 58.95C149.648 58.975 149.79 58.9875 149.923 58.9875C150.232 58.9875 150.461 58.9167 150.611 58.775C150.761 58.6417 150.903 58.4042 151.036 58.0625L151.436 57L149.086 51.0125H149.873L151.786 56.05L153.623 51.0125H154.423L151.711 58.3C151.536 58.7833 151.315 59.1375 151.048 59.3625C150.782 59.5875 150.423 59.7 149.973 59.7ZM155.704 59.6V51.0125H156.404L156.429 52.1C156.645 51.7083 156.933 51.4042 157.291 51.1875C157.65 50.9708 158.058 50.8625 158.516 50.8625C159.05 50.8625 159.525 50.9958 159.941 51.2625C160.358 51.5208 160.683 51.8875 160.916 52.3625C161.158 52.8292 161.279 53.375 161.279 54C161.279 54.625 161.158 55.175 160.916 55.65C160.683 56.1167 160.358 56.4833 159.941 56.75C159.525 57.0083 159.05 57.1375 158.516 57.1375C158.066 57.1375 157.666 57.0292 157.316 56.8125C156.966 56.5958 156.683 56.3042 156.466 55.9375V59.6H155.704ZM158.504 56.425C158.895 56.425 159.241 56.325 159.541 56.125C159.85 55.925 160.091 55.6458 160.266 55.2875C160.441 54.9208 160.529 54.4917 160.529 54C160.529 53.5083 160.441 53.0833 160.266 52.725C160.091 52.3583 159.85 52.075 159.541 51.875C159.241 51.675 158.895 51.575 158.504 51.575C157.912 51.575 157.425 51.7958 157.041 52.2375C156.658 52.6708 156.466 53.2583 156.466 54C156.466 54.7333 156.658 55.3208 157.041 55.7625C157.425 56.2042 157.912 56.425 158.504 56.425ZM165.258 57.1375C164.717 57.1375 164.233 57.0125 163.808 56.7625C163.392 56.5042 163.062 56.1417 162.821 55.675C162.587 55.2 162.471 54.6417 162.471 54C162.471 53.375 162.587 52.8292 162.821 52.3625C163.062 51.8958 163.392 51.5333 163.808 51.275C164.225 51.0083 164.7 50.875 165.233 50.875C165.775 50.875 166.233 51.0125 166.608 51.2875C166.992 51.5542 167.283 51.9042 167.483 52.3375C167.683 52.7625 167.783 53.2125 167.783 53.6875V53.9375H163.233C163.217 54.6875 163.392 55.2958 163.758 55.7625C164.133 56.2208 164.637 56.45 165.271 56.45C165.737 56.45 166.129 56.3333 166.446 56.1C166.762 55.8583 167.021 55.5042 167.221 55.0375L167.846 55.4C167.312 56.5583 166.45 57.1375 165.258 57.1375ZM163.283 53.2875H167.033C166.992 52.9625 166.887 52.6667 166.721 52.4C166.562 52.1333 166.354 51.9208 166.096 51.7625C165.846 51.6042 165.558 51.525 165.233 51.525C164.725 51.525 164.296 51.6833 163.946 52C163.604 52.3083 163.383 52.7375 163.283 53.2875ZM175.304 57.1375C174.771 57.1375 174.296 57.0042 173.879 56.7375C173.463 56.4708 173.133 56.1042 172.892 55.6375C172.65 55.1625 172.529 54.6167 172.529 54C172.529 53.3833 172.65 52.8417 172.892 52.375C173.133 51.9 173.463 51.5292 173.879 51.2625C174.296 50.9958 174.771 50.8625 175.304 50.8625C175.846 50.8625 176.325 50.9958 176.742 51.2625C177.158 51.5292 177.488 51.9 177.729 52.375C177.971 52.8417 178.092 53.3833 178.092 54C178.092 54.6167 177.971 55.1625 177.729 55.6375C177.488 56.1042 177.158 56.4708 176.742 56.7375C176.325 57.0042 175.846 57.1375 175.304 57.1375ZM175.304 56.425C175.696 56.425 176.042 56.325 176.342 56.125C176.65 55.925 176.892 55.6458 177.067 55.2875C177.242 54.9208 177.329 54.4917 177.329 54C177.329 53.5083 177.242 53.0833 177.067 52.725C176.892 52.3583 176.65 52.075 176.342 51.875C176.042 51.675 175.696 51.575 175.304 51.575C174.721 51.575 174.238 51.7958 173.854 52.2375C173.479 52.6708 173.292 53.2583 173.292 54C173.292 54.7333 173.479 55.3208 173.854 55.7625C174.238 56.2042 174.721 56.425 175.304 56.425ZM180.28 57V51.7125H179.043V51.0125H180.28V49.825C180.28 49.3333 180.363 48.95 180.53 48.675C180.697 48.4 180.918 48.2042 181.193 48.0875C181.468 47.9708 181.763 47.9125 182.08 47.9125C182.247 47.9125 182.401 47.925 182.543 47.95C182.693 47.9667 182.822 47.9958 182.93 48.0375V48.75C182.838 48.7083 182.722 48.675 182.58 48.65C182.447 48.625 182.313 48.6125 182.18 48.6125C181.847 48.6125 181.572 48.7125 181.355 48.9125C181.138 49.1042 181.03 49.425 181.03 49.875V51.0125H182.93V51.7125H181.03V57H180.28ZM190.05 57.1375C189.517 57.1375 189.042 57.0083 188.625 56.75C188.209 56.4833 187.88 56.1167 187.638 55.65C187.396 55.175 187.275 54.625 187.275 54C187.275 53.375 187.396 52.8292 187.638 52.3625C187.88 51.8958 188.209 51.5333 188.625 51.275C189.042 51.0083 189.517 50.875 190.05 50.875C190.5 50.875 190.9 50.9833 191.25 51.2C191.6 51.4083 191.88 51.6958 192.088 52.0625V47.975H192.85V57H192.15L192.138 55.9C191.921 56.2833 191.634 56.5875 191.275 56.8125C190.917 57.0292 190.509 57.1375 190.05 57.1375ZM190.075 56.425C190.467 56.425 190.813 56.325 191.113 56.125C191.421 55.925 191.663 55.6458 191.838 55.2875C192.013 54.9208 192.1 54.4917 192.1 54C192.1 53.5083 192.013 53.0833 191.838 52.725C191.663 52.3667 191.421 52.0875 191.113 51.8875C190.813 51.6875 190.467 51.5875 190.075 51.5875C189.684 51.5875 189.334 51.6875 189.025 51.8875C188.717 52.0875 188.475 52.3667 188.3 52.725C188.125 53.0833 188.038 53.5083 188.038 54C188.038 54.4917 188.125 54.9208 188.3 55.2875C188.475 55.6458 188.717 55.925 189.025 56.125C189.334 56.325 189.684 56.425 190.075 56.425ZM196.317 57.1125C195.734 57.1208 195.259 56.9875 194.892 56.7125C194.534 56.4375 194.355 56.0375 194.355 55.5125C194.355 55.1125 194.488 54.7625 194.755 54.4625C195.03 54.1625 195.376 53.9292 195.792 53.7625C196.217 53.5875 196.655 53.5 197.105 53.5C197.722 53.5 198.209 53.6458 198.567 53.9375V52.9125C198.567 52.3542 198.451 51.9917 198.217 51.825C197.984 51.65 197.609 51.5625 197.092 51.5625C196.759 51.5625 196.388 51.625 195.98 51.75C195.572 51.8667 195.226 52.0167 194.942 52.2L194.58 51.6C194.905 51.3917 195.297 51.2167 195.755 51.075C196.222 50.9333 196.667 50.8625 197.092 50.8625C197.851 50.8625 198.409 51.0083 198.767 51.3C199.126 51.5917 199.305 52.1292 199.305 52.9125V56.225C199.305 56.3833 199.347 56.475 199.43 56.5C199.522 56.5167 199.717 56.4958 200.017 56.4375V56.975C199.934 57.0083 199.822 57.0375 199.68 57.0625C199.538 57.0958 199.405 57.1125 199.28 57.1125C198.997 57.1125 198.813 57.0542 198.73 56.9375C198.647 56.8208 198.597 56.6 198.58 56.275C198.322 56.5583 197.98 56.7667 197.555 56.9C197.13 57.0333 196.717 57.1042 196.317 57.1125ZM196.355 56.425C196.755 56.4167 197.126 56.3542 197.467 56.2375C197.817 56.1208 198.092 55.9542 198.292 55.7375C198.501 55.5125 198.597 55.2417 198.58 54.925C198.555 54.6667 198.413 54.475 198.155 54.35C197.897 54.2167 197.563 54.1542 197.155 54.1625C196.813 54.1625 196.484 54.2208 196.167 54.3375C195.851 54.4542 195.592 54.6167 195.392 54.825C195.201 55.025 195.105 55.2583 195.105 55.525C195.105 55.8333 195.222 56.0625 195.455 56.2125C195.688 56.3542 195.988 56.425 196.355 56.425ZM203.366 57.1375C202.833 57.1375 202.433 57.025 202.166 56.8C201.899 56.575 201.766 56.1708 201.766 55.5875V51.7125H200.466V51.0125H201.766V48.8125H202.516V51.0125H204.341V51.7125H202.516V55.4625C202.516 55.8375 202.595 56.0958 202.753 56.2375C202.912 56.3708 203.158 56.4375 203.491 56.4375C203.633 56.4375 203.783 56.4167 203.941 56.375C204.099 56.3333 204.233 56.2875 204.341 56.2375V56.975C204.224 57.0167 204.074 57.0542 203.891 57.0875C203.708 57.1208 203.533 57.1375 203.366 57.1375ZM207.34 57.1125C206.757 57.1208 206.282 56.9875 205.915 56.7125C205.557 56.4375 205.378 56.0375 205.378 55.5125C205.378 55.1125 205.511 54.7625 205.778 54.4625C206.053 54.1625 206.399 53.9292 206.815 53.7625C207.24 53.5875 207.678 53.5 208.128 53.5C208.745 53.5 209.232 53.6458 209.59 53.9375V52.9125C209.59 52.3542 209.474 51.9917 209.24 51.825C209.007 51.65 208.632 51.5625 208.115 51.5625C207.782 51.5625 207.411 51.625 207.003 51.75C206.595 51.8667 206.249 52.0167 205.965 52.2L205.603 51.6C205.928 51.3917 206.32 51.2167 206.778 51.075C207.245 50.9333 207.69 50.8625 208.115 50.8625C208.874 50.8625 209.432 51.0083 209.79 51.3C210.149 51.5917 210.328 52.1292 210.328 52.9125V56.225C210.328 56.3833 210.37 56.475 210.453 56.5C210.545 56.5167 210.74 56.4958 211.04 56.4375V56.975C210.957 57.0083 210.845 57.0375 210.703 57.0625C210.561 57.0958 210.428 57.1125 210.303 57.1125C210.02 57.1125 209.836 57.0542 209.753 56.9375C209.67 56.8208 209.62 56.6 209.603 56.275C209.345 56.5583 209.003 56.7667 208.578 56.9C208.153 57.0333 207.74 57.1042 207.34 57.1125ZM207.378 56.425C207.778 56.4167 208.149 56.3542 208.49 56.2375C208.84 56.1208 209.115 55.9542 209.315 55.7375C209.524 55.5125 209.62 55.2417 209.603 54.925C209.578 54.6667 209.436 54.475 209.178 54.35C208.92 54.2167 208.586 54.1542 208.178 54.1625C207.836 54.1625 207.507 54.2208 207.19 54.3375C206.874 54.4542 206.615 54.6167 206.415 54.825C206.224 55.025 206.128 55.2583 206.128 55.525C206.128 55.8333 206.245 56.0625 206.478 56.2125C206.711 56.3542 207.011 56.425 207.378 56.425ZM152.444 75V65.975H153.207V75H152.444ZM157.506 75.1375C156.973 75.1375 156.498 75.0042 156.081 74.7375C155.665 74.4708 155.336 74.1042 155.094 73.6375C154.852 73.1625 154.731 72.6167 154.731 72C154.731 71.3833 154.852 70.8417 155.094 70.375C155.336 69.9 155.665 69.5292 156.081 69.2625C156.498 68.9958 156.973 68.8625 157.506 68.8625C158.048 68.8625 158.527 68.9958 158.944 69.2625C159.361 69.5292 159.69 69.9 159.931 70.375C160.173 70.8417 160.294 71.3833 160.294 72C160.294 72.6167 160.173 73.1625 159.931 73.6375C159.69 74.1042 159.361 74.4708 158.944 74.7375C158.527 75.0042 158.048 75.1375 157.506 75.1375ZM157.506 74.425C157.898 74.425 158.244 74.325 158.544 74.125C158.852 73.925 159.094 73.6458 159.269 73.2875C159.444 72.9208 159.531 72.4917 159.531 72C159.531 71.5083 159.444 71.0833 159.269 70.725C159.094 70.3583 158.852 70.075 158.544 69.875C158.244 69.675 157.898 69.575 157.506 69.575C156.923 69.575 156.44 69.7958 156.056 70.2375C155.681 70.6708 155.494 71.2583 155.494 72C155.494 72.7333 155.681 73.3208 156.056 73.7625C156.44 74.2042 156.923 74.425 157.506 74.425ZM164.245 75.1375C163.711 75.1375 163.236 75.0042 162.82 74.7375C162.403 74.4708 162.074 74.1042 161.832 73.6375C161.591 73.1625 161.47 72.6167 161.47 72C161.47 71.3833 161.591 70.8417 161.832 70.375C162.074 69.9 162.403 69.5292 162.82 69.2625C163.236 68.9958 163.711 68.8625 164.245 68.8625C164.786 68.8625 165.266 68.9958 165.682 69.2625C166.099 69.5292 166.428 69.9 166.67 70.375C166.911 70.8417 167.032 71.3833 167.032 72C167.032 72.6167 166.911 73.1625 166.67 73.6375C166.428 74.1042 166.099 74.4708 165.682 74.7375C165.266 75.0042 164.786 75.1375 164.245 75.1375ZM164.245 74.425C164.636 74.425 164.982 74.325 165.282 74.125C165.591 73.925 165.832 73.6458 166.007 73.2875C166.182 72.9208 166.27 72.4917 166.27 72C166.27 71.5083 166.182 71.0833 166.007 70.725C165.832 70.3583 165.591 70.075 165.282 69.875C164.982 69.675 164.636 69.575 164.245 69.575C163.661 69.575 163.178 69.7958 162.795 70.2375C162.42 70.6708 162.232 71.2583 162.232 72C162.232 72.7333 162.42 73.3208 162.795 73.7625C163.178 74.2042 163.661 74.425 164.245 74.425ZM168.546 75V65.975H169.308V71.4625L172.046 69.0125H173.096L169.996 71.725L173.221 75H172.233L169.308 71.9875V75H168.546ZM176.452 75.1375C175.91 75.1375 175.427 75.0125 175.002 74.7625C174.585 74.5042 174.256 74.1417 174.015 73.675C173.781 73.2 173.665 72.6417 173.665 72C173.665 71.375 173.781 70.8292 174.015 70.3625C174.256 69.8958 174.585 69.5333 175.002 69.275C175.419 69.0083 175.894 68.875 176.427 68.875C176.969 68.875 177.427 69.0125 177.802 69.2875C178.185 69.5542 178.477 69.9042 178.677 70.3375C178.877 70.7625 178.977 71.2125 178.977 71.6875V71.9375H174.427C174.41 72.6875 174.585 73.2958 174.952 73.7625C175.327 74.2208 175.831 74.45 176.465 74.45C176.931 74.45 177.323 74.3333 177.64 74.1C177.956 73.8583 178.215 73.5042 178.415 73.0375L179.04 73.4C178.506 74.5583 177.644 75.1375 176.452 75.1375ZM174.477 71.2875H178.227C178.185 70.9625 178.081 70.6667 177.915 70.4C177.756 70.1333 177.548 69.9208 177.29 69.7625C177.04 69.6042 176.752 69.525 176.427 69.525C175.919 69.525 175.49 69.6833 175.14 70C174.798 70.3083 174.577 70.7375 174.477 71.2875ZM182.995 75.1375C182.461 75.1375 181.986 75.0083 181.57 74.75C181.153 74.4833 180.824 74.1167 180.582 73.65C180.341 73.175 180.22 72.625 180.22 72C180.22 71.375 180.341 70.8292 180.582 70.3625C180.824 69.8958 181.153 69.5333 181.57 69.275C181.986 69.0083 182.461 68.875 182.995 68.875C183.445 68.875 183.845 68.9833 184.195 69.2C184.545 69.4083 184.824 69.6958 185.032 70.0625V65.975H185.795V75H185.095L185.082 73.9C184.866 74.2833 184.578 74.5875 184.22 74.8125C183.861 75.0292 183.453 75.1375 182.995 75.1375ZM183.02 74.425C183.411 74.425 183.757 74.325 184.057 74.125C184.366 73.925 184.607 73.6458 184.782 73.2875C184.957 72.9208 185.045 72.4917 185.045 72C185.045 71.5083 184.957 71.0833 184.782 70.725C184.607 70.3667 184.366 70.0875 184.057 69.8875C183.757 69.6875 183.411 69.5875 183.02 69.5875C182.628 69.5875 182.278 69.6875 181.97 69.8875C181.661 70.0875 181.42 70.3667 181.245 70.725C181.07 71.0833 180.982 71.5083 180.982 72C180.982 72.4917 181.07 72.9208 181.245 73.2875C181.42 73.6458 181.661 73.925 181.97 74.125C182.278 74.325 182.628 74.425 183.02 74.425ZM192.765 75.1125C192.182 75.1208 191.707 74.9875 191.34 74.7125C190.982 74.4375 190.803 74.0375 190.803 73.5125C190.803 73.1125 190.936 72.7625 191.203 72.4625C191.478 72.1625 191.823 71.9292 192.24 71.7625C192.665 71.5875 193.103 71.5 193.553 71.5C194.169 71.5 194.657 71.6458 195.015 71.9375V70.9125C195.015 70.3542 194.898 69.9917 194.665 69.825C194.432 69.65 194.057 69.5625 193.54 69.5625C193.207 69.5625 192.836 69.625 192.428 69.75C192.019 69.8667 191.673 70.0167 191.39 70.2L191.028 69.6C191.353 69.3917 191.744 69.2167 192.203 69.075C192.669 68.9333 193.115 68.8625 193.54 68.8625C194.298 68.8625 194.857 69.0083 195.215 69.3C195.573 69.5917 195.753 70.1292 195.753 70.9125V74.225C195.753 74.3833 195.794 74.475 195.878 74.5C195.969 74.5167 196.165 74.4958 196.465 74.4375V74.975C196.382 75.0083 196.269 75.0375 196.128 75.0625C195.986 75.0958 195.853 75.1125 195.728 75.1125C195.444 75.1125 195.261 75.0542 195.178 74.9375C195.094 74.8208 195.044 74.6 195.028 74.275C194.769 74.5583 194.428 74.7667 194.003 74.9C193.578 75.0333 193.165 75.1042 192.765 75.1125ZM192.803 74.425C193.203 74.4167 193.573 74.3542 193.915 74.2375C194.265 74.1208 194.54 73.9542 194.74 73.7375C194.948 73.5125 195.044 73.2417 195.028 72.925C195.003 72.6667 194.861 72.475 194.603 72.35C194.344 72.2167 194.011 72.1542 193.603 72.1625C193.261 72.1625 192.932 72.2208 192.615 72.3375C192.298 72.4542 192.04 72.6167 191.84 72.825C191.648 73.025 191.553 73.2583 191.553 73.525C191.553 73.8333 191.669 74.0625 191.903 74.2125C192.136 74.3542 192.436 74.425 192.803 74.425ZM199.814 75.1375C199.28 75.1375 198.88 75.025 198.614 74.8C198.347 74.575 198.214 74.1708 198.214 73.5875V69.7125H196.914V69.0125H198.214V66.8125H198.964V69.0125H200.789V69.7125H198.964V73.4625C198.964 73.8375 199.043 74.0958 199.201 74.2375C199.36 74.3708 199.605 74.4375 199.939 74.4375C200.08 74.4375 200.23 74.4167 200.389 74.375C200.547 74.3333 200.68 74.2875 200.789 74.2375V74.975C200.672 75.0167 200.522 75.0542 200.339 75.0875C200.155 75.1208 199.98 75.1375 199.814 75.1375Z" fill="black"/>
</svg>
