<svg width="1087" height="302" viewBox="0 0 1087 302" fill="none" xmlns="http://www.w3.org/2000/svg">
<rect width="674" height="44" transform="translate(69)" fill="#F1F2F3"/>
<path d="M366.372 31.264C365.396 31.264 364.532 31 363.78 30.472C363.044 29.944 362.476 29.064 362.076 27.832C361.676 26.584 361.5 24.88 361.548 22.72C361.612 19.664 362.1 17.432 363.012 16.024C363.924 14.616 365.228 13.912 366.924 13.912C367.772 13.912 368.516 14.104 369.156 14.488C369.796 14.872 370.34 15.368 370.788 15.976L369.732 16.816C369.396 16.352 369.004 15.984 368.556 15.712C368.108 15.424 367.564 15.28 366.924 15.28C366.092 15.28 365.412 15.504 364.884 15.952C364.372 16.384 363.972 16.984 363.684 17.752C363.396 18.52 363.196 19.4 363.084 20.392C362.988 21.384 362.94 22.432 362.94 23.536C363.26 22.832 363.724 22.296 364.332 21.928C364.956 21.544 365.66 21.352 366.444 21.352C367.26 21.352 367.996 21.544 368.652 21.928C369.324 22.312 369.86 22.872 370.26 23.608C370.66 24.328 370.86 25.192 370.86 26.2C370.86 27.192 370.668 28.072 370.284 28.84C369.916 29.592 369.396 30.184 368.724 30.616C368.052 31.048 367.268 31.264 366.372 31.264ZM366.3 29.92C366.988 29.92 367.564 29.744 368.028 29.392C368.492 29.04 368.836 28.584 369.06 28.024C369.3 27.448 369.42 26.84 369.42 26.2C369.42 25.16 369.148 24.32 368.604 23.68C368.06 23.04 367.34 22.72 366.444 22.72C365.804 22.72 365.22 22.888 364.692 23.224C364.164 23.56 363.764 24.024 363.492 24.616C363.22 25.192 363.132 25.84 363.228 26.56C363.356 27.648 363.684 28.48 364.212 29.056C364.74 29.632 365.436 29.92 366.3 29.92ZM378.064 31.264C376.368 31.264 375.16 30.568 374.44 29.176C373.72 27.784 373.36 25.584 373.36 22.576C373.36 19.584 373.72 17.392 374.44 16C375.16 14.608 376.368 13.912 378.064 13.912C379.776 13.912 380.984 14.608 381.688 16C382.392 17.392 382.744 19.584 382.744 22.576C382.744 25.584 382.392 27.784 381.688 29.176C380.984 30.568 379.776 31.264 378.064 31.264ZM378.064 29.896C378.816 29.896 379.432 29.672 379.912 29.224C380.408 28.76 380.768 27.992 380.992 26.92C381.232 25.848 381.352 24.4 381.352 22.576C381.352 20.768 381.232 19.336 380.992 18.28C380.768 17.208 380.408 16.448 379.912 16C379.432 15.536 378.816 15.304 378.064 15.304C377.312 15.304 376.688 15.536 376.192 16C375.712 16.448 375.352 17.208 375.112 18.28C374.888 19.336 374.776 20.768 374.776 22.576C374.776 24.4 374.888 25.848 375.112 26.92C375.352 27.992 375.712 28.76 376.192 29.224C376.688 29.672 377.312 29.896 378.064 29.896ZM388.909 22.12C387.869 22.12 387.029 21.752 386.389 21.016C385.765 20.28 385.453 19.28 385.453 18.016C385.453 16.752 385.765 15.752 386.389 15.016C387.029 14.264 387.869 13.888 388.909 13.888C389.949 13.888 390.781 14.264 391.405 15.016C392.029 15.752 392.341 16.752 392.341 18.016C392.341 19.28 392.029 20.28 391.405 21.016C390.781 21.752 389.949 22.12 388.909 22.12ZM397.717 31.264C396.677 31.264 395.837 30.896 395.197 30.16C394.573 29.424 394.261 28.424 394.261 27.16C394.261 25.912 394.573 24.912 395.197 24.16C395.837 23.408 396.677 23.032 397.717 23.032C398.757 23.032 399.589 23.408 400.213 24.16C400.837 24.912 401.149 25.912 401.149 27.16C401.149 28.424 400.837 29.424 400.213 30.16C399.589 30.896 398.757 31.264 397.717 31.264ZM387.589 31.408L386.725 30.808L398.941 13.696L399.805 14.344L387.589 31.408ZM397.717 30.064C398.437 30.064 398.981 29.8 399.349 29.272C399.733 28.744 399.925 28.04 399.925 27.16C399.925 26.264 399.733 25.56 399.349 25.048C398.981 24.536 398.437 24.28 397.717 24.28C396.997 24.28 396.445 24.536 396.061 25.048C395.693 25.56 395.509 26.264 395.509 27.16C395.509 28.04 395.693 28.744 396.061 29.272C396.445 29.8 396.997 30.064 397.717 30.064ZM388.909 20.896C389.613 20.896 390.157 20.64 390.541 20.128C390.925 19.6 391.117 18.896 391.117 18.016C391.117 17.12 390.925 16.416 390.541 15.904C390.157 15.392 389.613 15.136 388.909 15.136C388.189 15.136 387.637 15.392 387.253 15.904C386.885 16.416 386.701 17.12 386.701 18.016C386.701 18.896 386.885 19.6 387.253 20.128C387.637 20.64 388.189 20.896 388.909 20.896ZM414.923 31.264C413.899 31.264 412.971 31.064 412.139 30.664C411.307 30.264 410.635 29.696 410.123 28.96L411.179 28.072C411.563 28.664 412.083 29.12 412.739 29.44C413.411 29.76 414.155 29.92 414.971 29.92C415.755 29.92 416.419 29.752 416.963 29.416C417.523 29.064 417.803 28.52 417.803 27.784C417.803 27.128 417.539 26.672 417.011 26.416C416.483 26.16 415.675 25.92 414.587 25.696C413.915 25.552 413.275 25.376 412.667 25.168C412.075 24.96 411.595 24.648 411.227 24.232C410.859 23.8 410.675 23.208 410.675 22.456C410.675 21.768 410.859 21.184 411.227 20.704C411.611 20.224 412.115 19.856 412.739 19.6C413.363 19.344 414.027 19.216 414.731 19.216C416.619 19.216 418.003 19.888 418.883 21.232L417.899 22.12C417.243 21.08 416.195 20.56 414.755 20.56C413.923 20.56 413.283 20.744 412.835 21.112C412.387 21.464 412.163 21.904 412.163 22.432C412.163 23.024 412.403 23.448 412.883 23.704C413.379 23.944 414.139 24.176 415.163 24.4C415.883 24.56 416.555 24.76 417.179 25C417.819 25.24 418.331 25.576 418.715 26.008C419.099 26.44 419.291 27.04 419.291 27.808C419.291 28.832 418.891 29.664 418.091 30.304C417.307 30.944 416.251 31.264 414.923 31.264ZM426.659 31.264C425.635 31.264 424.723 31.008 423.923 30.496C423.123 29.984 422.491 29.28 422.027 28.384C421.563 27.472 421.331 26.424 421.331 25.24C421.331 24.056 421.563 23.016 422.027 22.12C422.491 21.208 423.123 20.496 423.923 19.984C424.723 19.472 425.635 19.216 426.659 19.216C427.699 19.216 428.619 19.472 429.419 19.984C430.219 20.496 430.851 21.208 431.315 22.12C431.779 23.016 432.011 24.056 432.011 25.24C432.011 26.424 431.779 27.472 431.315 28.384C430.851 29.28 430.219 29.984 429.419 30.496C428.619 31.008 427.699 31.264 426.659 31.264ZM426.659 29.896C427.411 29.896 428.075 29.704 428.651 29.32C429.243 28.936 429.707 28.4 430.043 27.712C430.379 27.008 430.547 26.184 430.547 25.24C430.547 24.296 430.379 23.48 430.043 22.792C429.707 22.088 429.243 21.544 428.651 21.16C428.075 20.776 427.411 20.584 426.659 20.584C425.539 20.584 424.611 21.008 423.875 21.856C423.155 22.688 422.795 23.816 422.795 25.24C422.795 26.648 423.155 27.776 423.875 28.624C424.611 29.472 425.539 29.896 426.659 29.896ZM434.917 31V13.672H436.381V31H434.917ZM444.636 31.264C443.612 31.264 442.7 31.016 441.9 30.52C441.1 30.008 440.468 29.304 440.004 28.408C439.54 27.496 439.308 26.44 439.308 25.24C439.308 24.04 439.54 22.992 440.004 22.096C440.468 21.2 441.1 20.504 441.9 20.008C442.7 19.496 443.612 19.24 444.636 19.24C445.5 19.24 446.268 19.448 446.94 19.864C447.612 20.264 448.148 20.816 448.548 21.52V13.672H450.012V31H448.668L448.644 28.888C448.228 29.624 447.676 30.208 446.988 30.64C446.3 31.056 445.516 31.264 444.636 31.264ZM444.684 29.896C445.436 29.896 446.1 29.704 446.676 29.32C447.268 28.936 447.732 28.4 448.068 27.712C448.404 27.008 448.572 26.184 448.572 25.24C448.572 24.296 448.404 23.48 448.068 22.792C447.732 22.104 447.268 21.568 446.676 21.184C446.1 20.8 445.436 20.608 444.684 20.608C443.932 20.608 443.26 20.8 442.668 21.184C442.076 21.568 441.612 22.104 441.276 22.792C440.94 23.48 440.772 24.296 440.772 25.24C440.772 26.184 440.94 27.008 441.276 27.712C441.612 28.4 442.076 28.936 442.668 29.32C443.26 29.704 443.932 29.896 444.684 29.896Z" fill="black"/>
<rect width="445" height="44" transform="translate(69 78)" fill="#F1F2F3"/>
<path d="M208.261 109V104.776H201.229V103.672L208.357 92.104H209.605V103.456H212.149V104.776H209.605V109H208.261ZM202.837 103.456H208.261V94.6L202.837 103.456ZM218.657 109.264C216.961 109.264 215.753 108.568 215.033 107.176C214.313 105.784 213.953 103.584 213.953 100.576C213.953 97.584 214.313 95.392 215.033 94C215.753 92.608 216.961 91.912 218.657 91.912C220.369 91.912 221.577 92.608 222.281 94C222.985 95.392 223.337 97.584 223.337 100.576C223.337 103.584 222.985 105.784 222.281 107.176C221.577 108.568 220.369 109.264 218.657 109.264ZM218.657 107.896C219.409 107.896 220.025 107.672 220.505 107.224C221.001 106.76 221.361 105.992 221.585 104.92C221.825 103.848 221.945 102.4 221.945 100.576C221.945 98.768 221.825 97.336 221.585 96.28C221.361 95.208 221.001 94.448 220.505 94C220.025 93.536 219.409 93.304 218.657 93.304C217.905 93.304 217.281 93.536 216.785 94C216.305 94.448 215.945 95.208 215.705 96.28C215.481 97.336 215.369 98.768 215.369 100.576C215.369 102.4 215.481 103.848 215.705 104.92C215.945 105.992 216.305 106.76 216.785 107.224C217.281 107.672 217.905 107.896 218.657 107.896ZM229.503 100.12C228.463 100.12 227.623 99.752 226.983 99.016C226.359 98.28 226.047 97.28 226.047 96.016C226.047 94.752 226.359 93.752 226.983 93.016C227.623 92.264 228.463 91.888 229.503 91.888C230.543 91.888 231.375 92.264 231.999 93.016C232.623 93.752 232.935 94.752 232.935 96.016C232.935 97.28 232.623 98.28 231.999 99.016C231.375 99.752 230.543 100.12 229.503 100.12ZM238.311 109.264C237.271 109.264 236.431 108.896 235.791 108.16C235.167 107.424 234.855 106.424 234.855 105.16C234.855 103.912 235.167 102.912 235.791 102.16C236.431 101.408 237.271 101.032 238.311 101.032C239.351 101.032 240.183 101.408 240.807 102.16C241.431 102.912 241.743 103.912 241.743 105.16C241.743 106.424 241.431 107.424 240.807 108.16C240.183 108.896 239.351 109.264 238.311 109.264ZM228.183 109.408L227.319 108.808L239.535 91.696L240.399 92.344L228.183 109.408ZM238.311 108.064C239.031 108.064 239.575 107.8 239.943 107.272C240.327 106.744 240.519 106.04 240.519 105.16C240.519 104.264 240.327 103.56 239.943 103.048C239.575 102.536 239.031 102.28 238.311 102.28C237.591 102.28 237.039 102.536 236.655 103.048C236.287 103.56 236.103 104.264 236.103 105.16C236.103 106.04 236.287 106.744 236.655 107.272C237.039 107.8 237.591 108.064 238.311 108.064ZM229.503 98.896C230.207 98.896 230.751 98.64 231.135 98.128C231.519 97.6 231.711 96.896 231.711 96.016C231.711 95.12 231.519 94.416 231.135 93.904C230.751 93.392 230.207 93.136 229.503 93.136C228.783 93.136 228.231 93.392 227.847 93.904C227.479 94.416 227.295 95.12 227.295 96.016C227.295 96.896 227.479 97.6 227.847 98.128C228.231 98.64 228.783 98.896 229.503 98.896ZM251.581 109V97.504H252.949L252.997 99.136C253.365 98.592 253.853 98.136 254.461 97.768C255.085 97.4 255.789 97.216 256.573 97.216C257.805 97.216 258.797 97.608 259.549 98.392C260.301 99.176 260.677 100.296 260.677 101.752V109H259.237V101.968C259.237 100.848 258.965 100.008 258.421 99.448C257.893 98.888 257.205 98.608 256.357 98.608C255.717 98.608 255.141 98.752 254.629 99.04C254.133 99.312 253.741 99.688 253.453 100.168C253.181 100.632 253.045 101.152 253.045 101.728V109H251.581ZM268.94 109.264C267.916 109.264 267.004 109.008 266.204 108.496C265.404 107.984 264.772 107.28 264.308 106.384C263.844 105.472 263.612 104.424 263.612 103.24C263.612 102.056 263.844 101.016 264.308 100.12C264.772 99.208 265.404 98.496 266.204 97.984C267.004 97.472 267.916 97.216 268.94 97.216C269.98 97.216 270.9 97.472 271.7 97.984C272.5 98.496 273.132 99.208 273.596 100.12C274.06 101.016 274.292 102.056 274.292 103.24C274.292 104.424 274.06 105.472 273.596 106.384C273.132 107.28 272.5 107.984 271.7 108.496C270.9 109.008 269.98 109.264 268.94 109.264ZM268.94 107.896C269.692 107.896 270.356 107.704 270.932 107.32C271.524 106.936 271.988 106.4 272.324 105.712C272.66 105.008 272.828 104.184 272.828 103.24C272.828 102.296 272.66 101.48 272.324 100.792C271.988 100.088 271.524 99.544 270.932 99.16C270.356 98.776 269.692 98.584 268.94 98.584C267.82 98.584 266.892 99.008 266.156 99.856C265.436 100.688 265.076 101.816 265.076 103.24C265.076 104.648 265.436 105.776 266.156 106.624C266.892 107.472 267.82 107.896 268.94 107.896ZM281.686 109.264C280.662 109.264 279.894 109.048 279.382 108.616C278.87 108.184 278.614 107.408 278.614 106.288V98.848H276.118V97.504H278.614V93.28H280.054V97.504H283.558V98.848H280.054V106.048C280.054 106.768 280.206 107.264 280.51 107.536C280.814 107.792 281.286 107.92 281.926 107.92C282.198 107.92 282.486 107.88 282.79 107.8C283.094 107.72 283.35 107.632 283.558 107.536V108.952C283.334 109.032 283.046 109.104 282.694 109.168C282.342 109.232 282.006 109.264 281.686 109.264ZM292.971 109V97.504H294.363L294.435 99.496C294.755 98.824 295.259 98.28 295.947 97.864C296.651 97.432 297.427 97.216 298.275 97.216C298.499 97.216 298.723 97.232 298.947 97.264C299.187 97.28 299.387 97.312 299.547 97.36V98.776C299.403 98.744 299.195 98.712 298.923 98.68C298.667 98.648 298.403 98.632 298.131 98.632C297.459 98.632 296.843 98.792 296.283 99.112C295.723 99.416 295.275 99.832 294.939 100.36C294.619 100.872 294.459 101.456 294.459 102.112V109H292.971ZM306.699 109.264C305.659 109.264 304.731 109.024 303.915 108.544C303.115 108.048 302.483 107.352 302.019 106.456C301.571 105.544 301.347 104.472 301.347 103.24C301.347 102.04 301.571 100.992 302.019 100.096C302.483 99.2 303.115 98.504 303.915 98.008C304.715 97.496 305.627 97.24 306.651 97.24C307.691 97.24 308.571 97.504 309.291 98.032C310.027 98.544 310.587 99.216 310.971 100.048C311.355 100.864 311.547 101.728 311.547 102.64V103.12H302.811C302.779 104.56 303.115 105.728 303.819 106.624C304.539 107.504 305.507 107.944 306.723 107.944C307.619 107.944 308.371 107.72 308.979 107.272C309.587 106.808 310.083 106.128 310.467 105.232L311.667 105.928C310.643 108.152 308.987 109.264 306.699 109.264ZM302.907 101.872H310.107C310.027 101.248 309.827 100.68 309.507 100.168C309.203 99.656 308.803 99.248 308.307 98.944C307.827 98.64 307.275 98.488 306.651 98.488C305.675 98.488 304.851 98.792 304.179 99.4C303.523 99.992 303.099 100.816 302.907 101.872ZM319.069 109.264C318.045 109.264 317.277 109.048 316.765 108.616C316.253 108.184 315.997 107.408 315.997 106.288V98.848H313.501V97.504H315.997V93.28H317.437V97.504H320.941V98.848H317.437V106.048C317.437 106.768 317.589 107.264 317.893 107.536C318.197 107.792 318.669 107.92 319.309 107.92C319.581 107.92 319.869 107.88 320.173 107.8C320.477 107.72 320.733 107.632 320.941 107.536V108.952C320.717 109.032 320.429 109.104 320.077 109.168C319.725 109.232 319.389 109.264 319.069 109.264ZM327.516 109.264C326.3 109.264 325.316 108.872 324.564 108.088C323.812 107.304 323.436 106.184 323.436 104.728V97.504H324.876V104.536C324.876 105.656 325.14 106.496 325.668 107.056C326.212 107.616 326.908 107.896 327.756 107.896C328.732 107.896 329.524 107.592 330.132 106.984C330.74 106.376 331.044 105.632 331.044 104.752V97.504H332.508V108.976H331.14L331.092 107.368C330.756 107.896 330.276 108.344 329.652 108.712C329.028 109.08 328.316 109.264 327.516 109.264ZM336.073 109V97.504H337.465L337.537 99.496C337.857 98.824 338.361 98.28 339.049 97.864C339.753 97.432 340.529 97.216 341.377 97.216C341.601 97.216 341.825 97.232 342.049 97.264C342.289 97.28 342.489 97.312 342.649 97.36V98.776C342.505 98.744 342.297 98.712 342.025 98.68C341.769 98.648 341.505 98.632 341.233 98.632C340.561 98.632 339.945 98.792 339.385 99.112C338.825 99.416 338.377 99.832 338.041 100.36C337.721 100.872 337.561 101.456 337.561 102.112V109H336.073ZM345.096 109V97.504H346.464L346.512 99.136C346.88 98.592 347.368 98.136 347.976 97.768C348.6 97.4 349.304 97.216 350.088 97.216C351.32 97.216 352.312 97.608 353.064 98.392C353.816 99.176 354.192 100.296 354.192 101.752V109H352.752V101.968C352.752 100.848 352.48 100.008 351.936 99.448C351.408 98.888 350.72 98.608 349.872 98.608C349.232 98.608 348.656 98.752 348.144 99.04C347.648 99.312 347.256 99.688 346.968 100.168C346.696 100.632 346.56 101.152 346.56 101.728V109H345.096ZM362.48 109.264C361.44 109.264 360.512 109.024 359.696 108.544C358.896 108.048 358.264 107.352 357.8 106.456C357.352 105.544 357.128 104.472 357.128 103.24C357.128 102.04 357.352 100.992 357.8 100.096C358.264 99.2 358.896 98.504 359.696 98.008C360.496 97.496 361.408 97.24 362.432 97.24C363.472 97.24 364.352 97.504 365.072 98.032C365.808 98.544 366.368 99.216 366.752 100.048C367.136 100.864 367.328 101.728 367.328 102.64V103.12H358.592C358.56 104.56 358.896 105.728 359.6 106.624C360.32 107.504 361.288 107.944 362.504 107.944C363.4 107.944 364.152 107.72 364.76 107.272C365.368 106.808 365.864 106.128 366.248 105.232L367.448 105.928C366.424 108.152 364.768 109.264 362.48 109.264ZM358.688 101.872H365.888C365.808 101.248 365.608 100.68 365.288 100.168C364.984 99.656 364.584 99.248 364.088 98.944C363.608 98.64 363.056 98.488 362.432 98.488C361.456 98.488 360.632 98.792 359.96 99.4C359.304 99.992 358.88 100.816 358.688 101.872ZM375.042 109.264C374.018 109.264 373.106 109.016 372.306 108.52C371.506 108.008 370.874 107.304 370.41 106.408C369.946 105.496 369.714 104.44 369.714 103.24C369.714 102.04 369.946 100.992 370.41 100.096C370.874 99.2 371.506 98.504 372.306 98.008C373.106 97.496 374.018 97.24 375.042 97.24C375.906 97.24 376.674 97.448 377.346 97.864C378.018 98.264 378.554 98.816 378.954 99.52V91.672H380.418V109H379.074L379.05 106.888C378.634 107.624 378.082 108.208 377.394 108.64C376.706 109.056 375.922 109.264 375.042 109.264ZM375.09 107.896C375.842 107.896 376.506 107.704 377.082 107.32C377.674 106.936 378.138 106.4 378.474 105.712C378.81 105.008 378.978 104.184 378.978 103.24C378.978 102.296 378.81 101.48 378.474 100.792C378.138 100.104 377.674 99.568 377.082 99.184C376.506 98.8 375.842 98.608 375.09 98.608C374.338 98.608 373.666 98.8 373.074 99.184C372.482 99.568 372.018 100.104 371.682 100.792C371.346 101.48 371.178 102.296 371.178 103.24C371.178 104.184 371.346 105.008 371.682 105.712C372.018 106.4 372.482 106.936 373.074 107.32C373.666 107.704 374.338 107.896 375.09 107.896Z" fill="black"/>
<rect width="57" height="44" transform="translate(69 155)" fill="#F1F2F3"/>
<path d="M87.756 186.264C86.62 186.264 85.652 185.936 84.852 185.28C84.052 184.624 83.5 183.752 83.196 182.664L84.516 182.208C84.708 182.912 85.068 183.544 85.596 184.104C86.14 184.648 86.852 184.92 87.732 184.92C88.868 184.92 89.748 184.624 90.372 184.032C90.996 183.44 91.308 182.568 91.308 181.416C91.308 180.328 90.948 179.456 90.228 178.8C89.524 178.144 88.62 177.816 87.516 177.816H86.796V176.472H87.516C88.572 176.472 89.396 176.176 89.988 175.584C90.58 174.992 90.876 174.216 90.876 173.256C90.876 172.552 90.724 171.984 90.42 171.552C90.132 171.12 89.748 170.808 89.268 170.616C88.788 170.408 88.276 170.304 87.732 170.304C87.204 170.304 86.74 170.432 86.34 170.688C85.94 170.944 85.604 171.272 85.332 171.672C85.06 172.072 84.844 172.496 84.684 172.944L83.388 172.416C83.788 171.28 84.38 170.416 85.164 169.824C85.964 169.216 86.828 168.912 87.756 168.912C89.1 168.912 90.196 169.296 91.044 170.064C91.892 170.832 92.316 171.888 92.316 173.232C92.316 174.128 92.084 174.92 91.62 175.608C91.156 176.296 90.532 176.8 89.748 177.12C90.628 177.424 91.348 177.96 91.908 178.728C92.468 179.496 92.748 180.4 92.748 181.44C92.748 182.352 92.564 183.176 92.196 183.912C91.844 184.632 91.3 185.208 90.564 185.64C89.828 186.056 88.892 186.264 87.756 186.264ZM98.925 177.12C97.885 177.12 97.045 176.752 96.405 176.016C95.781 175.28 95.469 174.28 95.469 173.016C95.469 171.752 95.781 170.752 96.405 170.016C97.045 169.264 97.885 168.888 98.925 168.888C99.965 168.888 100.797 169.264 101.421 170.016C102.045 170.752 102.357 171.752 102.357 173.016C102.357 174.28 102.045 175.28 101.421 176.016C100.797 176.752 99.965 177.12 98.925 177.12ZM107.733 186.264C106.693 186.264 105.853 185.896 105.213 185.16C104.589 184.424 104.277 183.424 104.277 182.16C104.277 180.912 104.589 179.912 105.213 179.16C105.853 178.408 106.693 178.032 107.733 178.032C108.773 178.032 109.605 178.408 110.229 179.16C110.853 179.912 111.165 180.912 111.165 182.16C111.165 183.424 110.853 184.424 110.229 185.16C109.605 185.896 108.773 186.264 107.733 186.264ZM97.605 186.408L96.741 185.808L108.957 168.696L109.821 169.344L97.605 186.408ZM107.733 185.064C108.453 185.064 108.997 184.8 109.365 184.272C109.749 183.744 109.941 183.04 109.941 182.16C109.941 181.264 109.749 180.56 109.365 180.048C108.997 179.536 108.453 179.28 107.733 179.28C107.013 179.28 106.461 179.536 106.077 180.048C105.709 180.56 105.525 181.264 105.525 182.16C105.525 183.04 105.709 183.744 106.077 184.272C106.461 184.8 107.013 185.064 107.733 185.064ZM98.925 175.896C99.629 175.896 100.173 175.64 100.557 175.128C100.941 174.6 101.133 173.896 101.133 173.016C101.133 172.12 100.941 171.416 100.557 170.904C100.173 170.392 99.629 170.136 98.925 170.136C98.205 170.136 97.653 170.392 97.269 170.904C96.901 171.416 96.717 172.12 96.717 173.016C96.717 173.896 96.901 174.6 97.269 175.128C97.653 175.64 98.205 175.896 98.925 175.896Z" fill="black"/>
<rect width="343" height="44" transform="translate(743)" fill="#CCD0D7"/>
<path d="M866.547 31V26.776H859.515V25.672L866.643 14.104H867.891V25.456H870.435V26.776H867.891V31H866.547ZM861.123 25.456H866.547V16.6L861.123 25.456ZM876.943 31.264C875.247 31.264 874.039 30.568 873.319 29.176C872.599 27.784 872.239 25.584 872.239 22.576C872.239 19.584 872.599 17.392 873.319 16C874.039 14.608 875.247 13.912 876.943 13.912C878.655 13.912 879.863 14.608 880.567 16C881.271 17.392 881.623 19.584 881.623 22.576C881.623 25.584 881.271 27.784 880.567 29.176C879.863 30.568 878.655 31.264 876.943 31.264ZM876.943 29.896C877.695 29.896 878.311 29.672 878.791 29.224C879.287 28.76 879.647 27.992 879.871 26.92C880.111 25.848 880.231 24.4 880.231 22.576C880.231 20.768 880.111 19.336 879.871 18.28C879.647 17.208 879.287 16.448 878.791 16C878.311 15.536 877.695 15.304 876.943 15.304C876.191 15.304 875.567 15.536 875.071 16C874.591 16.448 874.231 17.208 873.991 18.28C873.767 19.336 873.655 20.768 873.655 22.576C873.655 24.4 873.767 25.848 873.991 26.92C874.231 27.992 874.591 28.76 875.071 29.224C875.567 29.672 876.191 29.896 876.943 29.896ZM887.788 22.12C886.748 22.12 885.908 21.752 885.268 21.016C884.644 20.28 884.332 19.28 884.332 18.016C884.332 16.752 884.644 15.752 885.268 15.016C885.908 14.264 886.748 13.888 887.788 13.888C888.828 13.888 889.66 14.264 890.284 15.016C890.908 15.752 891.22 16.752 891.22 18.016C891.22 19.28 890.908 20.28 890.284 21.016C889.66 21.752 888.828 22.12 887.788 22.12ZM896.596 31.264C895.556 31.264 894.716 30.896 894.076 30.16C893.452 29.424 893.14 28.424 893.14 27.16C893.14 25.912 893.452 24.912 894.076 24.16C894.716 23.408 895.556 23.032 896.596 23.032C897.636 23.032 898.468 23.408 899.092 24.16C899.716 24.912 900.028 25.912 900.028 27.16C900.028 28.424 899.716 29.424 899.092 30.16C898.468 30.896 897.636 31.264 896.596 31.264ZM886.468 31.408L885.604 30.808L897.82 13.696L898.684 14.344L886.468 31.408ZM896.596 30.064C897.316 30.064 897.86 29.8 898.228 29.272C898.612 28.744 898.804 28.04 898.804 27.16C898.804 26.264 898.612 25.56 898.228 25.048C897.86 24.536 897.316 24.28 896.596 24.28C895.876 24.28 895.324 24.536 894.94 25.048C894.572 25.56 894.388 26.264 894.388 27.16C894.388 28.04 894.572 28.744 894.94 29.272C895.324 29.8 895.876 30.064 896.596 30.064ZM887.788 20.896C888.492 20.896 889.036 20.64 889.42 20.128C889.804 19.6 889.996 18.896 889.996 18.016C889.996 17.12 889.804 16.416 889.42 15.904C889.036 15.392 888.492 15.136 887.788 15.136C887.068 15.136 886.516 15.392 886.132 15.904C885.764 16.416 885.58 17.12 885.58 18.016C885.58 18.896 885.764 19.6 886.132 20.128C886.516 20.64 887.068 20.896 887.788 20.896ZM912.386 31L908.786 19.504H910.226L912.986 28.648L915.698 19.504H916.874L919.586 28.648L922.346 19.504H923.786L920.186 31H919.01L916.298 21.832L913.538 31H912.386ZM929.321 31.216C928.201 31.232 927.289 30.976 926.585 30.448C925.897 29.92 925.553 29.152 925.553 28.144C925.553 27.376 925.809 26.704 926.321 26.128C926.849 25.552 927.513 25.104 928.313 24.784C929.129 24.448 929.969 24.28 930.833 24.28C932.017 24.28 932.953 24.56 933.641 25.12V23.152C933.641 22.08 933.417 21.384 932.969 21.064C932.521 20.728 931.801 20.56 930.809 20.56C930.169 20.56 929.457 20.68 928.673 20.92C927.889 21.144 927.225 21.432 926.681 21.784L925.985 20.632C926.609 20.232 927.361 19.896 928.241 19.624C929.137 19.352 929.993 19.216 930.809 19.216C932.265 19.216 933.337 19.496 934.025 20.056C934.713 20.616 935.057 21.648 935.057 23.152V29.512C935.057 29.816 935.137 29.992 935.297 30.04C935.473 30.072 935.849 30.032 936.425 29.92V30.952C936.265 31.016 936.049 31.072 935.777 31.12C935.505 31.184 935.249 31.216 935.009 31.216C934.465 31.216 934.113 31.104 933.953 30.88C933.793 30.656 933.697 30.232 933.665 29.608C933.169 30.152 932.513 30.552 931.697 30.808C930.881 31.064 930.089 31.2 929.321 31.216ZM929.393 29.896C930.161 29.88 930.873 29.76 931.529 29.536C932.201 29.312 932.729 28.992 933.113 28.576C933.513 28.144 933.697 27.624 933.665 27.016C933.617 26.52 933.345 26.152 932.849 25.912C932.353 25.656 931.713 25.536 930.929 25.552C930.273 25.552 929.641 25.664 929.033 25.888C928.425 26.112 927.929 26.424 927.545 26.824C927.177 27.208 926.993 27.656 926.993 28.168C926.993 28.76 927.217 29.2 927.665 29.488C928.113 29.76 928.689 29.896 929.393 29.896ZM943.028 31.264C942.004 31.264 941.076 31.064 940.244 30.664C939.412 30.264 938.74 29.696 938.228 28.96L939.284 28.072C939.668 28.664 940.188 29.12 940.844 29.44C941.516 29.76 942.26 29.92 943.076 29.92C943.86 29.92 944.524 29.752 945.068 29.416C945.628 29.064 945.908 28.52 945.908 27.784C945.908 27.128 945.644 26.672 945.116 26.416C944.588 26.16 943.78 25.92 942.692 25.696C942.02 25.552 941.38 25.376 940.772 25.168C940.18 24.96 939.7 24.648 939.332 24.232C938.964 23.8 938.78 23.208 938.78 22.456C938.78 21.768 938.964 21.184 939.332 20.704C939.716 20.224 940.22 19.856 940.844 19.6C941.468 19.344 942.132 19.216 942.836 19.216C944.724 19.216 946.108 19.888 946.988 21.232L946.004 22.12C945.348 21.08 944.3 20.56 942.86 20.56C942.028 20.56 941.388 20.744 940.94 21.112C940.492 21.464 940.268 21.904 940.268 22.432C940.268 23.024 940.508 23.448 940.988 23.704C941.484 23.944 942.244 24.176 943.268 24.4C943.988 24.56 944.66 24.76 945.284 25C945.924 25.24 946.436 25.576 946.82 26.008C947.204 26.44 947.396 27.04 947.396 27.808C947.396 28.832 946.996 29.664 946.196 30.304C945.412 30.944 944.356 31.264 943.028 31.264ZM954.573 31.264C953.549 31.264 952.781 31.048 952.269 30.616C951.757 30.184 951.501 29.408 951.501 28.288V20.848H949.005V19.504H951.501V15.28H952.941V19.504H956.445V20.848H952.941V28.048C952.941 28.768 953.093 29.264 953.397 29.536C953.701 29.792 954.173 29.92 954.813 29.92C955.085 29.92 955.373 29.88 955.677 29.8C955.981 29.72 956.237 29.632 956.445 29.536V30.952C956.221 31.032 955.933 31.104 955.581 31.168C955.229 31.232 954.893 31.264 954.573 31.264ZM963.835 31.264C962.795 31.264 961.867 31.024 961.051 30.544C960.251 30.048 959.619 29.352 959.155 28.456C958.707 27.544 958.483 26.472 958.483 25.24C958.483 24.04 958.707 22.992 959.155 22.096C959.619 21.2 960.251 20.504 961.051 20.008C961.851 19.496 962.763 19.24 963.787 19.24C964.827 19.24 965.707 19.504 966.427 20.032C967.163 20.544 967.723 21.216 968.107 22.048C968.491 22.864 968.683 23.728 968.683 24.64V25.12H959.947C959.915 26.56 960.251 27.728 960.955 28.624C961.675 29.504 962.643 29.944 963.859 29.944C964.755 29.944 965.507 29.72 966.115 29.272C966.723 28.808 967.219 28.128 967.603 27.232L968.803 27.928C967.779 30.152 966.123 31.264 963.835 31.264ZM960.043 23.872H967.243C967.163 23.248 966.963 22.68 966.643 22.168C966.339 21.656 965.939 21.248 965.443 20.944C964.963 20.64 964.411 20.488 963.787 20.488C962.811 20.488 961.987 20.792 961.315 21.4C960.659 21.992 960.235 22.816 960.043 23.872Z" fill="black"/>
<rect width="229" height="44" transform="translate(514 78)" fill="#CCD0D7"/>
<path d="M574.545 109V108.472C574.545 107.656 574.721 106.88 575.073 106.144C575.441 105.392 575.929 104.656 576.537 103.936C577.145 103.2 577.833 102.456 578.601 101.704C579.177 101.128 579.713 100.568 580.209 100.024C580.721 99.464 581.145 98.912 581.481 98.368C581.817 97.808 581.993 97.248 582.009 96.688C582.041 95.6 581.777 94.784 581.217 94.24C580.673 93.696 579.905 93.424 578.913 93.424C578.081 93.424 577.393 93.72 576.849 94.312C576.305 94.888 576.033 95.728 576.033 96.832H574.641C574.641 95.872 574.817 95.032 575.169 94.312C575.537 93.592 576.041 93.04 576.681 92.656C577.337 92.256 578.081 92.056 578.913 92.056C580.289 92.056 581.393 92.464 582.225 93.28C583.057 94.096 583.449 95.24 583.401 96.712C583.385 97.448 583.193 98.152 582.825 98.824C582.457 99.48 581.985 100.12 581.409 100.744C580.849 101.368 580.241 102.008 579.585 102.664C579.025 103.224 578.489 103.784 577.977 104.344C577.465 104.888 577.033 105.44 576.681 106C576.329 106.56 576.113 107.12 576.033 107.68H583.233V109H574.545ZM590.368 109.264C588.672 109.264 587.464 108.568 586.744 107.176C586.024 105.784 585.664 103.584 585.664 100.576C585.664 97.584 586.024 95.392 586.744 94C587.464 92.608 588.672 91.912 590.368 91.912C592.08 91.912 593.288 92.608 593.992 94C594.696 95.392 595.048 97.584 595.048 100.576C595.048 103.584 594.696 105.784 593.992 107.176C593.288 108.568 592.08 109.264 590.368 109.264ZM590.368 107.896C591.12 107.896 591.736 107.672 592.216 107.224C592.712 106.76 593.072 105.992 593.296 104.92C593.536 103.848 593.656 102.4 593.656 100.576C593.656 98.768 593.536 97.336 593.296 96.28C593.072 95.208 592.712 94.448 592.216 94C591.736 93.536 591.12 93.304 590.368 93.304C589.616 93.304 588.992 93.536 588.496 94C588.016 94.448 587.656 95.208 587.416 96.28C587.192 97.336 587.08 98.768 587.08 100.576C587.08 102.4 587.192 103.848 587.416 104.92C587.656 105.992 588.016 106.76 588.496 107.224C588.992 107.672 589.616 107.896 590.368 107.896ZM601.214 100.12C600.174 100.12 599.334 99.752 598.694 99.016C598.07 98.28 597.758 97.28 597.758 96.016C597.758 94.752 598.07 93.752 598.694 93.016C599.334 92.264 600.174 91.888 601.214 91.888C602.254 91.888 603.086 92.264 603.71 93.016C604.334 93.752 604.646 94.752 604.646 96.016C604.646 97.28 604.334 98.28 603.71 99.016C603.086 99.752 602.254 100.12 601.214 100.12ZM610.022 109.264C608.982 109.264 608.142 108.896 607.502 108.16C606.878 107.424 606.566 106.424 606.566 105.16C606.566 103.912 606.878 102.912 607.502 102.16C608.142 101.408 608.982 101.032 610.022 101.032C611.062 101.032 611.894 101.408 612.518 102.16C613.142 102.912 613.454 103.912 613.454 105.16C613.454 106.424 613.142 107.424 612.518 108.16C611.894 108.896 611.062 109.264 610.022 109.264ZM599.894 109.408L599.03 108.808L611.246 91.696L612.11 92.344L599.894 109.408ZM610.022 108.064C610.742 108.064 611.286 107.8 611.654 107.272C612.038 106.744 612.23 106.04 612.23 105.16C612.23 104.264 612.038 103.56 611.654 103.048C611.286 102.536 610.742 102.28 610.022 102.28C609.302 102.28 608.75 102.536 608.366 103.048C607.998 103.56 607.814 104.264 607.814 105.16C607.814 106.04 607.998 106.744 608.366 107.272C608.75 107.8 609.302 108.064 610.022 108.064ZM601.214 98.896C601.918 98.896 602.462 98.64 602.846 98.128C603.23 97.6 603.422 96.896 603.422 96.016C603.422 95.12 603.23 94.416 602.846 93.904C602.462 93.392 601.918 93.136 601.214 93.136C600.494 93.136 599.942 93.392 599.558 93.904C599.19 94.416 599.006 95.12 599.006 96.016C599.006 96.896 599.19 97.6 599.558 98.128C599.942 98.64 600.494 98.896 601.214 98.896ZM625.812 109L622.212 97.504H623.652L626.412 106.648L629.124 97.504H630.3L633.012 106.648L635.772 97.504H637.212L633.612 109H632.436L629.724 99.832L626.964 109H625.812ZM642.746 109.216C641.626 109.232 640.714 108.976 640.01 108.448C639.322 107.92 638.978 107.152 638.978 106.144C638.978 105.376 639.234 104.704 639.746 104.128C640.274 103.552 640.938 103.104 641.738 102.784C642.554 102.448 643.394 102.28 644.258 102.28C645.442 102.28 646.378 102.56 647.066 103.12V101.152C647.066 100.08 646.842 99.384 646.394 99.064C645.946 98.728 645.226 98.56 644.234 98.56C643.594 98.56 642.882 98.68 642.098 98.92C641.314 99.144 640.65 99.432 640.106 99.784L639.41 98.632C640.034 98.232 640.786 97.896 641.666 97.624C642.562 97.352 643.418 97.216 644.234 97.216C645.69 97.216 646.762 97.496 647.45 98.056C648.138 98.616 648.482 99.648 648.482 101.152V107.512C648.482 107.816 648.562 107.992 648.722 108.04C648.898 108.072 649.274 108.032 649.85 107.92V108.952C649.69 109.016 649.474 109.072 649.202 109.12C648.93 109.184 648.674 109.216 648.434 109.216C647.89 109.216 647.538 109.104 647.378 108.88C647.218 108.656 647.122 108.232 647.09 107.608C646.594 108.152 645.938 108.552 645.122 108.808C644.306 109.064 643.514 109.2 642.746 109.216ZM642.818 107.896C643.586 107.88 644.298 107.76 644.954 107.536C645.626 107.312 646.154 106.992 646.538 106.576C646.938 106.144 647.122 105.624 647.09 105.016C647.042 104.52 646.77 104.152 646.274 103.912C645.778 103.656 645.138 103.536 644.354 103.552C643.698 103.552 643.066 103.664 642.458 103.888C641.85 104.112 641.354 104.424 640.97 104.824C640.602 105.208 640.418 105.656 640.418 106.168C640.418 106.76 640.642 107.2 641.09 107.488C641.538 107.76 642.114 107.896 642.818 107.896ZM656.454 109.264C655.43 109.264 654.502 109.064 653.67 108.664C652.838 108.264 652.166 107.696 651.654 106.96L652.71 106.072C653.094 106.664 653.614 107.12 654.27 107.44C654.942 107.76 655.686 107.92 656.502 107.92C657.286 107.92 657.95 107.752 658.494 107.416C659.054 107.064 659.334 106.52 659.334 105.784C659.334 105.128 659.07 104.672 658.542 104.416C658.014 104.16 657.206 103.92 656.118 103.696C655.446 103.552 654.806 103.376 654.198 103.168C653.606 102.96 653.126 102.648 652.758 102.232C652.39 101.8 652.206 101.208 652.206 100.456C652.206 99.768 652.39 99.184 652.758 98.704C653.142 98.224 653.646 97.856 654.27 97.6C654.894 97.344 655.558 97.216 656.262 97.216C658.15 97.216 659.534 97.888 660.414 99.232L659.43 100.12C658.774 99.08 657.726 98.56 656.286 98.56C655.454 98.56 654.814 98.744 654.366 99.112C653.918 99.464 653.694 99.904 653.694 100.432C653.694 101.024 653.934 101.448 654.414 101.704C654.91 101.944 655.67 102.176 656.694 102.4C657.414 102.56 658.086 102.76 658.71 103C659.35 103.24 659.862 103.576 660.246 104.008C660.63 104.44 660.822 105.04 660.822 105.808C660.822 106.832 660.422 107.664 659.622 108.304C658.838 108.944 657.782 109.264 656.454 109.264ZM667.998 109.264C666.974 109.264 666.206 109.048 665.694 108.616C665.182 108.184 664.926 107.408 664.926 106.288V98.848H662.43V97.504H664.926V93.28H666.366V97.504H669.87V98.848H666.366V106.048C666.366 106.768 666.518 107.264 666.822 107.536C667.126 107.792 667.598 107.92 668.238 107.92C668.51 107.92 668.798 107.88 669.102 107.8C669.406 107.72 669.662 107.632 669.87 107.536V108.952C669.646 109.032 669.358 109.104 669.006 109.168C668.654 109.232 668.318 109.264 667.998 109.264ZM677.261 109.264C676.221 109.264 675.293 109.024 674.477 108.544C673.677 108.048 673.045 107.352 672.581 106.456C672.133 105.544 671.909 104.472 671.909 103.24C671.909 102.04 672.133 100.992 672.581 100.096C673.045 99.2 673.677 98.504 674.477 98.008C675.277 97.496 676.189 97.24 677.213 97.24C678.253 97.24 679.133 97.504 679.853 98.032C680.589 98.544 681.149 99.216 681.533 100.048C681.917 100.864 682.109 101.728 682.109 102.64V103.12H673.373C673.341 104.56 673.677 105.728 674.381 106.624C675.101 107.504 676.069 107.944 677.285 107.944C678.181 107.944 678.933 107.72 679.541 107.272C680.149 106.808 680.645 106.128 681.029 105.232L682.229 105.928C681.205 108.152 679.549 109.264 677.261 109.264ZM673.469 101.872H680.669C680.589 101.248 680.389 100.68 680.069 100.168C679.765 99.656 679.365 99.248 678.869 98.944C678.389 98.64 677.837 98.488 677.213 98.488C676.237 98.488 675.413 98.792 674.741 99.4C674.085 99.992 673.661 100.816 673.469 101.872Z" fill="black"/>
<rect width="388" height="44" transform="translate(126 155)" fill="#CCD0D7"/>
<path d="M264.553 186.264C263.417 186.264 262.449 185.936 261.649 185.28C260.849 184.624 260.297 183.752 259.993 182.664L261.313 182.208C261.505 182.912 261.865 183.544 262.393 184.104C262.937 184.648 263.649 184.92 264.529 184.92C265.665 184.92 266.545 184.624 267.169 184.032C267.793 183.44 268.105 182.568 268.105 181.416C268.105 180.328 267.745 179.456 267.025 178.8C266.321 178.144 265.417 177.816 264.313 177.816H263.593V176.472H264.313C265.369 176.472 266.193 176.176 266.785 175.584C267.377 174.992 267.673 174.216 267.673 173.256C267.673 172.552 267.521 171.984 267.217 171.552C266.929 171.12 266.545 170.808 266.065 170.616C265.585 170.408 265.073 170.304 264.529 170.304C264.001 170.304 263.537 170.432 263.137 170.688C262.737 170.944 262.401 171.272 262.129 171.672C261.857 172.072 261.641 172.496 261.481 172.944L260.185 172.416C260.585 171.28 261.177 170.416 261.961 169.824C262.761 169.216 263.625 168.912 264.553 168.912C265.897 168.912 266.993 169.296 267.841 170.064C268.689 170.832 269.113 171.888 269.113 173.232C269.113 174.128 268.881 174.92 268.417 175.608C267.953 176.296 267.329 176.8 266.545 177.12C267.425 177.424 268.145 177.96 268.705 178.728C269.265 179.496 269.545 180.4 269.545 181.44C269.545 182.352 269.361 183.176 268.993 183.912C268.641 184.632 268.097 185.208 267.361 185.64C266.625 186.056 265.689 186.264 264.553 186.264ZM274.282 186C274.394 185.248 274.562 184.376 274.786 183.384C275.01 182.392 275.274 181.336 275.578 180.216C275.882 179.08 276.202 177.936 276.538 176.784C276.89 175.632 277.25 174.52 277.618 173.448C277.986 172.376 278.346 171.408 278.698 170.544H271.378V169.2H280.33V170.184C279.994 170.968 279.634 171.896 279.25 172.968C278.882 174.024 278.514 175.144 278.146 176.328C277.794 177.512 277.458 178.696 277.138 179.88C276.818 181.064 276.538 182.184 276.298 183.24C276.058 184.296 275.874 185.216 275.746 186H274.282ZM285.613 177.12C284.573 177.12 283.733 176.752 283.093 176.016C282.469 175.28 282.157 174.28 282.157 173.016C282.157 171.752 282.469 170.752 283.093 170.016C283.733 169.264 284.573 168.888 285.613 168.888C286.653 168.888 287.485 169.264 288.109 170.016C288.733 170.752 289.045 171.752 289.045 173.016C289.045 174.28 288.733 175.28 288.109 176.016C287.485 176.752 286.653 177.12 285.613 177.12ZM294.421 186.264C293.381 186.264 292.541 185.896 291.901 185.16C291.277 184.424 290.965 183.424 290.965 182.16C290.965 180.912 291.277 179.912 291.901 179.16C292.541 178.408 293.381 178.032 294.421 178.032C295.461 178.032 296.293 178.408 296.917 179.16C297.541 179.912 297.853 180.912 297.853 182.16C297.853 183.424 297.541 184.424 296.917 185.16C296.293 185.896 295.461 186.264 294.421 186.264ZM284.293 186.408L283.429 185.808L295.645 168.696L296.509 169.344L284.293 186.408ZM294.421 185.064C295.141 185.064 295.685 184.8 296.053 184.272C296.437 183.744 296.629 183.04 296.629 182.16C296.629 181.264 296.437 180.56 296.053 180.048C295.685 179.536 295.141 179.28 294.421 179.28C293.701 179.28 293.149 179.536 292.765 180.048C292.397 180.56 292.213 181.264 292.213 182.16C292.213 183.04 292.397 183.744 292.765 184.272C293.149 184.8 293.701 185.064 294.421 185.064ZM285.613 175.896C286.317 175.896 286.861 175.64 287.245 175.128C287.629 174.6 287.821 173.896 287.821 173.016C287.821 172.12 287.629 171.416 287.245 170.904C286.861 170.392 286.317 170.136 285.613 170.136C284.893 170.136 284.341 170.392 283.957 170.904C283.589 171.416 283.405 172.12 283.405 173.016C283.405 173.896 283.589 174.6 283.957 175.128C284.341 175.64 284.893 175.896 285.613 175.896ZM311.578 186.264C310.362 186.264 309.378 185.872 308.626 185.088C307.874 184.304 307.498 183.184 307.498 181.728V174.504H308.938V181.536C308.938 182.656 309.202 183.496 309.73 184.056C310.274 184.616 310.97 184.896 311.818 184.896C312.794 184.896 313.586 184.592 314.194 183.984C314.802 183.376 315.106 182.632 315.106 181.752V174.504H316.57V185.976H315.202L315.154 184.368C314.818 184.896 314.338 185.344 313.714 185.712C313.09 186.08 312.378 186.264 311.578 186.264ZM320.135 186V174.504H321.503L321.551 176.136C321.919 175.592 322.407 175.136 323.015 174.768C323.639 174.4 324.343 174.216 325.127 174.216C326.359 174.216 327.351 174.608 328.103 175.392C328.855 176.176 329.231 177.296 329.231 178.752V186H327.791V178.968C327.791 177.848 327.519 177.008 326.975 176.448C326.447 175.888 325.759 175.608 324.911 175.608C324.271 175.608 323.695 175.752 323.183 176.04C322.687 176.312 322.295 176.688 322.007 177.168C321.735 177.632 321.599 178.152 321.599 178.728V186H320.135ZM336.703 186.264C335.487 186.264 334.503 185.872 333.751 185.088C332.999 184.304 332.623 183.184 332.623 181.728V174.504H334.063V181.536C334.063 182.656 334.327 183.496 334.855 184.056C335.399 184.616 336.095 184.896 336.943 184.896C337.919 184.896 338.711 184.592 339.319 183.984C339.927 183.376 340.231 182.632 340.231 181.752V174.504H341.695V185.976H340.327L340.279 184.368C339.943 184.896 339.463 185.344 338.839 185.712C338.215 186.08 337.503 186.264 336.703 186.264ZM349.196 186.264C348.172 186.264 347.244 186.064 346.412 185.664C345.58 185.264 344.908 184.696 344.396 183.96L345.452 183.072C345.836 183.664 346.356 184.12 347.012 184.44C347.684 184.76 348.428 184.92 349.244 184.92C350.028 184.92 350.692 184.752 351.236 184.416C351.796 184.064 352.076 183.52 352.076 182.784C352.076 182.128 351.812 181.672 351.284 181.416C350.756 181.16 349.948 180.92 348.86 180.696C348.188 180.552 347.548 180.376 346.94 180.168C346.348 179.96 345.868 179.648 345.5 179.232C345.132 178.8 344.948 178.208 344.948 177.456C344.948 176.768 345.132 176.184 345.5 175.704C345.884 175.224 346.388 174.856 347.012 174.6C347.636 174.344 348.3 174.216 349.004 174.216C350.892 174.216 352.276 174.888 353.156 176.232L352.172 177.12C351.516 176.08 350.468 175.56 349.028 175.56C348.196 175.56 347.556 175.744 347.108 176.112C346.66 176.464 346.436 176.904 346.436 177.432C346.436 178.024 346.676 178.448 347.156 178.704C347.652 178.944 348.412 179.176 349.436 179.4C350.156 179.56 350.828 179.76 351.452 180C352.092 180.24 352.604 180.576 352.988 181.008C353.372 181.44 353.564 182.04 353.564 182.808C353.564 183.832 353.164 184.664 352.364 185.304C351.58 185.944 350.524 186.264 349.196 186.264ZM360.957 186.264C359.917 186.264 358.989 186.024 358.173 185.544C357.373 185.048 356.741 184.352 356.277 183.456C355.829 182.544 355.605 181.472 355.605 180.24C355.605 179.04 355.829 177.992 356.277 177.096C356.741 176.2 357.373 175.504 358.173 175.008C358.973 174.496 359.885 174.24 360.909 174.24C361.949 174.24 362.829 174.504 363.549 175.032C364.285 175.544 364.845 176.216 365.229 177.048C365.613 177.864 365.805 178.728 365.805 179.64V180.12H357.069C357.037 181.56 357.373 182.728 358.077 183.624C358.797 184.504 359.765 184.944 360.981 184.944C361.877 184.944 362.629 184.72 363.237 184.272C363.845 183.808 364.341 183.128 364.725 182.232L365.925 182.928C364.901 185.152 363.245 186.264 360.957 186.264ZM357.165 178.872H364.365C364.285 178.248 364.085 177.68 363.765 177.168C363.461 176.656 363.061 176.248 362.565 175.944C362.085 175.64 361.533 175.488 360.909 175.488C359.933 175.488 359.109 175.792 358.437 176.4C357.781 176.992 357.357 177.816 357.165 178.872ZM373.519 186.264C372.495 186.264 371.583 186.016 370.783 185.52C369.983 185.008 369.351 184.304 368.887 183.408C368.423 182.496 368.191 181.44 368.191 180.24C368.191 179.04 368.423 177.992 368.887 177.096C369.351 176.2 369.983 175.504 370.783 175.008C371.583 174.496 372.495 174.24 373.519 174.24C374.383 174.24 375.151 174.448 375.823 174.864C376.495 175.264 377.031 175.816 377.431 176.52V168.672H378.895V186H377.551L377.527 183.888C377.111 184.624 376.559 185.208 375.871 185.64C375.183 186.056 374.399 186.264 373.519 186.264ZM373.567 184.896C374.319 184.896 374.983 184.704 375.559 184.32C376.151 183.936 376.615 183.4 376.951 182.712C377.287 182.008 377.455 181.184 377.455 180.24C377.455 179.296 377.287 178.48 376.951 177.792C376.615 177.104 376.151 176.568 375.559 176.184C374.983 175.8 374.319 175.608 373.567 175.608C372.815 175.608 372.143 175.8 371.551 176.184C370.959 176.568 370.495 177.104 370.159 177.792C369.823 178.48 369.655 179.296 369.655 180.24C369.655 181.184 369.823 182.008 370.159 182.712C370.495 183.4 370.959 183.936 371.551 184.32C372.143 184.704 372.815 184.896 373.567 184.896Z" fill="black"/>
<path d="M409.652 295.264C408.804 295.264 408.068 295.08 407.444 294.712C406.82 294.328 406.276 293.832 405.812 293.224L406.868 292.384C407.204 292.848 407.588 293.224 408.02 293.512C408.468 293.8 409.012 293.944 409.652 293.944C410.484 293.944 411.164 293.72 411.692 293.272C412.236 292.808 412.652 292.192 412.94 291.424C413.228 290.64 413.42 289.752 413.516 288.76C413.628 287.768 413.676 286.736 413.66 285.664C413.356 286.352 412.892 286.888 412.268 287.272C411.644 287.64 410.94 287.824 410.156 287.824C409.34 287.824 408.596 287.632 407.924 287.248C407.268 286.864 406.74 286.312 406.34 285.592C405.94 284.872 405.74 284 405.74 282.976C405.74 281.984 405.924 281.112 406.292 280.36C406.676 279.592 407.204 278.992 407.876 278.56C408.564 278.128 409.348 277.912 410.228 277.912C411.204 277.912 412.06 278.176 412.796 278.704C413.548 279.232 414.124 280.12 414.524 281.368C414.94 282.616 415.116 284.32 415.052 286.48C414.988 289.52 414.5 291.744 413.588 293.152C412.676 294.56 411.364 295.264 409.652 295.264ZM410.156 286.504C410.796 286.504 411.38 286.336 411.908 286C412.436 285.648 412.836 285.176 413.108 284.584C413.396 283.992 413.484 283.336 413.372 282.616C413.1 280.408 412.068 279.304 410.276 279.304C409.604 279.304 409.036 279.48 408.572 279.832C408.108 280.168 407.756 280.616 407.516 281.176C407.276 281.72 407.156 282.32 407.156 282.976C407.156 284.016 407.428 284.864 407.972 285.52C408.532 286.176 409.26 286.504 410.156 286.504ZM419.77 295C419.882 294.248 420.05 293.376 420.274 292.384C420.498 291.392 420.762 290.336 421.066 289.216C421.37 288.08 421.69 286.936 422.026 285.784C422.378 284.632 422.738 283.52 423.106 282.448C423.474 281.376 423.834 280.408 424.186 279.544H416.866V278.2H425.818V279.184C425.482 279.968 425.122 280.896 424.738 281.968C424.37 283.024 424.002 284.144 423.634 285.328C423.282 286.512 422.946 287.696 422.626 288.88C422.306 290.064 422.026 291.184 421.786 292.24C421.546 293.296 421.362 294.216 421.234 295H419.77ZM431.101 286.12C430.061 286.12 429.221 285.752 428.581 285.016C427.957 284.28 427.645 283.28 427.645 282.016C427.645 280.752 427.957 279.752 428.581 279.016C429.221 278.264 430.061 277.888 431.101 277.888C432.141 277.888 432.973 278.264 433.597 279.016C434.221 279.752 434.533 280.752 434.533 282.016C434.533 283.28 434.221 284.28 433.597 285.016C432.973 285.752 432.141 286.12 431.101 286.12ZM439.909 295.264C438.869 295.264 438.029 294.896 437.389 294.16C436.765 293.424 436.453 292.424 436.453 291.16C436.453 289.912 436.765 288.912 437.389 288.16C438.029 287.408 438.869 287.032 439.909 287.032C440.949 287.032 441.781 287.408 442.405 288.16C443.029 288.912 443.341 289.912 443.341 291.16C443.341 292.424 443.029 293.424 442.405 294.16C441.781 294.896 440.949 295.264 439.909 295.264ZM429.781 295.408L428.917 294.808L441.133 277.696L441.997 278.344L429.781 295.408ZM439.909 294.064C440.629 294.064 441.173 293.8 441.541 293.272C441.925 292.744 442.117 292.04 442.117 291.16C442.117 290.264 441.925 289.56 441.541 289.048C441.173 288.536 440.629 288.28 439.909 288.28C439.189 288.28 438.637 288.536 438.253 289.048C437.885 289.56 437.701 290.264 437.701 291.16C437.701 292.04 437.885 292.744 438.253 293.272C438.637 293.8 439.189 294.064 439.909 294.064ZM431.101 284.896C431.805 284.896 432.349 284.64 432.733 284.128C433.117 283.6 433.309 282.896 433.309 282.016C433.309 281.12 433.117 280.416 432.733 279.904C432.349 279.392 431.805 279.136 431.101 279.136C430.381 279.136 429.829 279.392 429.445 279.904C429.077 280.416 428.893 281.12 428.893 282.016C428.893 282.896 429.077 283.6 429.445 284.128C429.829 284.64 430.381 284.896 431.101 284.896ZM457.858 295.264C456.834 295.264 455.922 295.008 455.122 294.496C454.322 293.984 453.69 293.28 453.226 292.384C452.762 291.472 452.53 290.424 452.53 289.24C452.53 288.056 452.762 287.016 453.226 286.12C453.69 285.208 454.322 284.496 455.122 283.984C455.922 283.472 456.834 283.216 457.858 283.216C458.898 283.216 459.818 283.472 460.618 283.984C461.418 284.496 462.05 285.208 462.514 286.12C462.978 287.016 463.21 288.056 463.21 289.24C463.21 290.424 462.978 291.472 462.514 292.384C462.05 293.28 461.418 293.984 460.618 294.496C459.818 295.008 458.898 295.264 457.858 295.264ZM457.858 293.896C458.61 293.896 459.274 293.704 459.85 293.32C460.442 292.936 460.906 292.4 461.242 291.712C461.578 291.008 461.746 290.184 461.746 289.24C461.746 288.296 461.578 287.48 461.242 286.792C460.906 286.088 460.442 285.544 459.85 285.16C459.274 284.776 458.61 284.584 457.858 284.584C456.738 284.584 455.81 285.008 455.074 285.856C454.354 286.688 453.994 287.816 453.994 289.24C453.994 290.648 454.354 291.776 455.074 292.624C455.81 293.472 456.738 293.896 457.858 293.896ZM467.412 295V284.848H465.036V283.504H467.412V281.224C467.412 280.28 467.572 279.544 467.892 279.016C468.212 278.488 468.636 278.112 469.164 277.888C469.692 277.664 470.26 277.552 470.868 277.552C471.188 277.552 471.484 277.576 471.756 277.624C472.044 277.656 472.292 277.712 472.5 277.792V279.16C472.324 279.08 472.1 279.016 471.828 278.968C471.572 278.92 471.316 278.896 471.06 278.896C470.42 278.896 469.892 279.088 469.476 279.472C469.06 279.84 468.852 280.456 468.852 281.32V283.504H472.5V284.848H468.852V295H467.412ZM486.003 300.184C483.875 300.184 482.275 299.352 481.203 297.688L482.403 296.896C483.203 298.16 484.403 298.792 486.003 298.792C487.187 298.792 488.091 298.4 488.715 297.616C489.339 296.848 489.651 295.688 489.651 294.136V292.072C489.251 292.696 488.731 293.192 488.091 293.56C487.451 293.912 486.723 294.088 485.907 294.088C484.931 294.088 484.059 293.864 483.291 293.416C482.539 292.968 481.939 292.336 481.491 291.52C481.059 290.704 480.843 289.744 480.843 288.64C480.843 287.536 481.059 286.584 481.491 285.784C481.939 284.968 482.539 284.336 483.291 283.888C484.059 283.44 484.931 283.216 485.907 283.216C486.739 283.216 487.483 283.408 488.139 283.792C488.795 284.16 489.323 284.672 489.723 285.328L489.747 283.504H491.091V294.136C491.091 296.216 490.619 297.744 489.675 298.72C488.747 299.696 487.523 300.184 486.003 300.184ZM485.979 292.744C486.699 292.744 487.339 292.576 487.899 292.24C488.459 291.888 488.899 291.408 489.219 290.8C489.539 290.176 489.699 289.456 489.699 288.64C489.699 287.824 489.539 287.112 489.219 286.504C488.899 285.896 488.459 285.424 487.899 285.088C487.339 284.736 486.699 284.56 485.979 284.56C485.275 284.56 484.643 284.736 484.083 285.088C483.539 285.424 483.107 285.896 482.787 286.504C482.467 287.112 482.307 287.824 482.307 288.64C482.307 289.456 482.467 290.176 482.787 290.8C483.107 291.408 483.539 291.888 484.083 292.24C484.643 292.576 485.275 292.744 485.979 292.744ZM497.735 295.216C496.615 295.232 495.703 294.976 494.999 294.448C494.311 293.92 493.967 293.152 493.967 292.144C493.967 291.376 494.223 290.704 494.735 290.128C495.263 289.552 495.927 289.104 496.727 288.784C497.543 288.448 498.383 288.28 499.247 288.28C500.431 288.28 501.367 288.56 502.055 289.12V287.152C502.055 286.08 501.831 285.384 501.383 285.064C500.935 284.728 500.215 284.56 499.223 284.56C498.583 284.56 497.871 284.68 497.087 284.92C496.303 285.144 495.639 285.432 495.095 285.784L494.399 284.632C495.023 284.232 495.775 283.896 496.655 283.624C497.551 283.352 498.407 283.216 499.223 283.216C500.679 283.216 501.751 283.496 502.439 284.056C503.127 284.616 503.471 285.648 503.471 287.152V293.512C503.471 293.816 503.551 293.992 503.711 294.04C503.887 294.072 504.263 294.032 504.839 293.92V294.952C504.679 295.016 504.463 295.072 504.191 295.12C503.919 295.184 503.663 295.216 503.423 295.216C502.879 295.216 502.527 295.104 502.367 294.88C502.207 294.656 502.111 294.232 502.079 293.608C501.583 294.152 500.927 294.552 500.111 294.808C499.295 295.064 498.503 295.2 497.735 295.216ZM497.807 293.896C498.575 293.88 499.287 293.76 499.943 293.536C500.615 293.312 501.143 292.992 501.527 292.576C501.927 292.144 502.111 291.624 502.079 291.016C502.031 290.52 501.759 290.152 501.263 289.912C500.767 289.656 500.127 289.536 499.343 289.552C498.687 289.552 498.055 289.664 497.447 289.888C496.839 290.112 496.343 290.424 495.959 290.824C495.591 291.208 495.407 291.656 495.407 292.168C495.407 292.76 495.631 293.2 496.079 293.488C496.527 293.76 497.103 293.896 497.807 293.896ZM507.506 295V283.504H508.898L508.97 285.496C509.29 284.824 509.794 284.28 510.482 283.864C511.186 283.432 511.962 283.216 512.81 283.216C513.034 283.216 513.258 283.232 513.482 283.264C513.722 283.28 513.922 283.312 514.082 283.36V284.776C513.938 284.744 513.73 284.712 513.458 284.68C513.202 284.648 512.938 284.632 512.666 284.632C511.994 284.632 511.378 284.792 510.818 285.112C510.258 285.416 509.81 285.832 509.474 286.36C509.154 286.872 508.994 287.456 508.994 288.112V295H507.506ZM516.53 295V283.504H517.898L517.97 285.304C518.226 284.712 518.65 284.216 519.242 283.816C519.834 283.416 520.506 283.216 521.258 283.216C522.186 283.216 522.946 283.432 523.538 283.864C524.146 284.296 524.554 284.896 524.762 285.664C525.034 284.96 525.466 284.376 526.058 283.912C526.65 283.448 527.41 283.216 528.338 283.216C529.522 283.216 530.45 283.592 531.122 284.344C531.794 285.08 532.13 286.192 532.13 287.68V295H530.666V287.896C530.666 286.68 530.434 285.824 529.97 285.328C529.506 284.832 528.882 284.584 528.098 284.584C527.49 284.584 526.954 284.744 526.49 285.064C526.042 285.368 525.69 285.776 525.434 286.288C525.194 286.784 525.074 287.328 525.074 287.92V295H523.61V287.896C523.61 286.68 523.37 285.824 522.89 285.328C522.426 284.832 521.802 284.584 521.018 284.584C520.41 284.584 519.874 284.744 519.41 285.064C518.962 285.384 518.61 285.8 518.354 286.312C518.114 286.808 517.994 287.336 517.994 287.896V295H516.53ZM540.406 295.264C539.366 295.264 538.438 295.024 537.622 294.544C536.822 294.048 536.19 293.352 535.726 292.456C535.278 291.544 535.054 290.472 535.054 289.24C535.054 288.04 535.278 286.992 535.726 286.096C536.19 285.2 536.822 284.504 537.622 284.008C538.422 283.496 539.334 283.24 540.358 283.24C541.398 283.24 542.278 283.504 542.998 284.032C543.734 284.544 544.294 285.216 544.678 286.048C545.062 286.864 545.254 287.728 545.254 288.64V289.12H536.518C536.486 290.56 536.822 291.728 537.526 292.624C538.246 293.504 539.214 293.944 540.43 293.944C541.326 293.944 542.078 293.72 542.686 293.272C543.294 292.808 543.79 292.128 544.174 291.232L545.374 291.928C544.35 294.152 542.694 295.264 540.406 295.264ZM536.614 287.872H543.814C543.734 287.248 543.534 286.68 543.214 286.168C542.91 285.656 542.51 285.248 542.014 284.944C541.534 284.64 540.982 284.488 540.358 284.488C539.382 284.488 538.558 284.792 537.886 285.4C537.23 285.992 536.806 286.816 536.614 287.872ZM548.288 295V283.504H549.656L549.704 285.136C550.072 284.592 550.56 284.136 551.168 283.768C551.792 283.4 552.496 283.216 553.28 283.216C554.512 283.216 555.504 283.608 556.256 284.392C557.008 285.176 557.384 286.296 557.384 287.752V295H555.944V287.968C555.944 286.848 555.672 286.008 555.128 285.448C554.6 284.888 553.912 284.608 553.064 284.608C552.424 284.608 551.848 284.752 551.336 285.04C550.84 285.312 550.448 285.688 550.16 286.168C549.888 286.632 549.752 287.152 549.752 287.728V295H548.288ZM564.987 295.264C563.963 295.264 563.195 295.048 562.683 294.616C562.171 294.184 561.915 293.408 561.915 292.288V284.848H559.419V283.504H561.915V279.28H563.355V283.504H566.859V284.848H563.355V292.048C563.355 292.768 563.507 293.264 563.811 293.536C564.115 293.792 564.587 293.92 565.227 293.92C565.499 293.92 565.787 293.88 566.091 293.8C566.395 293.72 566.651 293.632 566.859 293.536V294.952C566.635 295.032 566.347 295.104 565.995 295.168C565.643 295.232 565.307 295.264 564.987 295.264ZM573.482 295.264C572.458 295.264 571.53 295.064 570.698 294.664C569.866 294.264 569.194 293.696 568.682 292.96L569.738 292.072C570.122 292.664 570.642 293.12 571.298 293.44C571.97 293.76 572.714 293.92 573.53 293.92C574.314 293.92 574.978 293.752 575.522 293.416C576.082 293.064 576.362 292.52 576.362 291.784C576.362 291.128 576.098 290.672 575.57 290.416C575.042 290.16 574.234 289.92 573.146 289.696C572.474 289.552 571.834 289.376 571.226 289.168C570.634 288.96 570.154 288.648 569.786 288.232C569.418 287.8 569.234 287.208 569.234 286.456C569.234 285.768 569.418 285.184 569.786 284.704C570.17 284.224 570.674 283.856 571.298 283.6C571.922 283.344 572.586 283.216 573.29 283.216C575.178 283.216 576.562 283.888 577.442 285.232L576.458 286.12C575.802 285.08 574.754 284.56 573.314 284.56C572.482 284.56 571.842 284.744 571.394 285.112C570.946 285.464 570.722 285.904 570.722 286.432C570.722 287.024 570.962 287.448 571.442 287.704C571.938 287.944 572.698 288.176 573.722 288.4C574.442 288.56 575.114 288.76 575.738 289C576.378 289.24 576.89 289.576 577.274 290.008C577.658 290.44 577.85 291.04 577.85 291.808C577.85 292.832 577.45 293.664 576.65 294.304C575.866 294.944 574.81 295.264 573.482 295.264ZM587.264 299.992V283.504H588.608L588.656 285.592C589.072 284.84 589.624 284.256 590.312 283.84C591 283.424 591.784 283.216 592.664 283.216C593.688 283.216 594.6 283.472 595.4 283.984C596.2 284.48 596.824 285.184 597.272 286.096C597.736 286.992 597.968 288.04 597.968 289.24C597.968 290.44 597.736 291.496 597.272 292.408C596.824 293.304 596.2 294.008 595.4 294.52C594.6 295.016 593.688 295.264 592.664 295.264C591.8 295.264 591.032 295.056 590.36 294.64C589.688 294.224 589.144 293.664 588.728 292.96V299.992H587.264ZM592.64 293.896C593.392 293.896 594.056 293.704 594.632 293.32C595.224 292.936 595.688 292.4 596.024 291.712C596.36 291.008 596.528 290.184 596.528 289.24C596.528 288.296 596.36 287.48 596.024 286.792C595.688 286.088 595.224 285.544 594.632 285.16C594.056 284.776 593.392 284.584 592.64 284.584C591.504 284.584 590.568 285.008 589.832 285.856C589.096 286.688 588.728 287.816 588.728 289.24C588.728 290.648 589.096 291.776 589.832 292.624C590.568 293.472 591.504 293.896 592.64 293.896ZM600.905 295V283.504H602.297L602.369 285.496C602.689 284.824 603.193 284.28 603.881 283.864C604.585 283.432 605.361 283.216 606.209 283.216C606.433 283.216 606.657 283.232 606.881 283.264C607.121 283.28 607.321 283.312 607.481 283.36V284.776C607.337 284.744 607.129 284.712 606.857 284.68C606.601 284.648 606.337 284.632 606.065 284.632C605.393 284.632 604.777 284.792 604.217 285.112C603.657 285.416 603.209 285.832 602.873 286.36C602.553 286.872 602.393 287.456 602.393 288.112V295H600.905ZM614.608 295.264C613.584 295.264 612.672 295.008 611.872 294.496C611.072 293.984 610.44 293.28 609.976 292.384C609.512 291.472 609.28 290.424 609.28 289.24C609.28 288.056 609.512 287.016 609.976 286.12C610.44 285.208 611.072 284.496 611.872 283.984C612.672 283.472 613.584 283.216 614.608 283.216C615.648 283.216 616.568 283.472 617.368 283.984C618.168 284.496 618.8 285.208 619.264 286.12C619.728 287.016 619.96 288.056 619.96 289.24C619.96 290.424 619.728 291.472 619.264 292.384C618.8 293.28 618.168 293.984 617.368 294.496C616.568 295.008 615.648 295.264 614.608 295.264ZM614.608 293.896C615.36 293.896 616.024 293.704 616.6 293.32C617.192 292.936 617.656 292.4 617.992 291.712C618.328 291.008 618.496 290.184 618.496 289.24C618.496 288.296 618.328 287.48 617.992 286.792C617.656 286.088 617.192 285.544 616.6 285.16C616.024 284.776 615.36 284.584 614.608 284.584C613.488 284.584 612.56 285.008 611.824 285.856C611.104 286.688 610.744 287.816 610.744 289.24C610.744 290.648 611.104 291.776 611.824 292.624C612.56 293.472 613.488 293.896 614.608 293.896ZM627.546 295.264C626.522 295.264 625.61 295.016 624.81 294.52C624.01 294.008 623.378 293.304 622.914 292.408C622.45 291.496 622.218 290.44 622.218 289.24C622.218 288.04 622.45 286.992 622.914 286.096C623.378 285.2 624.01 284.504 624.81 284.008C625.61 283.496 626.522 283.24 627.546 283.24C628.41 283.24 629.178 283.448 629.85 283.864C630.522 284.264 631.058 284.816 631.458 285.52V277.672H632.922V295H631.578L631.554 292.888C631.138 293.624 630.586 294.208 629.898 294.64C629.21 295.056 628.426 295.264 627.546 295.264ZM627.594 293.896C628.346 293.896 629.01 293.704 629.586 293.32C630.178 292.936 630.642 292.4 630.978 291.712C631.314 291.008 631.482 290.184 631.482 289.24C631.482 288.296 631.314 287.48 630.978 286.792C630.642 286.104 630.178 285.568 629.586 285.184C629.01 284.8 628.346 284.608 627.594 284.608C626.842 284.608 626.17 284.8 625.578 285.184C624.986 285.568 624.522 286.104 624.186 286.792C623.85 287.48 623.682 288.296 623.682 289.24C623.682 290.184 623.85 291.008 624.186 291.712C624.522 292.4 624.986 292.936 625.578 293.32C626.17 293.704 626.842 293.896 627.594 293.896ZM640.394 295.264C639.178 295.264 638.194 294.872 637.442 294.088C636.69 293.304 636.314 292.184 636.314 290.728V283.504H637.754V290.536C637.754 291.656 638.018 292.496 638.546 293.056C639.09 293.616 639.786 293.896 640.634 293.896C641.61 293.896 642.402 293.592 643.01 292.984C643.618 292.376 643.922 291.632 643.922 290.752V283.504H645.386V294.976H644.018L643.97 293.368C643.634 293.896 643.154 294.344 642.53 294.712C641.906 295.08 641.194 295.264 640.394 295.264ZM653.632 295.264C652.608 295.264 651.696 295.016 650.896 294.52C650.096 294.008 649.464 293.296 649 292.384C648.536 291.472 648.304 290.424 648.304 289.24C648.304 288.056 648.536 287.016 649 286.12C649.464 285.208 650.096 284.504 650.896 284.008C651.696 283.496 652.608 283.24 653.632 283.24C654.448 283.24 655.2 283.408 655.888 283.744C656.592 284.064 657.192 284.544 657.688 285.184L656.536 286.048C655.816 285.088 654.848 284.608 653.632 284.608C652.512 284.608 651.584 285.032 650.848 285.88C650.128 286.712 649.768 287.832 649.768 289.24C649.768 290.648 650.128 291.776 650.848 292.624C651.584 293.472 652.512 293.896 653.632 293.896C654.848 293.896 655.816 293.416 656.536 292.456L657.688 293.32C656.664 294.616 655.312 295.264 653.632 295.264ZM664.835 295.264C663.795 295.264 662.867 295.024 662.051 294.544C661.251 294.048 660.619 293.352 660.155 292.456C659.707 291.544 659.483 290.472 659.483 289.24C659.483 288.04 659.707 286.992 660.155 286.096C660.619 285.2 661.251 284.504 662.051 284.008C662.851 283.496 663.763 283.24 664.787 283.24C665.827 283.24 666.707 283.504 667.427 284.032C668.163 284.544 668.723 285.216 669.107 286.048C669.491 286.864 669.683 287.728 669.683 288.64V289.12H660.947C660.915 290.56 661.251 291.728 661.955 292.624C662.675 293.504 663.643 293.944 664.859 293.944C665.755 293.944 666.507 293.72 667.115 293.272C667.723 292.808 668.219 292.128 668.603 291.232L669.803 291.928C668.779 294.152 667.123 295.264 664.835 295.264ZM661.043 287.872H668.243C668.163 287.248 667.963 286.68 667.643 286.168C667.339 285.656 666.939 285.248 666.443 284.944C665.963 284.64 665.411 284.488 664.787 284.488C663.811 284.488 662.987 284.792 662.315 285.4C661.659 285.992 661.235 286.816 661.043 287.872ZM677.397 295.264C676.373 295.264 675.461 295.016 674.661 294.52C673.861 294.008 673.229 293.304 672.765 292.408C672.301 291.496 672.069 290.44 672.069 289.24C672.069 288.04 672.301 286.992 672.765 286.096C673.229 285.2 673.861 284.504 674.661 284.008C675.461 283.496 676.373 283.24 677.397 283.24C678.261 283.24 679.029 283.448 679.701 283.864C680.373 284.264 680.909 284.816 681.309 285.52V277.672H682.773V295H681.429L681.405 292.888C680.989 293.624 680.437 294.208 679.749 294.64C679.061 295.056 678.277 295.264 677.397 295.264ZM677.445 293.896C678.197 293.896 678.861 293.704 679.437 293.32C680.029 292.936 680.493 292.4 680.829 291.712C681.165 291.008 681.333 290.184 681.333 289.24C681.333 288.296 681.165 287.48 680.829 286.792C680.493 286.104 680.029 285.568 679.437 285.184C678.861 284.8 678.197 284.608 677.445 284.608C676.693 284.608 676.021 284.8 675.429 285.184C674.837 285.568 674.373 286.104 674.037 286.792C673.701 287.48 673.533 288.296 673.533 289.24C673.533 290.184 673.701 291.008 674.037 291.712C674.373 292.4 674.837 292.936 675.429 293.32C676.021 293.704 676.693 293.896 677.445 293.896ZM696.157 295.216C695.037 295.232 694.125 294.976 693.421 294.448C692.733 293.92 692.389 293.152 692.389 292.144C692.389 291.376 692.645 290.704 693.157 290.128C693.685 289.552 694.349 289.104 695.149 288.784C695.965 288.448 696.805 288.28 697.669 288.28C698.853 288.28 699.789 288.56 700.477 289.12V287.152C700.477 286.08 700.253 285.384 699.805 285.064C699.357 284.728 698.637 284.56 697.645 284.56C697.005 284.56 696.293 284.68 695.509 284.92C694.725 285.144 694.061 285.432 693.517 285.784L692.821 284.632C693.445 284.232 694.197 283.896 695.077 283.624C695.973 283.352 696.829 283.216 697.645 283.216C699.101 283.216 700.173 283.496 700.861 284.056C701.549 284.616 701.893 285.648 701.893 287.152V293.512C701.893 293.816 701.973 293.992 702.133 294.04C702.309 294.072 702.685 294.032 703.261 293.92V294.952C703.101 295.016 702.885 295.072 702.613 295.12C702.341 295.184 702.085 295.216 701.845 295.216C701.301 295.216 700.949 295.104 700.789 294.88C700.629 294.656 700.533 294.232 700.501 293.608C700.005 294.152 699.349 294.552 698.533 294.808C697.717 295.064 696.925 295.2 696.157 295.216ZM696.229 293.896C696.997 293.88 697.709 293.76 698.365 293.536C699.037 293.312 699.565 292.992 699.949 292.576C700.349 292.144 700.533 291.624 700.501 291.016C700.453 290.52 700.181 290.152 699.685 289.912C699.189 289.656 698.549 289.536 697.765 289.552C697.109 289.552 696.477 289.664 695.869 289.888C695.261 290.112 694.765 290.424 694.381 290.824C694.013 291.208 693.829 291.656 693.829 292.168C693.829 292.76 694.053 293.2 694.501 293.488C694.949 293.76 695.525 293.896 696.229 293.896ZM705.928 295V283.504H707.32L707.392 285.496C707.712 284.824 708.216 284.28 708.904 283.864C709.608 283.432 710.384 283.216 711.232 283.216C711.456 283.216 711.68 283.232 711.904 283.264C712.144 283.28 712.344 283.312 712.504 283.36V284.776C712.36 284.744 712.152 284.712 711.88 284.68C711.624 284.648 711.36 284.632 711.088 284.632C710.416 284.632 709.8 284.792 709.24 285.112C708.68 285.416 708.232 285.832 707.896 286.36C707.576 286.872 707.416 287.456 707.416 288.112V295H705.928ZM719.656 295.264C718.616 295.264 717.688 295.024 716.872 294.544C716.072 294.048 715.44 293.352 714.976 292.456C714.528 291.544 714.304 290.472 714.304 289.24C714.304 288.04 714.528 286.992 714.976 286.096C715.44 285.2 716.072 284.504 716.872 284.008C717.672 283.496 718.584 283.24 719.608 283.24C720.648 283.24 721.528 283.504 722.248 284.032C722.984 284.544 723.544 285.216 723.928 286.048C724.312 286.864 724.504 287.728 724.504 288.64V289.12H715.768C715.736 290.56 716.072 291.728 716.776 292.624C717.496 293.504 718.464 293.944 719.68 293.944C720.576 293.944 721.328 293.72 721.936 293.272C722.544 292.808 723.04 292.128 723.424 291.232L724.624 291.928C723.6 294.152 721.944 295.264 719.656 295.264ZM715.864 287.872H723.064C722.984 287.248 722.784 286.68 722.464 286.168C722.16 285.656 721.76 285.248 721.264 284.944C720.784 284.64 720.232 284.488 719.608 284.488C718.632 284.488 717.808 284.792 717.136 285.4C716.48 285.992 716.056 286.816 715.864 287.872ZM736.784 295L733.184 283.504H734.624L737.384 292.648L740.096 283.504H741.272L743.984 292.648L746.744 283.504H748.184L744.584 295H743.408L740.696 285.832L737.936 295H736.784ZM753.719 295.216C752.599 295.232 751.687 294.976 750.983 294.448C750.295 293.92 749.951 293.152 749.951 292.144C749.951 291.376 750.207 290.704 750.719 290.128C751.247 289.552 751.911 289.104 752.711 288.784C753.527 288.448 754.367 288.28 755.231 288.28C756.415 288.28 757.351 288.56 758.039 289.12V287.152C758.039 286.08 757.815 285.384 757.367 285.064C756.919 284.728 756.199 284.56 755.207 284.56C754.567 284.56 753.855 284.68 753.071 284.92C752.287 285.144 751.623 285.432 751.079 285.784L750.383 284.632C751.007 284.232 751.759 283.896 752.639 283.624C753.535 283.352 754.391 283.216 755.207 283.216C756.663 283.216 757.735 283.496 758.423 284.056C759.111 284.616 759.455 285.648 759.455 287.152V293.512C759.455 293.816 759.535 293.992 759.695 294.04C759.871 294.072 760.247 294.032 760.823 293.92V294.952C760.663 295.016 760.447 295.072 760.175 295.12C759.903 295.184 759.647 295.216 759.407 295.216C758.863 295.216 758.511 295.104 758.351 294.88C758.191 294.656 758.095 294.232 758.063 293.608C757.567 294.152 756.911 294.552 756.095 294.808C755.279 295.064 754.487 295.2 753.719 295.216ZM753.791 293.896C754.559 293.88 755.271 293.76 755.927 293.536C756.599 293.312 757.127 292.992 757.511 292.576C757.911 292.144 758.095 291.624 758.063 291.016C758.015 290.52 757.743 290.152 757.247 289.912C756.751 289.656 756.111 289.536 755.327 289.552C754.671 289.552 754.039 289.664 753.431 289.888C752.823 290.112 752.327 290.424 751.943 290.824C751.575 291.208 751.391 291.656 751.391 292.168C751.391 292.76 751.615 293.2 752.063 293.488C752.511 293.76 753.087 293.896 753.791 293.896ZM767.427 295.264C766.403 295.264 765.475 295.064 764.643 294.664C763.811 294.264 763.139 293.696 762.627 292.96L763.683 292.072C764.067 292.664 764.587 293.12 765.243 293.44C765.915 293.76 766.659 293.92 767.475 293.92C768.259 293.92 768.923 293.752 769.467 293.416C770.027 293.064 770.307 292.52 770.307 291.784C770.307 291.128 770.043 290.672 769.515 290.416C768.987 290.16 768.179 289.92 767.091 289.696C766.419 289.552 765.779 289.376 765.171 289.168C764.579 288.96 764.099 288.648 763.731 288.232C763.363 287.8 763.179 287.208 763.179 286.456C763.179 285.768 763.363 285.184 763.731 284.704C764.115 284.224 764.619 283.856 765.243 283.6C765.867 283.344 766.531 283.216 767.235 283.216C769.123 283.216 770.507 283.888 771.387 285.232L770.403 286.12C769.747 285.08 768.699 284.56 767.259 284.56C766.427 284.56 765.787 284.744 765.339 285.112C764.891 285.464 764.667 285.904 764.667 286.432C764.667 287.024 764.907 287.448 765.387 287.704C765.883 287.944 766.643 288.176 767.667 288.4C768.387 288.56 769.059 288.76 769.683 289C770.323 289.24 770.835 289.576 771.219 290.008C771.603 290.44 771.795 291.04 771.795 291.808C771.795 292.832 771.395 293.664 770.595 294.304C769.811 294.944 768.755 295.264 767.427 295.264ZM778.971 295.264C777.947 295.264 777.179 295.048 776.667 294.616C776.155 294.184 775.899 293.408 775.899 292.288V284.848H773.403V283.504H775.899V279.28H777.339V283.504H780.843V284.848H777.339V292.048C777.339 292.768 777.491 293.264 777.795 293.536C778.099 293.792 778.571 293.92 779.211 293.92C779.483 293.92 779.771 293.88 780.075 293.8C780.379 293.72 780.635 293.632 780.843 293.536V294.952C780.619 295.032 780.331 295.104 779.979 295.168C779.627 295.232 779.291 295.264 778.971 295.264ZM788.234 295.264C787.194 295.264 786.266 295.024 785.45 294.544C784.65 294.048 784.018 293.352 783.554 292.456C783.106 291.544 782.882 290.472 782.882 289.24C782.882 288.04 783.106 286.992 783.554 286.096C784.018 285.2 784.65 284.504 785.45 284.008C786.25 283.496 787.162 283.24 788.186 283.24C789.226 283.24 790.106 283.504 790.826 284.032C791.562 284.544 792.122 285.216 792.506 286.048C792.89 286.864 793.082 287.728 793.082 288.64V289.12H784.346C784.314 290.56 784.65 291.728 785.354 292.624C786.074 293.504 787.042 293.944 788.258 293.944C789.154 293.944 789.906 293.72 790.514 293.272C791.122 292.808 791.618 292.128 792.002 291.232L793.202 291.928C792.178 294.152 790.522 295.264 788.234 295.264ZM784.442 287.872H791.642C791.562 287.248 791.362 286.68 791.042 286.168C790.738 285.656 790.338 285.248 789.842 284.944C789.362 284.64 788.81 284.488 788.186 284.488C787.21 284.488 786.386 284.792 785.714 285.4C785.058 285.992 784.634 286.816 784.442 287.872ZM800.796 295.264C799.772 295.264 798.86 295.016 798.06 294.52C797.26 294.008 796.628 293.304 796.164 292.408C795.7 291.496 795.468 290.44 795.468 289.24C795.468 288.04 795.7 286.992 796.164 286.096C796.628 285.2 797.26 284.504 798.06 284.008C798.86 283.496 799.772 283.24 800.796 283.24C801.66 283.24 802.428 283.448 803.1 283.864C803.772 284.264 804.308 284.816 804.708 285.52V277.672H806.172V295H804.828L804.804 292.888C804.388 293.624 803.836 294.208 803.148 294.64C802.46 295.056 801.676 295.264 800.796 295.264ZM800.844 293.896C801.596 293.896 802.26 293.704 802.836 293.32C803.428 292.936 803.892 292.4 804.228 291.712C804.564 291.008 804.732 290.184 804.732 289.24C804.732 288.296 804.564 287.48 804.228 286.792C803.892 286.104 803.428 285.568 802.836 285.184C802.26 284.8 801.596 284.608 800.844 284.608C800.092 284.608 799.42 284.8 798.828 285.184C798.236 285.568 797.772 286.104 797.436 286.792C797.1 287.48 796.932 288.296 796.932 289.24C796.932 290.184 797.1 291.008 797.436 291.712C797.772 292.4 798.236 292.936 798.828 293.32C799.42 293.704 800.092 293.896 800.844 293.896Z" fill="black"/>
<path d="M10.8224 295.264C9.68641 295.264 8.71841 294.936 7.91841 294.28C7.11841 293.624 6.56641 292.752 6.26241 291.664L7.58241 291.208C7.77441 291.912 8.13441 292.544 8.66241 293.104C9.20641 293.648 9.91841 293.92 10.7984 293.92C11.9344 293.92 12.8144 293.624 13.4384 293.032C14.0624 292.44 14.3744 291.568 14.3744 290.416C14.3744 289.328 14.0144 288.456 13.2944 287.8C12.5904 287.144 11.6864 286.816 10.5824 286.816H9.86241V285.472H10.5824C11.6384 285.472 12.4624 285.176 13.0544 284.584C13.6464 283.992 13.9424 283.216 13.9424 282.256C13.9424 281.552 13.7904 280.984 13.4864 280.552C13.1984 280.12 12.8144 279.808 12.3344 279.616C11.8544 279.408 11.3424 279.304 10.7984 279.304C10.2704 279.304 9.80641 279.432 9.40641 279.688C9.00641 279.944 8.67041 280.272 8.39841 280.672C8.12641 281.072 7.91041 281.496 7.75041 281.944L6.45441 281.416C6.85441 280.28 7.44641 279.416 8.23041 278.824C9.03041 278.216 9.89441 277.912 10.8224 277.912C12.1664 277.912 13.2624 278.296 14.1104 279.064C14.9584 279.832 15.3824 280.888 15.3824 282.232C15.3824 283.128 15.1504 283.92 14.6864 284.608C14.2224 285.296 13.5984 285.8 12.8144 286.12C13.6944 286.424 14.4144 286.96 14.9744 287.728C15.5344 288.496 15.8144 289.4 15.8144 290.44C15.8144 291.352 15.6304 292.176 15.2624 292.912C14.9104 293.632 14.3664 294.208 13.6304 294.64C12.8944 295.056 11.9584 295.264 10.8224 295.264ZM21.9914 286.12C20.9514 286.12 20.1114 285.752 19.4714 285.016C18.8474 284.28 18.5354 283.28 18.5354 282.016C18.5354 280.752 18.8474 279.752 19.4714 279.016C20.1114 278.264 20.9514 277.888 21.9914 277.888C23.0314 277.888 23.8634 278.264 24.4874 279.016C25.1114 279.752 25.4234 280.752 25.4234 282.016C25.4234 283.28 25.1114 284.28 24.4874 285.016C23.8634 285.752 23.0314 286.12 21.9914 286.12ZM30.7994 295.264C29.7594 295.264 28.9194 294.896 28.2794 294.16C27.6554 293.424 27.3434 292.424 27.3434 291.16C27.3434 289.912 27.6554 288.912 28.2794 288.16C28.9194 287.408 29.7594 287.032 30.7994 287.032C31.8394 287.032 32.6714 287.408 33.2954 288.16C33.9194 288.912 34.2314 289.912 34.2314 291.16C34.2314 292.424 33.9194 293.424 33.2954 294.16C32.6714 294.896 31.8394 295.264 30.7994 295.264ZM20.6714 295.408L19.8074 294.808L32.0234 277.696L32.8874 278.344L20.6714 295.408ZM30.7994 294.064C31.5194 294.064 32.0634 293.8 32.4314 293.272C32.8154 292.744 33.0074 292.04 33.0074 291.16C33.0074 290.264 32.8154 289.56 32.4314 289.048C32.0634 288.536 31.5194 288.28 30.7994 288.28C30.0794 288.28 29.5274 288.536 29.1434 289.048C28.7754 289.56 28.5914 290.264 28.5914 291.16C28.5914 292.04 28.7754 292.744 29.1434 293.272C29.5274 293.8 30.0794 294.064 30.7994 294.064ZM21.9914 284.896C22.6954 284.896 23.2394 284.64 23.6234 284.128C24.0074 283.6 24.1994 282.896 24.1994 282.016C24.1994 281.12 24.0074 280.416 23.6234 279.904C23.2394 279.392 22.6954 279.136 21.9914 279.136C21.2714 279.136 20.7194 279.392 20.3354 279.904C19.9674 280.416 19.7834 281.12 19.7834 282.016C19.7834 282.896 19.9674 283.6 20.3354 284.128C20.7194 284.64 21.2714 284.896 21.9914 284.896ZM47.957 295.264C46.741 295.264 45.757 294.872 45.005 294.088C44.253 293.304 43.877 292.184 43.877 290.728V283.504H45.317V290.536C45.317 291.656 45.581 292.496 46.109 293.056C46.653 293.616 47.349 293.896 48.197 293.896C49.173 293.896 49.965 293.592 50.573 292.984C51.181 292.376 51.485 291.632 51.485 290.752V283.504H52.949V294.976H51.581L51.533 293.368C51.197 293.896 50.717 294.344 50.093 294.712C49.469 295.08 48.757 295.264 47.957 295.264ZM60.4503 295.264C59.4263 295.264 58.4983 295.064 57.6663 294.664C56.8343 294.264 56.1623 293.696 55.6503 292.96L56.7063 292.072C57.0903 292.664 57.6103 293.12 58.2663 293.44C58.9383 293.76 59.6823 293.92 60.4983 293.92C61.2823 293.92 61.9463 293.752 62.4903 293.416C63.0503 293.064 63.3303 292.52 63.3303 291.784C63.3303 291.128 63.0663 290.672 62.5383 290.416C62.0103 290.16 61.2023 289.92 60.1143 289.696C59.4423 289.552 58.8023 289.376 58.1943 289.168C57.6023 288.96 57.1223 288.648 56.7543 288.232C56.3863 287.8 56.2023 287.208 56.2023 286.456C56.2023 285.768 56.3863 285.184 56.7543 284.704C57.1383 284.224 57.6423 283.856 58.2663 283.6C58.8903 283.344 59.5543 283.216 60.2583 283.216C62.1463 283.216 63.5303 283.888 64.4103 285.232L63.4263 286.12C62.7703 285.08 61.7223 284.56 60.2823 284.56C59.4503 284.56 58.8103 284.744 58.3623 285.112C57.9143 285.464 57.6903 285.904 57.6903 286.432C57.6903 287.024 57.9303 287.448 58.4103 287.704C58.9063 287.944 59.6663 288.176 60.6903 288.4C61.4103 288.56 62.0823 288.76 62.7063 289C63.3463 289.24 63.8583 289.576 64.2423 290.008C64.6263 290.44 64.8183 291.04 64.8183 291.808C64.8183 292.832 64.4183 293.664 63.6183 294.304C62.8343 294.944 61.7783 295.264 60.4503 295.264ZM72.2105 295.264C71.1705 295.264 70.2425 295.024 69.4265 294.544C68.6265 294.048 67.9945 293.352 67.5305 292.456C67.0825 291.544 66.8585 290.472 66.8585 289.24C66.8585 288.04 67.0825 286.992 67.5305 286.096C67.9945 285.2 68.6265 284.504 69.4265 284.008C70.2265 283.496 71.1385 283.24 72.1625 283.24C73.2025 283.24 74.0825 283.504 74.8025 284.032C75.5385 284.544 76.0985 285.216 76.4825 286.048C76.8665 286.864 77.0585 287.728 77.0585 288.64V289.12H68.3225C68.2905 290.56 68.6265 291.728 69.3305 292.624C70.0505 293.504 71.0185 293.944 72.2345 293.944C73.1305 293.944 73.8825 293.72 74.4905 293.272C75.0985 292.808 75.5945 292.128 75.9785 291.232L77.1785 291.928C76.1545 294.152 74.4985 295.264 72.2105 295.264ZM68.4185 287.872H75.6185C75.5385 287.248 75.3385 286.68 75.0185 286.168C74.7145 285.656 74.3145 285.248 73.8185 284.944C73.3385 284.64 72.7865 284.488 72.1625 284.488C71.1865 284.488 70.3625 284.792 69.6905 285.4C69.0345 285.992 68.6105 286.816 68.4185 287.872ZM84.7724 295.264C83.7484 295.264 82.8364 295.016 82.0364 294.52C81.2364 294.008 80.6044 293.304 80.1404 292.408C79.6764 291.496 79.4444 290.44 79.4444 289.24C79.4444 288.04 79.6764 286.992 80.1404 286.096C80.6044 285.2 81.2364 284.504 82.0364 284.008C82.8364 283.496 83.7484 283.24 84.7724 283.24C85.6364 283.24 86.4044 283.448 87.0764 283.864C87.7484 284.264 88.2844 284.816 88.6844 285.52V277.672H90.1484V295H88.8044L88.7804 292.888C88.3644 293.624 87.8124 294.208 87.1244 294.64C86.4364 295.056 85.6524 295.264 84.7724 295.264ZM84.8204 293.896C85.5724 293.896 86.2364 293.704 86.8124 293.32C87.4044 292.936 87.8684 292.4 88.2044 291.712C88.5404 291.008 88.7084 290.184 88.7084 289.24C88.7084 288.296 88.5404 287.48 88.2044 286.792C87.8684 286.104 87.4044 285.568 86.8124 285.184C86.2364 284.8 85.5724 284.608 84.8204 284.608C84.0684 284.608 83.3964 284.8 82.8044 285.184C82.2124 285.568 81.7484 286.104 81.4124 286.792C81.0764 287.48 80.9084 288.296 80.9084 289.24C80.9084 290.184 81.0764 291.008 81.4124 291.712C81.7484 292.4 82.2124 292.936 82.8044 293.32C83.3964 293.704 84.0684 293.896 84.8204 293.896ZM100.46 295V283.504H101.852L101.924 285.496C102.244 284.824 102.748 284.28 103.436 283.864C104.14 283.432 104.916 283.216 105.764 283.216C105.988 283.216 106.212 283.232 106.436 283.264C106.676 283.28 106.876 283.312 107.036 283.36V284.776C106.892 284.744 106.684 284.712 106.412 284.68C106.156 284.648 105.892 284.632 105.62 284.632C104.948 284.632 104.332 284.792 103.772 285.112C103.212 285.416 102.764 285.832 102.428 286.36C102.108 286.872 101.948 287.456 101.948 288.112V295H100.46ZM114.187 295.264C113.147 295.264 112.219 295.024 111.403 294.544C110.603 294.048 109.971 293.352 109.507 292.456C109.059 291.544 108.835 290.472 108.835 289.24C108.835 288.04 109.059 286.992 109.507 286.096C109.971 285.2 110.603 284.504 111.403 284.008C112.203 283.496 113.115 283.24 114.139 283.24C115.179 283.24 116.059 283.504 116.779 284.032C117.515 284.544 118.075 285.216 118.459 286.048C118.843 286.864 119.035 287.728 119.035 288.64V289.12H110.299C110.267 290.56 110.603 291.728 111.307 292.624C112.027 293.504 112.995 293.944 114.211 293.944C115.107 293.944 115.859 293.72 116.467 293.272C117.075 292.808 117.571 292.128 117.955 291.232L119.155 291.928C118.131 294.152 116.475 295.264 114.187 295.264ZM110.395 287.872H117.595C117.515 287.248 117.315 286.68 116.995 286.168C116.691 285.656 116.291 285.248 115.795 284.944C115.315 284.64 114.763 284.488 114.139 284.488C113.163 284.488 112.339 284.792 111.667 285.4C111.011 285.992 110.587 286.816 110.395 287.872ZM126.581 300.184C124.453 300.184 122.853 299.352 121.781 297.688L122.981 296.896C123.781 298.16 124.981 298.792 126.581 298.792C127.765 298.792 128.669 298.4 129.293 297.616C129.917 296.848 130.229 295.688 130.229 294.136V292.072C129.829 292.696 129.309 293.192 128.669 293.56C128.029 293.912 127.301 294.088 126.485 294.088C125.509 294.088 124.637 293.864 123.869 293.416C123.117 292.968 122.517 292.336 122.069 291.52C121.637 290.704 121.421 289.744 121.421 288.64C121.421 287.536 121.637 286.584 122.069 285.784C122.517 284.968 123.117 284.336 123.869 283.888C124.637 283.44 125.509 283.216 126.485 283.216C127.317 283.216 128.061 283.408 128.717 283.792C129.373 284.16 129.901 284.672 130.301 285.328L130.325 283.504H131.669V294.136C131.669 296.216 131.197 297.744 130.253 298.72C129.325 299.696 128.101 300.184 126.581 300.184ZM126.557 292.744C127.277 292.744 127.917 292.576 128.477 292.24C129.037 291.888 129.477 291.408 129.797 290.8C130.117 290.176 130.277 289.456 130.277 288.64C130.277 287.824 130.117 287.112 129.797 286.504C129.477 285.896 129.037 285.424 128.477 285.088C127.917 284.736 127.277 284.56 126.557 284.56C125.853 284.56 125.221 284.736 124.661 285.088C124.117 285.424 123.685 285.896 123.365 286.504C123.045 287.112 122.885 287.824 122.885 288.64C122.885 289.456 123.045 290.176 123.365 290.8C123.685 291.408 124.117 291.888 124.661 292.24C125.221 292.576 125.853 292.744 126.557 292.744ZM139.129 295.264C137.913 295.264 136.929 294.872 136.177 294.088C135.425 293.304 135.049 292.184 135.049 290.728V283.504H136.489V290.536C136.489 291.656 136.753 292.496 137.281 293.056C137.825 293.616 138.521 293.896 139.369 293.896C140.345 293.896 141.137 293.592 141.745 292.984C142.353 292.376 142.657 291.632 142.657 290.752V283.504H144.121V294.976H142.753L142.705 293.368C142.369 293.896 141.889 294.344 141.265 294.712C140.641 295.08 139.929 295.264 139.129 295.264ZM147.686 295V277.672H149.15V295H147.686ZM155.797 295.216C154.677 295.232 153.765 294.976 153.061 294.448C152.373 293.92 152.029 293.152 152.029 292.144C152.029 291.376 152.285 290.704 152.797 290.128C153.325 289.552 153.989 289.104 154.789 288.784C155.605 288.448 156.445 288.28 157.309 288.28C158.493 288.28 159.429 288.56 160.117 289.12V287.152C160.117 286.08 159.893 285.384 159.445 285.064C158.997 284.728 158.277 284.56 157.285 284.56C156.645 284.56 155.933 284.68 155.149 284.92C154.365 285.144 153.701 285.432 153.157 285.784L152.461 284.632C153.085 284.232 153.837 283.896 154.717 283.624C155.613 283.352 156.469 283.216 157.285 283.216C158.741 283.216 159.813 283.496 160.501 284.056C161.189 284.616 161.533 285.648 161.533 287.152V293.512C161.533 293.816 161.613 293.992 161.773 294.04C161.949 294.072 162.325 294.032 162.901 293.92V294.952C162.741 295.016 162.525 295.072 162.253 295.12C161.981 295.184 161.725 295.216 161.485 295.216C160.941 295.216 160.589 295.104 160.429 294.88C160.269 294.656 160.173 294.232 160.141 293.608C159.645 294.152 158.989 294.552 158.173 294.808C157.357 295.064 156.565 295.2 155.797 295.216ZM155.869 293.896C156.637 293.88 157.349 293.76 158.005 293.536C158.677 293.312 159.205 292.992 159.589 292.576C159.989 292.144 160.173 291.624 160.141 291.016C160.093 290.52 159.821 290.152 159.325 289.912C158.829 289.656 158.189 289.536 157.405 289.552C156.749 289.552 156.117 289.664 155.509 289.888C154.901 290.112 154.405 290.424 154.021 290.824C153.653 291.208 153.469 291.656 153.469 292.168C153.469 292.76 153.693 293.2 154.141 293.488C154.589 293.76 155.165 293.896 155.869 293.896ZM165.569 295V283.504H166.961L167.033 285.496C167.353 284.824 167.857 284.28 168.545 283.864C169.249 283.432 170.025 283.216 170.873 283.216C171.097 283.216 171.321 283.232 171.545 283.264C171.785 283.28 171.985 283.312 172.145 283.36V284.776C172.001 284.744 171.793 284.712 171.521 284.68C171.265 284.648 171.001 284.632 170.729 284.632C170.057 284.632 169.441 284.792 168.881 285.112C168.321 285.416 167.873 285.832 167.537 286.36C167.217 286.872 167.057 287.456 167.057 288.112V295H165.569ZM174.592 295V277.672H176.056V295H174.592ZM180.207 300.184C179.919 300.184 179.623 300.16 179.319 300.112C179.031 300.08 178.775 300.032 178.551 299.968V298.6C178.775 298.664 179.023 298.712 179.295 298.744C179.583 298.792 179.855 298.816 180.111 298.816C180.703 298.816 181.143 298.68 181.431 298.408C181.719 298.152 181.991 297.696 182.247 297.04L183.015 295L178.503 283.504H180.015L183.687 293.176L187.215 283.504H188.751L183.543 297.496C183.207 298.424 182.783 299.104 182.271 299.536C181.759 299.968 181.071 300.184 180.207 300.184Z" fill="black"/>
<line x1="135.75" y1="232" x2="135.75" y2="252" stroke="#C1BEBE" stroke-width="1.5"/>
<line x1="1086" y1="251.75" x2="135" y2="251.75" stroke="#C1BEBE" stroke-width="1.5"/>
<line x1="1085.76" y1="233" x2="1085.76" y2="252" stroke="#C1BEBE" stroke-width="1.5"/>
<line x1="69.75" y1="232" x2="69.75" y2="252" stroke="#C1BEBE" stroke-width="1.5"/>
<line x1="122" y1="251.75" x2="69" y2="251.75" stroke="#C1BEBE" stroke-width="1.5"/>
<line x1="122.695" y1="233" x2="122.695" y2="252.5" stroke="#C1BEBE" stroke-width="1.5"/>
</svg>
